<svg version="1.1" xmlns="http://www.w3.org/2000/svg" viewBox="0 0 1265.362824040018 1133.3797026797672" width="2530.725648080036" height="2266.7594053595344">
  <!-- svg-source:excalidraw -->
  
  <defs>
    <style class="style-fonts">
      @font-face {
        font-family: "Virgil";
        src: url("https://excalidraw.com/Virgil.woff2");
      }
      @font-face {
        font-family: "Cascadia";
        src: url("https://excalidraw.com/Cascadia.woff2");
      }
      @font-face {
        font-family: "Assistant";
        src: url("https://excalidraw.com/Assistant-Regular.woff2");
      }
    </style>
    
  </defs>
  <rect x="0" y="0" width="1265.362824040018" height="1133.3797026797672" fill="#ffffff"></rect><g stroke-linecap="round" transform="translate(10 10) rotate(0 600.8548931604171 58.19119856264645)"><path d="M29.1 0 C411.26 -4.11, 793.96 -3.69, 1172.61 0 M29.1 0 C402.35 -1.99, 775.75 -1.76, 1172.61 0 M1172.61 0 C1193.78 -1.96, 1202.5 10.14, 1201.71 29.1 M1172.61 0 C1194.21 0.79, 1200.87 9.81, 1201.71 29.1 M1201.71 29.1 C1202.66 42.16, 1200.51 51.74, 1201.71 87.29 M1201.71 29.1 C1202.61 51.25, 1201.22 75.45, 1201.71 87.29 M1201.71 87.29 C1202.69 107.08, 1191.9 117.21, 1172.61 116.38 M1201.71 87.29 C1203.87 108.2, 1193.63 114.89, 1172.61 116.38 M1172.61 116.38 C718.23 114.98, 263.6 115.85, 29.1 116.38 M1172.61 116.38 C729.86 120.7, 286.27 120.53, 29.1 116.38 M29.1 116.38 C9.5 116.42, -1.99 105.3, 0 87.29 M29.1 116.38 C11.4 115.85, -1.24 106.96, 0 87.29 M0 87.29 C0.1 71.47, 1.53 52.99, 0 29.1 M0 87.29 C-0.49 68.13, 0.53 47.94, 0 29.1 M0 29.1 C0.96 8.16, 9.23 0.72, 29.1 0 M0 29.1 C-2.24 11.32, 9.02 1.85, 29.1 0" stroke="#1e1e1e" stroke-width="2" fill="none"></path></g><g transform="translate(466.8548931604171 45.69119856264645) rotate(0 144 22.5)"><text x="144" y="31.536" font-family="Virgil, Segoe UI Emoji" font-size="36px" fill="#1971c2" text-anchor="middle" style="white-space: pre;" direction="ltr" dominant-baseline="alphabetic">新安東京海上產險</text></g><g mask="url(#mask-h36VuxkEkFKU7aSbtlWdY)" stroke-linecap="round"><g transform="translate(522.7118712774302 888.7666391152551) rotate(0 -73.76393977898601 -368.22532681180394)"><path d="M-0.59 0.29 C-22.62 -33.34, -107.35 -79.9, -131.85 -202.68 C-156.35 -325.46, -145.03 -647.38, -147.6 -736.38 M1.31 -0.61 C-20.83 -34.02, -107.29 -79.15, -132.24 -201.55 C-157.19 -323.95, -145.97 -646.01, -148.4 -735.02" stroke="#1e1e1e" stroke-width="2" fill="none"></path></g><g transform="translate(522.7118712774302 888.7666391152551) rotate(0 -73.76393977898601 -368.22532681180394)"><path d="M-139.88 -711.52 C-142.04 -717.59, -146.64 -727.23, -148.4 -735.02 M-139.88 -711.52 C-143.41 -717.85, -144.65 -726.2, -148.4 -735.02" stroke="#1e1e1e" stroke-width="2" fill="none"></path></g><g transform="translate(522.7118712774302 888.7666391152551) rotate(0 -73.76393977898601 -368.22532681180394)"><path d="M-156.98 -711.54 C-153.48 -717.52, -152.42 -727.16, -148.4 -735.02 M-156.98 -711.54 C-155.27 -717.84, -151.28 -726.18, -148.4 -735.02" stroke="#1e1e1e" stroke-width="2" fill="none"></path></g></g><mask id="mask-h36VuxkEkFKU7aSbtlWdY"><rect x="0" y="0" fill="#fff" width="770.2397508354022" height="1725.2172927388629"></rect><rect x="329.8119234067674" y="649.3675725155794" fill="#000" width="120" height="75" opacity="1"></rect></mask><g transform="translate(329.8119234067673 649.3675725155795) rotate(0 119.1141526238469 -128.64546683325352)"><text x="60" y="17.52" font-family="Virgil, Segoe UI Emoji" font-size="20px" fill="#1e1e1e" text-anchor="middle" style="white-space: pre;" direction="ltr" dominant-baseline="alphabetic">填寫保費試算</text><text x="60" y="42.519999999999996" font-family="Virgil, Segoe UI Emoji" font-size="20px" fill="#1e1e1e" text-anchor="middle" style="white-space: pre;" direction="ltr" dominant-baseline="alphabetic">資料</text><text x="60" y="67.52" font-family="Virgil, Segoe UI Emoji" font-size="20px" fill="#1e1e1e" text-anchor="middle" style="white-space: pre;" direction="ltr" dominant-baseline="alphabetic">(00:15)</text></g><g transform="translate(386.90109607113334 460.3854252574255) rotate(0 -27.66668701171875 32.66668701171872)" stroke="none"><path fill="#e03131" d="M 0.31,1.91 Q 0.31,1.91 -0.78,2.16 -1.88,2.41 -2.74,3.13 -3.61,3.85 -4.81,4.89 -6.02,5.93 -7.11,6.97 -8.19,8.01 -9.76,9.10 -11.32,10.20 -12.64,11.31 -13.96,12.43 -15.66,13.42 -17.37,14.41 -19.42,15.48 -21.47,16.55 -23.69,17.74 -25.92,18.94 -26.96,19.71 -27.99,20.48 -29.00,21.23 -30.00,21.99 -28.73,22.49 -27.45,22.99 -26.28,23.32 -25.11,23.65 -23.70,24.01 -22.29,24.36 -20.73,24.73 -19.17,25.10 -14.70,26.15 -10.23,27.20 -7.74,27.90 -5.24,28.59 -3.68,28.80 -2.12,29.01 -0.59,29.06 0.92,29.11 1.04,29.23 1.15,29.34 1.43,29.40 1.71,29.46 1.96,29.58 2.22,29.70 2.44,29.88 2.66,30.05 2.83,30.28 3.00,30.51 3.11,30.77 3.22,31.03 3.27,31.30 3.32,31.58 3.29,31.87 3.27,32.15 3.18,32.42 3.09,32.68 2.94,32.92 2.79,33.16 2.59,33.36 2.39,33.56 2.14,33.70 1.90,33.84 1.62,33.92 1.35,34.00 1.07,34.01 0.79,34.02 -0.97,35.55 -2.74,37.08 -4.97,38.36 -7.19,39.65 -9.45,41.09 -11.70,42.53 -14.27,43.93 -16.85,45.33 -20.81,47.43 -24.78,49.53 -29.57,51.77 -34.36,54.01 -39.05,56.28 -43.75,58.56 -46.52,59.90 -49.29,61.24 -50.76,62.22 -52.24,63.19 -53.24,63.89 -54.24,64.59 -54.54,65.65 -54.84,66.71 -54.94,66.99 -55.04,67.26 -55.22,67.49 -55.40,67.72 -55.65,67.88 -55.89,68.03 -56.17,68.11 -56.45,68.18 -56.74,68.16 -57.03,68.14 -57.30,68.02 -57.57,67.91 -57.79,67.72 -58.00,67.52 -58.15,67.27 -58.29,67.02 -58.35,66.73 -58.41,66.45 -58.37,66.16 -58.33,65.87 -58.21,65.61 -58.08,65.35 -57.87,65.14 -57.67,64.94 -57.41,64.80 -57.15,64.67 -56.86,64.63 -56.58,64.59 -56.29,64.64 -56.00,64.70 -55.75,64.84 -55.50,64.98 -55.30,65.19 -55.10,65.41 -54.99,65.68 -54.87,65.94 -54.84,66.23 -54.82,66.52 -54.89,66.80 -54.96,67.09 -55.11,67.33 -55.26,67.58 -55.49,67.76 -55.72,67.95 -55.99,68.05 -56.26,68.15 -56.55,68.16 -56.84,68.17 -57.12,68.09 -57.40,68.00 -57.64,67.84 -57.87,67.67 -58.04,67.43 -58.22,67.20 -58.30,66.92 -58.39,66.64 -58.38,66.35 -58.38,66.06 -58.38,66.06 -58.38,66.06 -57.18,63.84 -55.99,61.62 -54.90,61.12 -53.82,60.63 -52.17,59.68 -50.53,58.73 -47.77,57.35 -45.02,55.97 -40.32,53.65 -35.63,51.33 -30.94,49.07 -26.26,46.81 -22.36,44.65 -18.47,42.48 -16.07,41.05 -13.68,39.63 -11.46,38.02 -9.24,36.41 -7.26,35.03 -5.28,33.65 -3.05,31.94 -0.82,30.23 0.16,29.79 1.15,29.34 1.43,29.40 1.71,29.46 1.96,29.58 2.22,29.70 2.44,29.88 2.66,30.05 2.83,30.28 3.00,30.51 3.11,30.77 3.22,31.03 3.27,31.30 3.32,31.58 3.29,31.87 3.27,32.15 3.18,32.42 3.09,32.68 2.94,32.92 2.79,33.16 2.59,33.36 2.39,33.56 2.14,33.70 1.90,33.84 1.63,33.92 1.35,34.00 1.07,34.01 0.79,34.02 0.42,33.72 0.05,33.41 -1.32,33.16 -2.70,32.92 -4.41,32.64 -6.11,32.36 -8.60,31.89 -11.09,31.43 -15.64,30.66 -20.19,29.89 -21.81,29.58 -23.43,29.27 -25.00,28.93 -26.56,28.59 -27.87,28.19 -29.19,27.79 -30.52,27.25 -31.85,26.72 -32.95,25.92 -34.06,25.12 -34.64,24.10 -35.23,23.08 -33.72,20.85 -32.21,18.63 -31.11,18.00 -30.01,17.36 -28.80,16.69 -27.59,16.01 -25.44,14.70 -23.28,13.38 -21.33,12.16 -19.39,10.93 -18.01,10.14 -16.63,9.34 -15.19,8.06 -13.76,6.77 -12.44,5.82 -11.13,4.86 -9.96,3.80 -8.79,2.73 -7.40,1.52 -6.01,0.30 -4.36,-0.67 -2.71,-1.64 -1.51,-1.78 -0.31,-1.91 -0.08,-1.92 0.14,-1.93 0.37,-1.88 0.60,-1.84 0.81,-1.74 1.03,-1.64 1.21,-1.49 1.39,-1.34 1.53,-1.16 1.67,-0.97 1.76,-0.76 1.86,-0.54 1.89,-0.31 1.93,-0.08 1.92,0.14 1.90,0.38 1.82,0.60 1.75,0.82 1.63,1.02 1.50,1.22 1.33,1.38 1.17,1.54 0.96,1.66 0.76,1.78 0.54,1.84 0.31,1.91 0.31,1.91 L 0.31,1.91 Z"></path></g><g mask="url(#mask-TdWownIlorQwWqZ0A24kA)" stroke-linecap="round"><g transform="translate(696.247363308157 887.5268645952353) rotate(0 54.87080814932074 -366.47766212583633)"><path d="M-0.42 0.65 C14.96 -35.3, 74.17 -93.79, 92.61 -215.98 C111.06 -338.18, 107.33 -646.35, 110.26 -732.51 M1.57 -0.06 C16.73 -36.33, 73.44 -95.39, 91.47 -217.82 C109.5 -340.25, 106.57 -648.95, 109.77 -734.62" stroke="#1e1e1e" stroke-width="2" fill="none"></path></g><g transform="translate(696.247363308157 887.5268645952353) rotate(0 54.87080814932074 -366.47766212583633)"><path d="M117.95 -711 C116.41 -719.39, 113.55 -725.65, 109.77 -734.62 M117.95 -711 C115.25 -719.32, 111.66 -725.93, 109.77 -734.62" stroke="#1e1e1e" stroke-width="2" fill="none"></path></g><g transform="translate(696.247363308157 887.5268645952353) rotate(0 54.87080814932074 -366.47766212583633)"><path d="M100.85 -711.26 C104.92 -719.51, 107.66 -725.68, 109.77 -734.62 M100.85 -711.26 C103.92 -719.5, 106.09 -726.02, 109.77 -734.62" stroke="#1e1e1e" stroke-width="2" fill="none"></path></g></g><mask id="mask-TdWownIlorQwWqZ0A24kA"><rect x="0" y="0" fill="#fff" width="905.9889796067985" height="1720.482188846908"></rect><rect x="749.2318170959531" y="646.0014970146374" fill="#000" width="80" height="50" opacity="1"></rect></mask><g transform="translate(319.5539918727302 375.79373970970494) rotate(0 50 25)"><text x="0" y="17.52" font-family="Virgil, Segoe UI Emoji" font-size="20px" fill="#e03131" text-anchor="start" style="white-space: pre;" direction="ltr" dominant-baseline="alphabetic">為什麼不能</text><text x="0" y="42.519999999999996" font-family="Virgil, Segoe UI Emoji" font-size="20px" fill="#e03131" text-anchor="start" style="white-space: pre;" direction="ltr" dominant-baseline="alphabetic">選擇四月底</text></g><g transform="translate(749.2318170959531 646.0014970146375) rotate(0 1.9378002848977758 -125.46100302717616)"><text x="40" y="17.52" font-family="Virgil, Segoe UI Emoji" font-size="20px" fill="#1e1e1e" text-anchor="middle" style="white-space: pre;" direction="ltr" dominant-baseline="alphabetic">註冊帳號</text><text x="40" y="42.519999999999996" font-family="Virgil, Segoe UI Emoji" font-size="20px" fill="#1e1e1e" text-anchor="middle" style="white-space: pre;" direction="ltr" dominant-baseline="alphabetic">(02:22)</text></g><g mask="url(#mask-KWPuEgzQQWrnsrICOKUp_)" stroke-linecap="round"><g transform="translate(558.167717497176 866.3760593053448) rotate(0 -37.88288675791779 -357.0900421616594)"><path d="M-0.6 -0.67 C-12.77 -44.23, -61.44 -141.78, -74.07 -260.89 C-86.7 -380, -76.08 -639.82, -76.39 -715.33 M1.28 1.59 C-10.4 -42.37, -58.56 -143.41, -71.69 -262.78 C-84.82 -382.14, -76.81 -639.63, -77.49 -714.62" stroke="#1e1e1e" stroke-width="2" fill="none"></path></g><g transform="translate(558.167717497176 866.3760593053448) rotate(0 -37.88288675791779 -357.0900421616594)"><path d="M-69.14 -691.05 C-72.12 -697.14, -72.03 -702.13, -77.49 -714.62 M-69.14 -691.05 C-71.2 -695.65, -72.46 -699.84, -77.49 -714.62" stroke="#1e1e1e" stroke-width="2" fill="none"></path></g><g transform="translate(558.167717497176 866.3760593053448) rotate(0 -37.88288675791779 -357.0900421616594)"><path d="M-86.24 -691.2 C-85.59 -697.17, -81.88 -702.13, -77.49 -714.62 M-86.24 -691.2 C-84.81 -695.8, -82.58 -699.96, -77.49 -714.62" stroke="#1e1e1e" stroke-width="2" fill="none"></path></g></g><mask id="mask-KWPuEgzQQWrnsrICOKUp_"><rect x="0" y="0" fill="#fff" width="733.9334910130116" height="1680.5561436286637"></rect><rect x="398.229711759981" y="580.0466930601849" fill="#000" width="172.99993896484375" height="50" opacity="1"></rect></mask><g transform="translate(398.2297117599811 580.046693060185) rotate(0 120.44271246027392 -70.54114077342217)"><text x="86.49996948242188" y="17.52" font-family="Virgil, Segoe UI Emoji" font-size="20px" fill="#1e1e1e" text-anchor="middle" style="white-space: pre;" direction="ltr" dominant-baseline="alphabetic">click on "試算保費"</text><text x="86.49996948242188" y="42.519999999999996" font-family="Virgil, Segoe UI Emoji" font-size="20px" fill="#1e1e1e" text-anchor="middle" style="white-space: pre;" direction="ltr" dominant-baseline="alphabetic">(00:38)</text></g><g mask="url(#mask-sIpZMGL-hxHehi7_jGHad)" stroke-linecap="round"><g transform="translate(608.1961085303267 857.4111236044279) rotate(0 -3.5772107910029263 -353.1528842556613)"><path d="M-0.37 -0.01 C-1.33 -52.96, -4.22 -200.8, -5.27 -318.43 C-6.32 -436.05, -6.18 -640.97, -6.67 -705.76 M1.63 -1.06 C0.49 -54.31, -4.66 -202.57, -6.13 -320.36 C-7.6 -438.15, -6.78 -643.46, -7.18 -707.81" stroke="#1e1e1e" stroke-width="2" fill="none"></path></g><g transform="translate(608.1961085303267 857.4111236044279) rotate(0 -3.5772107910029263 -353.1528842556613)"><path d="M1.4 -684.33 C-1.39 -692.06, -3.69 -699.55, -7.18 -707.81 M1.4 -684.33 C-1.68 -693.25, -4.31 -700.7, -7.18 -707.81" stroke="#1e1e1e" stroke-width="2" fill="none"></path></g><g transform="translate(608.1961085303267 857.4111236044279) rotate(0 -3.5772107910029263 -353.1528842556613)"><path d="M-15.7 -684.31 C-12.67 -691.99, -9.14 -699.49, -7.18 -707.81 M-15.7 -684.31 C-12.86 -693.12, -9.58 -700.58, -7.18 -707.81" stroke="#1e1e1e" stroke-width="2" fill="none"></path></g></g><mask id="mask-sIpZMGL-hxHehi7_jGHad"><rect x="0" y="0" fill="#fff" width="715.3505301123325" height="1663.7168921157504"></rect><rect x="522.742923014672" y="513.6171286299053" fill="#000" width="160" height="50" opacity="1"></rect></mask><g transform="translate(522.742923014672 513.6171286299053) rotate(0 82.67848531647155 -10.115157078787718)"><text x="80" y="17.52" font-family="Virgil, Segoe UI Emoji" font-size="20px" fill="#1e1e1e" text-anchor="middle" style="white-space: pre;" direction="ltr" dominant-baseline="alphabetic">查看加購其他險種</text><text x="80" y="42.519999999999996" font-family="Virgil, Segoe UI Emoji" font-size="20px" fill="#1e1e1e" text-anchor="middle" style="white-space: pre;" direction="ltr" dominant-baseline="alphabetic">(01:00)</text></g><g transform="translate(725.8179684613565 399.7490184101929) rotate(0 70 12.5)"><text x="0" y="17.52" font-family="Virgil, Segoe UI Emoji" font-size="20px" fill="#e03131" text-anchor="start" style="white-space: pre;" direction="ltr" dominant-baseline="alphabetic">註冊帳號太複雜</text></g><g transform="translate(846.30335760343 458.19537948077505) rotate(0 -51.549869082018404 15.882865659785068)" stroke="none"><path fill="#e03131" d="M -32.71,1.83 Q -32.71,1.83 -32.74,0.56 -32.77,-0.69 -35.13,0.38 -37.49,1.46 -40.03,2.10 -42.58,2.73 -43.92,3.33 -45.27,3.94 -46.62,4.32 -47.96,4.71 -46.90,6.75 -45.84,8.78 -45.27,10.38 -44.71,11.99 -43.59,14.61 -42.47,17.24 -41.19,19.26 -39.92,21.28 -38.95,22.85 -37.98,24.43 -37.74,26.00 -37.51,27.58 -38.77,28.65 -40.04,29.71 -41.11,29.81 -42.19,29.91 -42.97,30.68 -43.74,31.45 -44.90,32.26 -46.05,33.06 -47.27,33.78 -48.49,34.49 -50.84,35.05 -53.18,35.61 -57.16,35.47 -61.13,35.33 -64.27,34.20 -67.42,33.07 -69.13,32.31 -70.85,31.55 -72.09,32.56 -73.34,33.58 -73.53,33.46 -73.72,33.35 -73.88,33.19 -74.03,33.03 -74.15,32.84 -74.27,32.65 -74.33,32.44 -74.40,32.23 -74.41,32.00 -74.43,31.78 -74.39,31.56 -74.35,31.34 -74.26,31.14 -74.17,30.94 -74.03,30.76 -73.89,30.58 -73.72,30.45 -73.54,30.31 -73.34,30.22 -73.14,30.12 -72.92,30.08 -72.70,30.04 -72.47,30.06 -72.25,30.07 -72.04,30.13 -71.83,30.20 -71.44,31.56 -71.05,32.93 -71.26,33.15 -71.46,33.36 -71.73,33.50 -71.99,33.64 -72.29,33.69 -72.58,33.74 -72.88,33.69 -73.17,33.64 -73.44,33.50 -73.70,33.36 -73.91,33.14 -74.11,32.93 -74.24,32.65 -74.36,32.38 -74.40,32.09 -74.43,31.79 -74.36,31.50 -74.30,31.20 -74.14,30.95 -73.99,30.69 -73.76,30.50 -73.53,30.30 -73.26,30.19 -72.98,30.08 -72.68,30.07 -72.38,30.05 -72.09,30.13 -71.80,30.21 -71.56,30.38 -71.31,30.55 -71.13,30.79 -70.95,31.02 -70.85,31.31 -70.76,31.59 -70.76,31.89 -70.76,32.19 -70.85,32.47 -70.95,32.76 -71.13,32.99 -71.31,33.23 -71.56,33.40 -71.81,33.57 -72.09,33.65 -72.38,33.73 -72.68,33.71 -72.98,33.69 -73.26,33.58 -73.54,33.47 -73.76,33.28 -73.99,33.09 -74.15,32.83 -74.30,32.57 -74.36,32.28 -74.43,31.99 -74.40,31.69 -74.36,31.39 -73.85,32.49 -73.34,33.58 -73.53,33.46 -73.72,33.35 -73.88,33.19 -74.03,33.03 -74.15,32.84 -74.27,32.65 -74.33,32.44 -74.40,32.23 -74.41,32.00 -74.43,31.78 -74.39,31.56 -74.35,31.34 -74.26,31.14 -74.17,30.94 -74.03,30.76 -73.89,30.58 -73.72,30.45 -73.54,30.31 -73.34,30.22 -73.14,30.12 -72.92,30.08 -72.70,30.04 -72.47,30.06 -72.25,30.07 -72.04,30.13 -71.83,30.20 -70.68,29.24 -69.53,28.28 -67.90,29.01 -66.26,29.75 -63.63,30.62 -60.99,31.49 -57.66,31.49 -54.32,31.49 -52.58,30.86 -50.84,30.23 -49.77,29.66 -48.71,29.09 -47.64,28.41 -46.57,27.73 -43.87,27.06 -41.17,26.39 -42.09,24.89 -43.01,23.39 -44.60,21.22 -46.20,19.05 -47.64,16.38 -49.08,13.70 -49.83,11.96 -50.58,10.21 -51.08,8.73 -51.58,7.25 -52.00,6.16 -52.42,5.07 -52.36,3.92 -52.31,2.78 -51.41,1.77 -50.52,0.76 -48.71,0.43 -46.91,0.10 -45.33,-0.54 -43.76,-1.19 -41.51,-1.99 -39.27,-2.79 -36.53,-3.96 -33.78,-5.12 -32.72,-4.95 -31.66,-4.77 -30.41,-4.04 -29.17,-3.30 -28.63,-2.06 -28.09,-0.82 -28.11,0.50 -28.14,1.83 -28.18,2.10 -28.21,2.37 -28.31,2.63 -28.40,2.89 -28.56,3.11 -28.72,3.34 -28.92,3.52 -29.13,3.71 -29.37,3.83 -29.62,3.96 -29.89,4.03 -30.15,4.09 -30.43,4.09 -30.70,4.09 -30.97,4.03 -31.24,3.96 -31.48,3.83 -31.73,3.71 -31.93,3.52 -32.14,3.34 -32.30,3.11 -32.45,2.89 -32.55,2.63 -32.65,2.37 -32.68,2.10 -32.71,1.82 -32.71,1.83 L -32.71,1.83 Z"></path></g><g mask="url(#mask-d51J4ToDGuoae9HWEUgVK)" stroke-linecap="round"><g transform="translate(462.9704343630003 972.5325308408962) rotate(0 -188.83404857854617 -413.19163609453204)"><path d="M-0.87 0.62 C-56.49 -12.57, -272.17 58.45, -334.9 -79.36 C-397.63 -217.18, -370.29 -701.62, -377.25 -826.29 M0.88 -0.1 C-54.73 -13.17, -272.29 59.09, -335.4 -78.39 C-398.51 -215.86, -371.06 -700.19, -377.8 -824.93" stroke="#1e1e1e" stroke-width="2" fill="none"></path></g><g transform="translate(462.9704343630003 972.5325308408962) rotate(0 -188.83404857854617 -413.19163609453204)"><path d="M-369.22 -801.44 C-369.92 -804.92, -374.49 -810.49, -377.8 -824.93 M-369.22 -801.44 C-371.65 -808.64, -375.3 -815.58, -377.8 -824.93" stroke="#1e1e1e" stroke-width="2" fill="none"></path></g><g transform="translate(462.9704343630003 972.5325308408962) rotate(0 -188.83404857854617 -413.19163609453204)"><path d="M-386.32 -801.43 C-383.49 -804.78, -384.55 -810.36, -377.8 -824.93 M-386.32 -801.43 C-383.5 -808.49, -381.88 -815.43, -377.8 -824.93" stroke="#1e1e1e" stroke-width="2" fill="none"></path></g></g><mask id="mask-d51J4ToDGuoae9HWEUgVK"><rect x="0" y="0" fill="#fff" width="940.6385315200927" height="1898.9158030299604"></rect><rect x="37.5349876531825" y="869.2337460201538" fill="#000" width="179.35992431640625" height="50" opacity="1"></rect></mask><g transform="translate(37.534987653182554 869.2337460201538) rotate(0 236.79777040332243 -306.12849220185393)"><text x="89.67996215820312" y="17.52" font-family="Virgil, Segoe UI Emoji" font-size="20px" fill="#1e1e1e" text-anchor="middle" style="white-space: pre;" direction="ltr" dominant-baseline="alphabetic">click on “立即投保“</text><text x="89.67996215820312" y="42.519999999999996" font-family="Virgil, Segoe UI Emoji" font-size="20px" fill="#1e1e1e" text-anchor="middle" style="white-space: pre;" direction="ltr" dominant-baseline="alphabetic">(00:00)</text></g><g mask="url(#mask-JB89Ym2v8G389G0d-fhBN)" stroke-linecap="round"><g transform="translate(475.9833795984207 940.2565429453443) rotate(0 -151.63179064770173 -395.6293266728472)"><path d="M-1.17 0.3 C-46.16 -18.75, -219.44 18.69, -269.92 -113.11 C-320.39 -244.92, -298.26 -677.71, -304.02 -790.54 M0.41 -0.59 C-44.7 -19, -220.34 19.97, -270.66 -112.01 C-320.98 -244, -295.82 -679.16, -301.52 -792.51" stroke="#1e1e1e" stroke-width="2" fill="none"></path></g><g transform="translate(475.9833795984207 940.2565429453443) rotate(0 -151.63179064770173 -395.6293266728472)"><path d="M-293.01 -769 C-295.31 -775.51, -299.75 -784.49, -301.52 -792.51 M-293.01 -769 C-296.14 -777.63, -298.05 -785.61, -301.52 -792.51" stroke="#1e1e1e" stroke-width="2" fill="none"></path></g><g transform="translate(475.9833795984207 940.2565429453443) rotate(0 -151.63179064770173 -395.6293266728472)"><path d="M-310.11 -769.03 C-307.26 -775.37, -306.56 -784.33, -301.52 -792.51 M-310.11 -769.03 C-307.09 -777.81, -302.85 -785.78, -301.52 -792.51" stroke="#1e1e1e" stroke-width="2" fill="none"></path></g></g><mask id="mask-JB89Ym2v8G389G0d-fhBN"><rect x="0" y="0" fill="#fff" width="879.2469608938242" height="1831.5151962910386"></rect><rect x="109.1804826946966" y="802.9786759422859" fill="#000" width="192.99993896484375" height="50" opacity="1"></rect></mask><g transform="translate(109.1804826946966 802.9786759422859) rotate(0 214.96989775096438 -258.82806559319744)"><text x="96.49996948242188" y="17.52" font-family="Virgil, Segoe UI Emoji" font-size="20px" fill="#1e1e1e" text-anchor="middle" style="white-space: pre;" direction="ltr" dominant-baseline="alphabetic">click on "國外旅平險"</text><text x="96.49996948242188" y="42.519999999999996" font-family="Virgil, Segoe UI Emoji" font-size="20px" fill="#1e1e1e" text-anchor="middle" style="white-space: pre;" direction="ltr" dominant-baseline="alphabetic">(00:01)</text></g><g mask="url(#mask-GET5bh8x-MoPdLu4eJN3C)" stroke-linecap="round"><g transform="translate(496.55729588058784 910.7449871987727) rotate(0 -111.562090972227 -379.6785645630484)"><path d="M0.31 -0.33 C-33.07 -26.8, -164.01 -31.5, -201.12 -157.96 C-238.23 -284.41, -218.5 -658.73, -222.34 -759.06 M-0.99 -1.55 C-34.5 -27.96, -165.34 -30.86, -202.29 -156.87 C-239.24 -282.87, -218.99 -657.2, -222.69 -757.59" stroke="#1e1e1e" stroke-width="2" fill="none"></path></g><g transform="translate(496.55729588058784 910.7449871987727) rotate(0 -111.562090972227 -379.6785645630484)"><path d="M-214.28 -734.04 C-216.95 -740.19, -219.77 -743.62, -222.69 -757.59 M-214.28 -734.04 C-216.9 -741.56, -219.53 -748.4, -222.69 -757.59" stroke="#1e1e1e" stroke-width="2" fill="none"></path></g><g transform="translate(496.55729588058784 910.7449871987727) rotate(0 -111.562090972227 -379.6785645630484)"><path d="M-231.39 -734.15 C-230.08 -740.31, -228.94 -743.72, -222.69 -757.59 M-231.39 -734.15 C-228.45 -741.54, -225.53 -748.35, -222.69 -757.59" stroke="#1e1e1e" stroke-width="2" fill="none"></path></g></g><mask id="mask-GET5bh8x-MoPdLu4eJN3C"><rect x="0" y="0" fill="#fff" width="819.6814778250418" height="1770.1021163248695"></rect><rect x="209.36192600205936" y="728.6384134028464" fill="#000" width="172.99993896484375" height="50" opacity="1"></rect></mask><g transform="translate(209.36192600205936 728.6384134028464) rotate(0 174.8699067937107 -197.58831376917743)"><text x="86.49996948242188" y="17.52" font-family="Virgil, Segoe UI Emoji" font-size="20px" fill="#1e1e1e" text-anchor="middle" style="white-space: pre;" direction="ltr" dominant-baseline="alphabetic">click on "立即投保"</text><text x="86.49996948242188" y="42.519999999999996" font-family="Virgil, Segoe UI Emoji" font-size="20px" fill="#1e1e1e" text-anchor="middle" style="white-space: pre;" direction="ltr" dominant-baseline="alphabetic">(00:02)</text></g><g mask="url(#mask-ewbypL4BBhEURAVH1EEo6)" stroke-linecap="round"><g transform="translate(463.1408339382094 1018.2998208701349) rotate(0 -222.76667154347447 -433.2520540813274)"><path d="M0.75 -1.19 C-51.62 -2.83, -242.46 16.75, -313.29 -10.02 C-384.12 -36.79, -402.08 -18.07, -424.24 -161.79 C-446.41 -305.52, -442.52 -753.9, -446.29 -872.38 M-0.31 0.8 C-52.85 -0.66, -243.56 18.21, -313.83 -8.71 C-384.1 -35.64, -399.97 -16.93, -421.93 -160.73 C-443.89 -304.53, -441.23 -752.85, -445.6 -871.5" stroke="#1e1e1e" stroke-width="2" fill="none"></path></g><g transform="translate(463.1408339382094 1018.2998208701349) rotate(0 -222.76667154347447 -433.2520540813274)"><path d="M-436.67 -848.15 C-442 -855.63, -444.12 -867.58, -445.6 -871.5 M-436.67 -848.15 C-438.93 -854.83, -440.6 -859.81, -445.6 -871.5" stroke="#1e1e1e" stroke-width="2" fill="none"></path></g><g transform="translate(463.1408339382094 1018.2998208701349) rotate(0 -222.76667154347447 -433.2520540813274)"><path d="M-453.77 -847.87 C-452.63 -855.56, -448.29 -867.62, -445.6 -871.5 M-453.77 -847.87 C-451.59 -854.57, -448.82 -859.62, -445.6 -871.5" stroke="#1e1e1e" stroke-width="2" fill="none"></path></g></g><mask id="mask-ewbypL4BBhEURAVH1EEo6"><rect x="0" y="0" fill="#fff" width="1010.2546700484049" height="1990.2481304391943"></rect><rect x="25.836286032996668" y="937.0513806229392" fill="#000" width="80" height="50" opacity="1"></rect></mask><g transform="translate(25.836286032996725 937.0513806229392) rotate(0 214.53787636173823 -352.00361383413167)"><text x="40" y="17.52" font-family="Virgil, Segoe UI Emoji" font-size="20px" fill="#1e1e1e" text-anchor="middle" style="white-space: pre;" direction="ltr" dominant-baseline="alphabetic">進入主頁</text><text x="40" y="42.519999999999996" font-family="Virgil, Segoe UI Emoji" font-size="20px" fill="#1e1e1e" text-anchor="middle" style="white-space: pre;" direction="ltr" dominant-baseline="alphabetic">(00:00)</text></g><g mask="url(#mask-8k8TaOVahs3f2VB5cpC7E)" stroke-linecap="round"><g transform="translate(727.1958044973414 910.6422024841754) rotate(0 83.76599658488692 -379.6574089678887)"><path d="M-0.51 -0.02 C23.91 -26.99, 118.09 -34.64, 146.29 -161.39 C174.49 -288.14, 165.16 -660.79, 168.69 -760.51 M1.42 -1.07 C26.26 -28.46, 120.79 -36.83, 148.64 -163.29 C176.49 -289.75, 165.35 -660.57, 168.53 -759.82" stroke="#1e1e1e" stroke-width="2" fill="none"></path></g><g transform="translate(727.1958044973414 910.6422024841754) rotate(0 83.76599658488692 -379.6574089678887)"><path d="M177.01 -736.3 C174.51 -744.09, 172.89 -747.57, 168.53 -759.82 M177.01 -736.3 C174.56 -741.11, 174.48 -746.34, 168.53 -759.82" stroke="#1e1e1e" stroke-width="2" fill="none"></path></g><g transform="translate(727.1958044973414 910.6422024841754) rotate(0 83.76599658488692 -379.6574089678887)"><path d="M159.91 -736.35 C162.2 -744.05, 165.35 -747.52, 168.53 -759.82 M159.91 -736.35 C160.89 -741.1, 164.23 -746.31, 168.53 -759.82" stroke="#1e1e1e" stroke-width="2" fill="none"></path></g></g><mask id="mask-8k8TaOVahs3f2VB5cpC7E"><rect x="0" y="0" fill="#fff" width="994.7277976671153" height="1769.9570204199529"></rect><rect x="814.1920950169892" y="711.3225499405353" fill="#000" width="120" height="75" opacity="1"></rect></mask><g transform="translate(814.1920950169892 711.3225499405353) rotate(0 -2.9090950075222963 -180.94433969058122)"><text x="60" y="17.52" font-family="Virgil, Segoe UI Emoji" font-size="20px" fill="#1e1e1e" text-anchor="middle" style="white-space: pre;" direction="ltr" dominant-baseline="alphabetic">填寫要保人、</text><text x="60" y="42.519999999999996" font-family="Virgil, Segoe UI Emoji" font-size="20px" fill="#1e1e1e" text-anchor="middle" style="white-space: pre;" direction="ltr" dominant-baseline="alphabetic">被保人資料</text><text x="60" y="67.52" font-family="Virgil, Segoe UI Emoji" font-size="20px" fill="#1e1e1e" text-anchor="middle" style="white-space: pre;" direction="ltr" dominant-baseline="alphabetic">（03:05)</text></g><g transform="translate(922.6072121737536 481.1716681384311) rotate(0 -32.33365817838967 26.559403917295754)" stroke="none"><path fill="#e03131" d="M -25.60,2.21 Q -25.60,2.21 -27.35,2.77 -29.09,3.33 -30.39,4.01 -31.69,4.69 -33.02,5.47 -34.35,6.25 -35.92,7.40 -37.49,8.55 -38.29,9.30 -39.09,10.06 -40.33,11.30 -41.58,12.55 -41.89,12.96 -42.19,13.36 -42.42,13.56 -42.65,13.76 -42.93,13.90 -43.20,14.04 -43.50,14.10 -43.80,14.17 -44.10,14.17 -44.41,14.16 -44.70,14.08 -45.00,14.01 -45.27,13.86 -45.54,13.71 -45.76,13.51 -45.99,13.30 -46.16,13.04 -46.33,12.79 -46.43,12.50 -46.53,12.21 -46.57,11.91 -46.60,11.61 -46.56,11.30 -46.51,11.00 -46.40,10.72 -46.29,10.43 -46.11,10.18 -45.93,9.93 -44.19,9.82 -42.45,9.71 -40.14,11.55 -37.84,13.39 -34.58,16.56 -31.33,19.73 -28.94,22.15 -26.55,24.56 -24.97,26.29 -23.38,28.02 -22.32,29.01 -21.26,30.01 -20.17,31.06 -19.07,32.11 -18.54,33.30 -18.01,34.49 -18.44,35.83 -18.88,37.17 -19.84,38.07 -20.80,38.97 -21.74,39.84 -22.69,40.71 -23.95,41.81 -25.21,42.92 -26.62,44.07 -28.02,45.23 -29.47,46.39 -30.91,47.55 -32.12,48.54 -33.32,49.53 -34.24,50.23 -35.15,50.94 -36.00,51.62 -36.85,52.30 -39.28,54.01 -41.71,55.73 -42.15,55.79 -42.59,55.85 -43.03,55.76 -43.47,55.68 -43.86,55.46 -44.24,55.24 -44.54,54.91 -44.84,54.58 -45.02,54.17 -45.19,53.76 -45.23,53.32 -45.27,52.88 -45.16,52.44 -45.06,52.01 -44.82,51.64 -44.58,51.26 -44.23,50.98 -43.88,50.70 -43.47,50.55 -43.05,50.39 -42.60,50.38 -42.16,50.36 -41.73,50.49 -41.31,50.62 -40.94,50.88 -40.58,51.14 -40.32,51.50 -40.06,51.87 -39.93,52.29 -39.80,52.72 -39.81,53.16 -39.82,53.61 -39.97,54.03 -40.12,54.44 -40.40,54.79 -40.68,55.14 -41.06,55.38 -41.43,55.62 -41.86,55.73 -42.29,55.84 -42.74,55.80 -43.18,55.77 -43.59,55.59 -44.00,55.42 -44.33,55.12 -44.67,54.82 -44.89,54.44 -45.11,54.05 -45.19,53.61 -45.28,53.17 -45.22,52.73 -45.16,52.29 -44.96,51.89 -44.76,51.49 -44.45,51.18 -44.13,50.86 -43.74,50.66 -43.34,50.46 -43.34,50.46 -43.34,50.46 -42.28,49.66 -41.22,48.86 -40.12,48.26 -39.01,47.66 -37.60,46.83 -36.19,46.00 -35.03,45.06 -33.87,44.13 -32.53,42.89 -31.20,41.65 -29.94,40.44 -28.68,39.23 -27.48,38.02 -26.28,36.80 -24.40,35.77 -22.52,34.74 -23.23,33.67 -23.95,32.60 -24.90,31.52 -25.84,30.43 -27.49,28.86 -29.14,27.28 -31.64,25.04 -34.14,22.79 -37.44,19.95 -40.73,17.10 -43.04,15.46 -45.34,13.82 -43.77,13.59 -42.19,13.36 -42.42,13.56 -42.65,13.76 -42.93,13.90 -43.20,14.04 -43.50,14.10 -43.80,14.17 -44.10,14.17 -44.41,14.16 -44.70,14.08 -45.00,14.01 -45.27,13.86 -45.54,13.71 -45.76,13.51 -45.99,13.30 -46.16,13.04 -46.33,12.79 -46.43,12.50 -46.53,12.21 -46.57,11.91 -46.60,11.61 -46.56,11.30 -46.51,11.00 -46.40,10.72 -46.29,10.43 -46.11,10.18 -45.93,9.93 -45.31,9.42 -44.70,8.91 -43.25,7.83 -41.80,6.76 -40.90,6.12 -40.01,5.48 -38.30,3.95 -36.60,2.42 -35.17,1.59 -33.74,0.76 -32.17,-0.05 -30.60,-0.86 -28.89,-1.54 -27.18,-2.21 -26.91,-2.27 -26.63,-2.33 -26.35,-2.33 -26.06,-2.32 -25.79,-2.25 -25.52,-2.18 -25.27,-2.04 -25.02,-1.90 -24.81,-1.71 -24.60,-1.52 -24.45,-1.28 -24.29,-1.05 -24.19,-0.78 -24.10,-0.51 -24.07,-0.23 -24.04,0.04 -24.08,0.32 -24.12,0.60 -24.23,0.87 -24.33,1.13 -24.50,1.36 -24.66,1.59 -24.88,1.77 -25.10,1.96 -25.35,2.08 -25.60,2.21 -25.60,2.21 L -25.60,2.21 Z"></path></g><g transform="translate(837.3915367640332 412.0506932183389) rotate(0 70 25)"><text x="0" y="17.52" font-family="Virgil, Segoe UI Emoji" font-size="20px" fill="#e03131" text-anchor="start" style="white-space: pre;" direction="ltr" dominant-baseline="alphabetic"></text><text x="0" y="42.519999999999996" font-family="Virgil, Segoe UI Emoji" font-size="20px" fill="#e03131" text-anchor="start" style="white-space: pre;" direction="ltr" dominant-baseline="alphabetic">這些是必填嗎？</text></g><g mask="url(#mask-mfxQO1-WY7bhuoZCbmgfl)" stroke-linecap="round"><g transform="translate(755.2798993945416 978.6036527008027) rotate(0 167.7415759938209 -413.0299449537315)"><path d="M-0.52 -1.12 C48.68 -18.88, 239.59 30.19, 295.41 -107.27 C351.23 -244.74, 327.63 -706.15, 334.41 -825.93 M1.42 0.9 C50.54 -16.69, 239.21 31.22, 295.09 -106.35 C350.98 -243.93, 329.81 -704.81, 336.74 -824.54" stroke="#1e1e1e" stroke-width="2" fill="none"></path></g><g transform="translate(755.2798993945416 978.6036527008027) rotate(0 167.7415759938209 -413.0299449537315)"><path d="M345.09 -800.98 C340.71 -806.53, 337.95 -817.83, 336.74 -824.54 M345.09 -800.98 C342.66 -807.55, 339.22 -815.96, 336.74 -824.54" stroke="#1e1e1e" stroke-width="2" fill="none"></path></g><g transform="translate(755.2798993945416 978.6036527008027) rotate(0 167.7415759938209 -413.0299449537315)"><path d="M327.99 -801.12 C329.06 -806.55, 331.75 -817.81, 336.74 -824.54 M327.99 -801.12 C330.88 -807.67, 332.76 -816.03, 336.74 -824.54" stroke="#1e1e1e" stroke-width="2" fill="none"></path></g></g><mask id="mask-mfxQO1-WY7bhuoZCbmgfl"><rect x="0" y="0" fill="#fff" width="1190.7630513821834" height="1904.6635426082657"></rect><rect x="1009.4957082458345" y="847.5086259056529" fill="#000" width="80" height="50" opacity="1"></rect></mask><g transform="translate(1009.4957082458343 847.5086259056529) rotate(0 -86.10529478518515 -281.4163709156646)"><text x="40" y="17.52" font-family="Virgil, Segoe UI Emoji" font-size="20px" fill="#1e1e1e" text-anchor="middle" style="white-space: pre;" direction="ltr" dominant-baseline="alphabetic">確認資料</text><text x="40" y="42.519999999999996" font-family="Virgil, Segoe UI Emoji" font-size="20px" fill="#1e1e1e" text-anchor="middle" style="white-space: pre;" direction="ltr" dominant-baseline="alphabetic">(05:00)</text></g><g transform="translate(1120.953558802452 608.2310948607062) rotate(0 -32.33365817838967 26.559403917295754)" stroke="none"><path fill="#e03131" d="M -25.60,2.21 Q -25.60,2.21 -27.35,2.77 -29.09,3.33 -30.39,4.01 -31.69,4.69 -33.02,5.47 -34.35,6.25 -35.92,7.40 -37.49,8.55 -38.29,9.30 -39.09,10.06 -40.33,11.30 -41.58,12.55 -41.89,12.96 -42.19,13.36 -42.42,13.56 -42.65,13.76 -42.93,13.90 -43.20,14.04 -43.50,14.10 -43.80,14.17 -44.10,14.17 -44.41,14.16 -44.70,14.08 -45.00,14.01 -45.27,13.86 -45.54,13.71 -45.76,13.51 -45.99,13.30 -46.16,13.04 -46.33,12.79 -46.43,12.50 -46.53,12.21 -46.57,11.91 -46.60,11.61 -46.56,11.30 -46.51,11.00 -46.40,10.72 -46.29,10.43 -46.11,10.18 -45.93,9.93 -44.19,9.82 -42.45,9.71 -40.14,11.55 -37.84,13.39 -34.58,16.56 -31.33,19.73 -28.94,22.15 -26.55,24.56 -24.97,26.29 -23.38,28.02 -22.32,29.01 -21.26,30.01 -20.17,31.06 -19.07,32.11 -18.54,33.30 -18.01,34.49 -18.44,35.83 -18.88,37.17 -19.84,38.07 -20.80,38.97 -21.74,39.84 -22.69,40.71 -23.95,41.81 -25.21,42.92 -26.62,44.07 -28.02,45.23 -29.47,46.39 -30.91,47.55 -32.12,48.54 -33.32,49.53 -34.24,50.23 -35.15,50.94 -36.00,51.62 -36.85,52.30 -39.28,54.01 -41.71,55.73 -42.15,55.79 -42.59,55.85 -43.03,55.76 -43.47,55.68 -43.86,55.46 -44.24,55.24 -44.54,54.91 -44.84,54.58 -45.02,54.17 -45.19,53.76 -45.23,53.32 -45.27,52.88 -45.16,52.44 -45.06,52.01 -44.82,51.64 -44.58,51.26 -44.23,50.98 -43.88,50.70 -43.47,50.55 -43.05,50.39 -42.60,50.38 -42.16,50.36 -41.73,50.49 -41.31,50.62 -40.94,50.88 -40.58,51.14 -40.32,51.50 -40.06,51.87 -39.93,52.29 -39.80,52.72 -39.81,53.16 -39.82,53.61 -39.97,54.03 -40.12,54.44 -40.40,54.79 -40.68,55.14 -41.06,55.38 -41.43,55.62 -41.86,55.73 -42.29,55.84 -42.74,55.80 -43.18,55.77 -43.59,55.59 -44.00,55.42 -44.33,55.12 -44.67,54.82 -44.89,54.44 -45.11,54.05 -45.19,53.61 -45.28,53.17 -45.22,52.73 -45.16,52.29 -44.96,51.89 -44.76,51.49 -44.45,51.18 -44.13,50.86 -43.74,50.66 -43.34,50.46 -43.34,50.46 -43.34,50.46 -42.28,49.66 -41.22,48.86 -40.12,48.26 -39.01,47.66 -37.60,46.83 -36.19,46.00 -35.03,45.06 -33.87,44.13 -32.53,42.89 -31.20,41.65 -29.94,40.44 -28.68,39.23 -27.48,38.02 -26.28,36.80 -24.40,35.77 -22.52,34.74 -23.23,33.67 -23.95,32.60 -24.90,31.52 -25.84,30.43 -27.49,28.86 -29.14,27.28 -31.64,25.04 -34.14,22.79 -37.44,19.95 -40.73,17.10 -43.04,15.46 -45.34,13.82 -43.77,13.59 -42.19,13.36 -42.42,13.56 -42.65,13.76 -42.93,13.90 -43.20,14.04 -43.50,14.10 -43.80,14.17 -44.10,14.17 -44.41,14.16 -44.70,14.08 -45.00,14.01 -45.27,13.86 -45.54,13.71 -45.76,13.51 -45.99,13.30 -46.16,13.04 -46.33,12.79 -46.43,12.50 -46.53,12.21 -46.57,11.91 -46.60,11.61 -46.56,11.30 -46.51,11.00 -46.40,10.72 -46.29,10.43 -46.11,10.18 -45.93,9.93 -45.31,9.42 -44.70,8.91 -43.25,7.83 -41.80,6.76 -40.90,6.12 -40.01,5.48 -38.30,3.95 -36.60,2.42 -35.17,1.59 -33.74,0.76 -32.17,-0.05 -30.60,-0.86 -28.89,-1.54 -27.18,-2.21 -26.91,-2.27 -26.63,-2.33 -26.35,-2.33 -26.06,-2.32 -25.79,-2.25 -25.52,-2.18 -25.27,-2.04 -25.02,-1.90 -24.81,-1.71 -24.60,-1.52 -24.45,-1.28 -24.29,-1.05 -24.19,-0.78 -24.10,-0.51 -24.07,-0.23 -24.04,0.04 -24.08,0.32 -24.12,0.60 -24.23,0.87 -24.33,1.13 -24.50,1.36 -24.66,1.59 -24.88,1.77 -25.10,1.96 -25.35,2.08 -25.60,2.21 -25.60,2.21 L -25.60,2.21 Z"></path></g><g transform="translate(1038.7970396666333 533.6743043470167) rotate(0 60 25)"><text x="60" y="17.52" font-family="Virgil, Segoe UI Emoji" font-size="20px" fill="#e03131" text-anchor="middle" style="white-space: pre;" direction="ltr" dominant-baseline="alphabetic">不確定自己在</text><text x="60" y="42.519999999999996" font-family="Virgil, Segoe UI Emoji" font-size="20px" fill="#e03131" text-anchor="middle" style="white-space: pre;" direction="ltr" dominant-baseline="alphabetic">哪一個步驟</text></g><g mask="url(#mask-CJxYIxJ7bFj-0_kA9ufoz)" stroke-linecap="round"><g transform="translate(761.6342340932947 1016.9877088265869) rotate(0 208.6311202328368 -431.90563653304906)"><path d="M0.28 0.38 C60.97 -14.74, 294.59 52.52, 364.16 -91.66 C433.73 -235.84, 408.89 -736.13, 417.71 -864.7 M-1.03 -0.47 C60.05 -15.84, 296.82 50.51, 366.53 -93.39 C436.23 -237.29, 408.72 -735.2, 417.18 -863.85" stroke="#1e1e1e" stroke-width="2" fill="none"></path></g><g transform="translate(761.6342340932947 1016.9877088265869) rotate(0 208.6311202328368 -431.90563653304906)"><path d="M425.55 -840.29 C423.84 -848.52, 421.91 -853.8, 417.18 -863.85 M425.55 -840.29 C423.69 -845.88, 421.8 -850.21, 417.18 -863.85" stroke="#1e1e1e" stroke-width="2" fill="none"></path></g><g transform="translate(761.6342340932947 1016.9877088265869) rotate(0 208.6311202328368 -431.90563653304906)"><path d="M408.45 -840.42 C411.92 -848.65, 415.17 -853.89, 417.18 -863.85 M408.45 -840.42 C410.45 -846.08, 412.43 -850.38, 417.18 -863.85" stroke="#1e1e1e" stroke-width="2" fill="none"></path></g></g><mask id="mask-CJxYIxJ7bFj-0_kA9ufoz"><rect x="0" y="0" fill="#fff" width="1278.8964745589683" height="1980.7989818926849"></rect><rect x="1089.8312581105174" y="899.5875423548257" fill="#000" width="73.25994873046875" height="50" opacity="1"></rect></mask><g transform="translate(1089.8312581105174 899.5875423548257) rotate(0 -119.85787264243243 -313.3271413996585)"><text x="36.629974365234375" y="17.52" font-family="Virgil, Segoe UI Emoji" font-size="20px" fill="#1e1e1e" text-anchor="middle" style="white-space: pre;" direction="ltr" dominant-baseline="alphabetic">付款</text><text x="36.629974365234375" y="42.519999999999996" font-family="Virgil, Segoe UI Emoji" font-size="20px" fill="#1e1e1e" text-anchor="middle" style="white-space: pre;" direction="ltr" dominant-baseline="alphabetic">(05:33)</text></g><g mask="url(#mask-QSPv7TRbubbD4CijAQsya)" stroke-linecap="round"><g transform="translate(653.4135037222438 867.3568957295961) rotate(0 30.92909596870743 -357.3088747443795)"><path d="M-0.41 0.92 C8.12 -43.36, 41.66 -146.97, 51.94 -266.34 C62.22 -385.7, 59.61 -640.46, 61.26 -715.27 M1.57 0.36 C10.42 -43.67, 44.44 -145.74, 54.21 -264.85 C63.98 -383.96, 58.87 -639.37, 60.18 -714.3" stroke="#1e1e1e" stroke-width="2" fill="none"></path></g><g transform="translate(653.4135037222438 867.3568957295961) rotate(0 30.92909596870743 -357.3088747443795)"><path d="M68.73 -690.8 C67.3 -700.72, 62.53 -708.82, 60.18 -714.3 M68.73 -690.8 C66.33 -696.7, 63.84 -703.23, 60.18 -714.3" stroke="#1e1e1e" stroke-width="2" fill="none"></path></g><g transform="translate(653.4135037222438 867.3568957295961) rotate(0 30.92909596870743 -357.3088747443795)"><path d="M51.63 -690.81 C56.38 -700.67, 57.79 -708.76, 60.18 -714.3 M51.63 -690.81 C53.43 -696.62, 55.14 -703.15, 60.18 -714.3" stroke="#1e1e1e" stroke-width="2" fill="none"></path></g></g><mask id="mask-QSPv7TRbubbD4CijAQsya"><rect x="0" y="0" fill="#fff" width="815.2716956596587" height="1681.9746452183551"></rect><rect x="666.191979746422" y="576.1087391906683" fill="#000" width="80" height="50" opacity="1"></rect></mask><g transform="translate(666.191979746422 576.1087391906684) rotate(0 17.6460464514509 -65.92780259053382)"><text x="40" y="17.52" font-family="Virgil, Segoe UI Emoji" font-size="20px" fill="#1e1e1e" text-anchor="middle" style="white-space: pre;" direction="ltr" dominant-baseline="alphabetic">立即投保</text><text x="40" y="42.519999999999996" font-family="Virgil, Segoe UI Emoji" font-size="20px" fill="#1e1e1e" text-anchor="middle" style="white-space: pre;" direction="ltr" dominant-baseline="alphabetic">(02:16)</text></g><g mask="url(#mask-nHqUqyLV8htVo2e7XKMBk)" stroke-linecap="round"><g transform="translate(748.3308815657031 942.4976191856271) rotate(0 123.58810867420141 -394.31458853090385)"><path d="M0.63 0.41 C38.28 -20.86, 185.29 5.09, 226.34 -126.46 C267.39 -258.02, 243.42 -678.46, 246.94 -788.9 M-0.5 -0.42 C37 -21.06, 184.6 5.78, 225.69 -125.44 C266.78 -256.66, 242.35 -677.26, 246.04 -787.73" stroke="#1e1e1e" stroke-width="2" fill="none"></path></g><g transform="translate(748.3308815657031 942.4976191856271) rotate(0 123.58810867420141 -394.31458853090385)"><path d="M254.84 -764.33 C252.33 -771.22, 247.06 -780.45, 246.04 -787.73 M254.84 -764.33 C253.04 -770.06, 249.24 -776.65, 246.04 -787.73" stroke="#1e1e1e" stroke-width="2" fill="none"></path></g><g transform="translate(748.3308815657031 942.4976191856271) rotate(0 123.58810867420141 -394.31458853090385)"><path d="M237.74 -764.15 C240.99 -771.19, 241.48 -780.48, 246.04 -787.73 M237.74 -764.15 C240.68 -769.86, 241.62 -776.49, 246.04 -787.73" stroke="#1e1e1e" stroke-width="2" fill="none"></path></g></g><mask id="mask-nHqUqyLV8htVo2e7XKMBk"><rect x="0" y="0" fill="#fff" width="1095.5070989141059" height="1831.1267962474349"></rect><rect x="907.5463178246009" y="792.0110789852821" fill="#000" width="133.1199951171875" height="50" opacity="1"></rect></mask><g transform="translate(907.5463178246009 792.011078985282) rotate(0 -34.0955836004332 -243.76086877474035)"><text x="66.55999755859375" y="17.52" font-family="Virgil, Segoe UI Emoji" font-size="20px" fill="#1e1e1e" text-anchor="middle" style="white-space: pre;" direction="ltr" dominant-baseline="alphabetic">填寫"告知事項"</text><text x="66.55999755859375" y="42.519999999999996" font-family="Virgil, Segoe UI Emoji" font-size="20px" fill="#1e1e1e" text-anchor="middle" style="white-space: pre;" direction="ltr" dominant-baseline="alphabetic">(04:15)</text></g><g transform="translate(1028.2493582001061 542.221179673096) rotate(0 -32.33365817838967 26.559403917295754)" stroke="none"><path fill="#e03131" d="M -25.60,2.21 Q -25.60,2.21 -27.35,2.77 -29.09,3.33 -30.39,4.01 -31.69,4.69 -33.02,5.47 -34.35,6.25 -35.92,7.40 -37.49,8.55 -38.29,9.30 -39.09,10.06 -40.33,11.30 -41.58,12.55 -41.89,12.96 -42.19,13.36 -42.42,13.56 -42.65,13.76 -42.93,13.90 -43.20,14.04 -43.50,14.10 -43.80,14.17 -44.10,14.17 -44.41,14.16 -44.70,14.08 -45.00,14.01 -45.27,13.86 -45.54,13.71 -45.76,13.51 -45.99,13.30 -46.16,13.04 -46.33,12.79 -46.43,12.50 -46.53,12.21 -46.57,11.91 -46.60,11.61 -46.56,11.30 -46.51,11.00 -46.40,10.72 -46.29,10.43 -46.11,10.18 -45.93,9.93 -44.19,9.82 -42.45,9.71 -40.14,11.55 -37.84,13.39 -34.58,16.56 -31.33,19.73 -28.94,22.15 -26.55,24.56 -24.97,26.29 -23.38,28.02 -22.32,29.01 -21.26,30.01 -20.17,31.06 -19.07,32.11 -18.54,33.30 -18.01,34.49 -18.44,35.83 -18.88,37.17 -19.84,38.07 -20.80,38.97 -21.74,39.84 -22.69,40.71 -23.95,41.81 -25.21,42.92 -26.62,44.07 -28.02,45.23 -29.47,46.39 -30.91,47.55 -32.12,48.54 -33.32,49.53 -34.24,50.23 -35.15,50.94 -36.00,51.62 -36.85,52.30 -39.28,54.01 -41.71,55.73 -42.15,55.79 -42.59,55.85 -43.03,55.76 -43.47,55.68 -43.86,55.46 -44.24,55.24 -44.54,54.91 -44.84,54.58 -45.02,54.17 -45.19,53.76 -45.23,53.32 -45.27,52.88 -45.16,52.44 -45.06,52.01 -44.82,51.64 -44.58,51.26 -44.23,50.98 -43.88,50.70 -43.47,50.55 -43.05,50.39 -42.60,50.38 -42.16,50.36 -41.73,50.49 -41.31,50.62 -40.94,50.88 -40.58,51.14 -40.32,51.50 -40.06,51.87 -39.93,52.29 -39.80,52.72 -39.81,53.16 -39.82,53.61 -39.97,54.03 -40.12,54.44 -40.40,54.79 -40.68,55.14 -41.06,55.38 -41.43,55.62 -41.86,55.73 -42.29,55.84 -42.74,55.80 -43.18,55.77 -43.59,55.59 -44.00,55.42 -44.33,55.12 -44.67,54.82 -44.89,54.44 -45.11,54.05 -45.19,53.61 -45.28,53.17 -45.22,52.73 -45.16,52.29 -44.96,51.89 -44.76,51.49 -44.45,51.18 -44.13,50.86 -43.74,50.66 -43.34,50.46 -43.34,50.46 -43.34,50.46 -42.28,49.66 -41.22,48.86 -40.12,48.26 -39.01,47.66 -37.60,46.83 -36.19,46.00 -35.03,45.06 -33.87,44.13 -32.53,42.89 -31.20,41.65 -29.94,40.44 -28.68,39.23 -27.48,38.02 -26.28,36.80 -24.40,35.77 -22.52,34.74 -23.23,33.67 -23.95,32.60 -24.90,31.52 -25.84,30.43 -27.49,28.86 -29.14,27.28 -31.64,25.04 -34.14,22.79 -37.44,19.95 -40.73,17.10 -43.04,15.46 -45.34,13.82 -43.77,13.59 -42.19,13.36 -42.42,13.56 -42.65,13.76 -42.93,13.90 -43.20,14.04 -43.50,14.10 -43.80,14.17 -44.10,14.17 -44.41,14.16 -44.70,14.08 -45.00,14.01 -45.27,13.86 -45.54,13.71 -45.76,13.51 -45.99,13.30 -46.16,13.04 -46.33,12.79 -46.43,12.50 -46.53,12.21 -46.57,11.91 -46.60,11.61 -46.56,11.30 -46.51,11.00 -46.40,10.72 -46.29,10.43 -46.11,10.18 -45.93,9.93 -45.31,9.42 -44.70,8.91 -43.25,7.83 -41.80,6.76 -40.90,6.12 -40.01,5.48 -38.30,3.95 -36.60,2.42 -35.17,1.59 -33.74,0.76 -32.17,-0.05 -30.60,-0.86 -28.89,-1.54 -27.18,-2.21 -26.91,-2.27 -26.63,-2.33 -26.35,-2.33 -26.06,-2.32 -25.79,-2.25 -25.52,-2.18 -25.27,-2.04 -25.02,-1.90 -24.81,-1.71 -24.60,-1.52 -24.45,-1.28 -24.29,-1.05 -24.19,-0.78 -24.10,-0.51 -24.07,-0.23 -24.04,0.04 -24.08,0.32 -24.12,0.60 -24.23,0.87 -24.33,1.13 -24.50,1.36 -24.66,1.59 -24.88,1.77 -25.10,1.96 -25.35,2.08 -25.60,2.21 -25.60,2.21 L -25.60,2.21 Z"></path></g><g transform="translate(919.0765606359173 475.35591263739457) rotate(0 80 25)"><text x="80" y="17.52" font-family="Virgil, Segoe UI Emoji" font-size="20px" fill="#e03131" text-anchor="middle" style="white-space: pre;" direction="ltr" dominant-baseline="alphabetic">對於第八項的選項</text><text x="80" y="42.519999999999996" font-family="Virgil, Segoe UI Emoji" font-size="20px" fill="#e03131" text-anchor="middle" style="white-space: pre;" direction="ltr" dominant-baseline="alphabetic">感到困惑</text></g><g transform="translate(1215.8024322609185 380.5028905366065) rotate(0 -32.33365817838967 26.559403917295754)" stroke="none"><path fill="#e03131" d="M -25.60,2.21 Q -25.60,2.21 -27.35,2.77 -29.09,3.33 -30.39,4.01 -31.69,4.69 -33.02,5.47 -34.35,6.25 -35.92,7.40 -37.49,8.55 -38.29,9.30 -39.09,10.06 -40.33,11.30 -41.58,12.55 -41.89,12.96 -42.19,13.36 -42.42,13.56 -42.65,13.76 -42.93,13.90 -43.20,14.04 -43.50,14.10 -43.80,14.17 -44.10,14.17 -44.41,14.16 -44.70,14.08 -45.00,14.01 -45.27,13.86 -45.54,13.71 -45.76,13.51 -45.99,13.30 -46.16,13.04 -46.33,12.79 -46.43,12.50 -46.53,12.21 -46.57,11.91 -46.60,11.61 -46.56,11.30 -46.51,11.00 -46.40,10.72 -46.29,10.43 -46.11,10.18 -45.93,9.93 -44.19,9.82 -42.45,9.71 -40.14,11.55 -37.84,13.39 -34.58,16.56 -31.33,19.73 -28.94,22.15 -26.55,24.56 -24.97,26.29 -23.38,28.02 -22.32,29.01 -21.26,30.01 -20.17,31.06 -19.07,32.11 -18.54,33.30 -18.01,34.49 -18.44,35.83 -18.88,37.17 -19.84,38.07 -20.80,38.97 -21.74,39.84 -22.69,40.71 -23.95,41.81 -25.21,42.92 -26.62,44.07 -28.02,45.23 -29.47,46.39 -30.91,47.55 -32.12,48.54 -33.32,49.53 -34.24,50.23 -35.15,50.94 -36.00,51.62 -36.85,52.30 -39.28,54.01 -41.71,55.73 -42.15,55.79 -42.59,55.85 -43.03,55.76 -43.47,55.68 -43.86,55.46 -44.24,55.24 -44.54,54.91 -44.84,54.58 -45.02,54.17 -45.19,53.76 -45.23,53.32 -45.27,52.88 -45.16,52.44 -45.06,52.01 -44.82,51.64 -44.58,51.26 -44.23,50.98 -43.88,50.70 -43.47,50.55 -43.05,50.39 -42.60,50.38 -42.16,50.36 -41.73,50.49 -41.31,50.62 -40.94,50.88 -40.58,51.14 -40.32,51.50 -40.06,51.87 -39.93,52.29 -39.80,52.72 -39.81,53.16 -39.82,53.61 -39.97,54.03 -40.12,54.44 -40.40,54.79 -40.68,55.14 -41.06,55.38 -41.43,55.62 -41.86,55.73 -42.29,55.84 -42.74,55.80 -43.18,55.77 -43.59,55.59 -44.00,55.42 -44.33,55.12 -44.67,54.82 -44.89,54.44 -45.11,54.05 -45.19,53.61 -45.28,53.17 -45.22,52.73 -45.16,52.29 -44.96,51.89 -44.76,51.49 -44.45,51.18 -44.13,50.86 -43.74,50.66 -43.34,50.46 -43.34,50.46 -43.34,50.46 -42.28,49.66 -41.22,48.86 -40.12,48.26 -39.01,47.66 -37.60,46.83 -36.19,46.00 -35.03,45.06 -33.87,44.13 -32.53,42.89 -31.20,41.65 -29.94,40.44 -28.68,39.23 -27.48,38.02 -26.28,36.80 -24.40,35.77 -22.52,34.74 -23.23,33.67 -23.95,32.60 -24.90,31.52 -25.84,30.43 -27.49,28.86 -29.14,27.28 -31.64,25.04 -34.14,22.79 -37.44,19.95 -40.73,17.10 -43.04,15.46 -45.34,13.82 -43.77,13.59 -42.19,13.36 -42.42,13.56 -42.65,13.76 -42.93,13.90 -43.20,14.04 -43.50,14.10 -43.80,14.17 -44.10,14.17 -44.41,14.16 -44.70,14.08 -45.00,14.01 -45.27,13.86 -45.54,13.71 -45.76,13.51 -45.99,13.30 -46.16,13.04 -46.33,12.79 -46.43,12.50 -46.53,12.21 -46.57,11.91 -46.60,11.61 -46.56,11.30 -46.51,11.00 -46.40,10.72 -46.29,10.43 -46.11,10.18 -45.93,9.93 -45.31,9.42 -44.70,8.91 -43.25,7.83 -41.80,6.76 -40.90,6.12 -40.01,5.48 -38.30,3.95 -36.60,2.42 -35.17,1.59 -33.74,0.76 -32.17,-0.05 -30.60,-0.86 -28.89,-1.54 -27.18,-2.21 -26.91,-2.27 -26.63,-2.33 -26.35,-2.33 -26.06,-2.32 -25.79,-2.25 -25.52,-2.18 -25.27,-2.04 -25.02,-1.90 -24.81,-1.71 -24.60,-1.52 -24.45,-1.28 -24.29,-1.05 -24.19,-0.78 -24.10,-0.51 -24.07,-0.23 -24.04,0.04 -24.08,0.32 -24.12,0.60 -24.23,0.87 -24.33,1.13 -24.50,1.36 -24.66,1.59 -24.88,1.77 -25.10,1.96 -25.35,2.08 -25.60,2.21 -25.60,2.21 L -25.60,2.21 Z"></path></g><g transform="translate(1133.8408565119626 460.89204006512455) rotate(0 60 25)"><text x="60" y="17.52" font-family="Virgil, Segoe UI Emoji" font-size="20px" fill="#e03131" text-anchor="middle" style="white-space: pre;" direction="ltr" dominant-baseline="alphabetic">又需要再次</text><text x="60" y="42.519999999999996" font-family="Virgil, Segoe UI Emoji" font-size="20px" fill="#e03131" text-anchor="middle" style="white-space: pre;" direction="ltr" dominant-baseline="alphabetic">進行手機驗證</text></g><g transform="translate(1205.9253999413295 642.0074971163799) rotate(0 -32.33365817838967 26.559403917295754)" stroke="none"><path fill="#e03131" d="M -25.60,2.21 Q -25.60,2.21 -27.35,2.77 -29.09,3.33 -30.39,4.01 -31.69,4.69 -33.02,5.47 -34.35,6.25 -35.92,7.40 -37.49,8.55 -38.29,9.30 -39.09,10.06 -40.33,11.30 -41.58,12.55 -41.89,12.96 -42.19,13.36 -42.42,13.56 -42.65,13.76 -42.93,13.90 -43.20,14.04 -43.50,14.10 -43.80,14.17 -44.10,14.17 -44.41,14.16 -44.70,14.08 -45.00,14.01 -45.27,13.86 -45.54,13.71 -45.76,13.51 -45.99,13.30 -46.16,13.04 -46.33,12.79 -46.43,12.50 -46.53,12.21 -46.57,11.91 -46.60,11.61 -46.56,11.30 -46.51,11.00 -46.40,10.72 -46.29,10.43 -46.11,10.18 -45.93,9.93 -44.19,9.82 -42.45,9.71 -40.14,11.55 -37.84,13.39 -34.58,16.56 -31.33,19.73 -28.94,22.15 -26.55,24.56 -24.97,26.29 -23.38,28.02 -22.32,29.01 -21.26,30.01 -20.17,31.06 -19.07,32.11 -18.54,33.30 -18.01,34.49 -18.44,35.83 -18.88,37.17 -19.84,38.07 -20.80,38.97 -21.74,39.84 -22.69,40.71 -23.95,41.81 -25.21,42.92 -26.62,44.07 -28.02,45.23 -29.47,46.39 -30.91,47.55 -32.12,48.54 -33.32,49.53 -34.24,50.23 -35.15,50.94 -36.00,51.62 -36.85,52.30 -39.28,54.01 -41.71,55.73 -42.15,55.79 -42.59,55.85 -43.03,55.76 -43.47,55.68 -43.86,55.46 -44.24,55.24 -44.54,54.91 -44.84,54.58 -45.02,54.17 -45.19,53.76 -45.23,53.32 -45.27,52.88 -45.16,52.44 -45.06,52.01 -44.82,51.64 -44.58,51.26 -44.23,50.98 -43.88,50.70 -43.47,50.55 -43.05,50.39 -42.60,50.38 -42.16,50.36 -41.73,50.49 -41.31,50.62 -40.94,50.88 -40.58,51.14 -40.32,51.50 -40.06,51.87 -39.93,52.29 -39.80,52.72 -39.81,53.16 -39.82,53.61 -39.97,54.03 -40.12,54.44 -40.40,54.79 -40.68,55.14 -41.06,55.38 -41.43,55.62 -41.86,55.73 -42.29,55.84 -42.74,55.80 -43.18,55.77 -43.59,55.59 -44.00,55.42 -44.33,55.12 -44.67,54.82 -44.89,54.44 -45.11,54.05 -45.19,53.61 -45.28,53.17 -45.22,52.73 -45.16,52.29 -44.96,51.89 -44.76,51.49 -44.45,51.18 -44.13,50.86 -43.74,50.66 -43.34,50.46 -43.34,50.46 -43.34,50.46 -42.28,49.66 -41.22,48.86 -40.12,48.26 -39.01,47.66 -37.60,46.83 -36.19,46.00 -35.03,45.06 -33.87,44.13 -32.53,42.89 -31.20,41.65 -29.94,40.44 -28.68,39.23 -27.48,38.02 -26.28,36.80 -24.40,35.77 -22.52,34.74 -23.23,33.67 -23.95,32.60 -24.90,31.52 -25.84,30.43 -27.49,28.86 -29.14,27.28 -31.64,25.04 -34.14,22.79 -37.44,19.95 -40.73,17.10 -43.04,15.46 -45.34,13.82 -43.77,13.59 -42.19,13.36 -42.42,13.56 -42.65,13.76 -42.93,13.90 -43.20,14.04 -43.50,14.10 -43.80,14.17 -44.10,14.17 -44.41,14.16 -44.70,14.08 -45.00,14.01 -45.27,13.86 -45.54,13.71 -45.76,13.51 -45.99,13.30 -46.16,13.04 -46.33,12.79 -46.43,12.50 -46.53,12.21 -46.57,11.91 -46.60,11.61 -46.56,11.30 -46.51,11.00 -46.40,10.72 -46.29,10.43 -46.11,10.18 -45.93,9.93 -45.31,9.42 -44.70,8.91 -43.25,7.83 -41.80,6.76 -40.90,6.12 -40.01,5.48 -38.30,3.95 -36.60,2.42 -35.17,1.59 -33.74,0.76 -32.17,-0.05 -30.60,-0.86 -28.89,-1.54 -27.18,-2.21 -26.91,-2.27 -26.63,-2.33 -26.35,-2.33 -26.06,-2.32 -25.79,-2.25 -25.52,-2.18 -25.27,-2.04 -25.02,-1.90 -24.81,-1.71 -24.60,-1.52 -24.45,-1.28 -24.29,-1.05 -24.19,-0.78 -24.10,-0.51 -24.07,-0.23 -24.04,0.04 -24.08,0.32 -24.12,0.60 -24.23,0.87 -24.33,1.13 -24.50,1.36 -24.66,1.59 -24.88,1.77 -25.10,1.96 -25.35,2.08 -25.60,2.21 -25.60,2.21 L -25.60,2.21 Z"></path></g><g transform="translate(1135.362824040018 600.7103182927859) rotate(0 60 12.5)"><text x="60" y="17.52" font-family="Virgil, Segoe UI Emoji" font-size="20px" fill="#e03131" text-anchor="middle" style="white-space: pre;" direction="ltr" dominant-baseline="alphabetic">付款方式有限</text></g><g stroke-linecap="round" transform="translate(485.24480315141795 877.2892939651778) rotate(0 124.7743896112371 123.04520435729472)"><path d="M183.49 15.83 C196.08 20.42, 208.07 31.14, 217.7 41.42 C227.33 51.69, 235.84 64.28, 241.27 77.48 C246.7 90.69, 250.02 106.66, 250.31 120.63 C250.6 134.61, 247.73 148.06, 243 161.33 C238.27 174.59, 230.72 189.02, 221.95 200.23 C213.18 211.44, 202.36 221.21, 190.36 228.59 C178.36 235.98, 163.88 241.76, 149.96 244.53 C136.03 247.3, 120.98 247.49, 106.8 245.2 C92.63 242.91, 77.4 237.6, 64.92 230.77 C52.44 223.93, 41.29 214.52, 31.92 204.18 C22.55 193.83, 14.16 181.85, 8.69 168.71 C3.22 155.56, -0.44 139.45, -0.9 125.32 C-1.35 111.19, 1.29 97.06, 5.96 83.9 C10.63 70.74, 18.15 57.38, 27.13 46.38 C36.11 35.37, 47.82 25.29, 59.86 17.88 C71.9 10.46, 85.42 4.6, 99.36 1.9 C113.3 -0.79, 128.81 -0.96, 143.5 1.71 C158.19 4.38, 179.75 14.63, 187.49 17.92 C195.24 21.22, 190.99 19.91, 189.97 21.46 M84.55 6.15 C97.18 0.08, 115.7 -1.44, 130.02 -0.86 C144.34 -0.27, 157.58 4.27, 170.48 9.65 C183.38 15.03, 196.59 22.08, 207.44 31.43 C218.29 40.79, 228.67 53.65, 235.6 65.77 C242.53 77.89, 247.1 90.59, 249.01 104.16 C250.92 117.72, 250 133.29, 247.06 147.16 C244.12 161.04, 238.82 175.34, 231.35 187.41 C223.88 199.47, 213.42 210.58, 202.25 219.55 C191.08 228.52, 177.61 237, 164.32 241.23 C151.03 245.46, 136.85 245.7, 122.5 244.93 C108.14 244.16, 91.9 241.57, 78.19 236.63 C64.48 231.69, 50.78 224.38, 40.24 215.28 C29.71 206.18, 21.31 194.53, 14.99 182.03 C8.66 169.54, 4.15 154.2, 2.29 140.31 C0.42 126.41, 0.95 112.29, 3.81 98.68 C6.66 85.06, 12.25 70.69, 19.42 58.64 C26.6 46.59, 36.01 35.06, 46.88 26.39 C57.74 17.71, 77.97 9.69, 84.62 6.59 C91.26 3.49, 85.97 5.85, 86.76 7.8" stroke="#1e1e1e" stroke-width="2" fill="none"></path></g><g transform="translate(561.6583872247463 977.8283999289448) rotate(0 48.131988525390625 22.499999999999943)"><text x="48.131988525390625" y="31.536" font-family="Virgil, Segoe UI Emoji" font-size="36px" fill="#1e1e1e" text-anchor="middle" style="white-space: pre;" direction="ltr" dominant-baseline="alphabetic">USER</text></g></svg>