<svg version="1.1" xmlns="http://www.w3.org/2000/svg" viewBox="0 0 1348.2921649253094 1207.2542631443916" width="2696.584329850619" height="2414.5085262887833">
  <!-- svg-source:excalidraw -->
  
  <defs>
    <style class="style-fonts">
      @font-face {
        font-family: "Virgil";
        src: url("https://excalidraw.com/Virgil.woff2");
      }
      @font-face {
        font-family: "Cascadia";
        src: url("https://excalidraw.com/Cascadia.woff2");
      }
      @font-face {
        font-family: "Assistant";
        src: url("https://excalidraw.com/Assistant-Regular.woff2");
      }
    </style>
    
  </defs>
  <rect x="0" y="0" width="1348.2921649253094" height="1207.2542631443916" fill="#ffffff"></rect><g stroke-linecap="round" transform="translate(48.117489179332495 10) rotate(0 600.8548931604171 58.19119856264645)"><path d="M29.1 0 C411.26 -4.11, 793.96 -3.69, 1172.61 0 M29.1 0 C402.35 -1.99, 775.75 -1.76, 1172.61 0 M1172.61 0 C1193.78 -1.96, 1202.5 10.14, 1201.71 29.1 M1172.61 0 C1194.21 0.79, 1200.87 9.81, 1201.71 29.1 M1201.71 29.1 C1202.66 42.16, 1200.51 51.74, 1201.71 87.29 M1201.71 29.1 C1202.61 51.25, 1201.22 75.45, 1201.71 87.29 M1201.71 87.29 C1202.69 107.08, 1191.9 117.21, 1172.61 116.38 M1201.71 87.29 C1203.87 108.2, 1193.63 114.89, 1172.61 116.38 M1172.61 116.38 C718.23 114.98, 263.6 115.85, 29.1 116.38 M1172.61 116.38 C729.86 120.7, 286.27 120.53, 29.1 116.38 M29.1 116.38 C9.5 116.42, -1.99 105.3, 0 87.29 M29.1 116.38 C11.4 115.85, -1.24 106.96, 0 87.29 M0 87.29 C0.1 71.47, 1.53 52.99, 0 29.1 M0 87.29 C-0.49 68.13, 0.53 47.94, 0 29.1 M0 29.1 C0.96 8.16, 9.23 0.72, 29.1 0 M0 29.1 C-2.24 11.32, 9.02 1.85, 29.1 0" stroke="#1e1e1e" stroke-width="2" fill="none"></path></g><g transform="translate(568.9723823397496 55.69119856264645) rotate(0 80 12.5)"><text x="80" y="17.52" font-family="Virgil, Segoe UI Emoji" font-size="20px" fill="#1e1e1e" text-anchor="middle" style="white-space: pre;" direction="ltr" dominant-baseline="alphabetic">新安東京海上產險</text></g><g mask="url(#mask-h36VuxkEkFKU7aSbtlWdY)" stroke-linecap="round"><g transform="translate(568.0912951675657 1026.085768235273) rotate(0 -95.05653009048643 -436.88489137181284)"><path d="M-0.59 0.29 C-32.16 -70.58, -158.25 -280.46, -189.06 -426.12 C-219.87 -571.79, -186.12 -799.06, -185.46 -873.7 M1.31 -0.61 C-30.36 -71.26, -158.2 -279.71, -189.46 -425 C-220.72 -570.28, -187.06 -797.68, -186.26 -872.34" stroke="#1e1e1e" stroke-width="2" fill="none"></path></g><g transform="translate(568.0912951675657 1026.085768235273) rotate(0 -95.05653009048643 -436.88489137181284)"><path d="M-179.33 -848.32 C-180.96 -854.55, -185.03 -864.37, -186.26 -872.34 M-179.33 -848.32 C-182.37 -854.81, -183.13 -863.31, -186.26 -872.34" stroke="#1e1e1e" stroke-width="2" fill="none"></path></g><g transform="translate(568.0912951675657 1026.085768235273) rotate(0 -95.05653009048643 -436.88489137181284)"><path d="M-196.39 -849.48 C-192.38 -855.24, -190.81 -864.68, -186.26 -872.34 M-196.39 -849.48 C-194.21 -855.59, -189.74 -863.74, -186.26 -872.34" stroke="#1e1e1e" stroke-width="2" fill="none"></path></g></g><mask id="mask-h36VuxkEkFKU7aSbtlWdY"><rect x="0" y="0" fill="#fff" width="858.2043553485386" height="1999.8555509788987"></rect><rect x="317.97823498659295" y="563.2417699149441" fill="#000" width="120" height="75" opacity="1"></rect></mask><g transform="translate(317.97823498659284 563.2417699149441) rotate(0 149.40165656676868 26.13990032739065)"><text x="60" y="17.52" font-family="Virgil, Segoe UI Emoji" font-size="20px" fill="#1e1e1e" text-anchor="middle" style="white-space: pre;" direction="ltr" dominant-baseline="alphabetic">填寫保費試算</text><text x="60" y="42.519999999999996" font-family="Virgil, Segoe UI Emoji" font-size="20px" fill="#1e1e1e" text-anchor="middle" style="white-space: pre;" direction="ltr" dominant-baseline="alphabetic">資料</text><text x="60" y="67.52" font-family="Virgil, Segoe UI Emoji" font-size="20px" fill="#1e1e1e" text-anchor="middle" style="white-space: pre;" direction="ltr" dominant-baseline="alphabetic">(00:15)</text></g><g transform="translate(393.0237311931331 467.8136198450445) rotate(0 -27.66668701171875 32.66668701171872)" stroke="none"><path fill="#e03131" d="M 0.31,1.91 Q 0.31,1.91 -0.78,2.16 -1.88,2.41 -2.74,3.13 -3.61,3.85 -4.81,4.89 -6.02,5.93 -7.11,6.97 -8.19,8.01 -9.76,9.10 -11.32,10.20 -12.64,11.31 -13.96,12.43 -15.66,13.42 -17.37,14.41 -19.42,15.48 -21.47,16.55 -23.69,17.74 -25.92,18.94 -26.96,19.71 -27.99,20.48 -29.00,21.23 -30.00,21.99 -28.73,22.49 -27.45,22.99 -26.28,23.32 -25.11,23.65 -23.70,24.01 -22.29,24.36 -20.73,24.73 -19.17,25.10 -14.70,26.15 -10.23,27.20 -7.74,27.90 -5.24,28.59 -3.68,28.80 -2.12,29.01 -0.59,29.06 0.92,29.11 1.04,29.23 1.15,29.34 1.43,29.40 1.71,29.46 1.96,29.58 2.22,29.70 2.44,29.88 2.66,30.05 2.83,30.28 3.00,30.51 3.11,30.77 3.22,31.03 3.27,31.30 3.32,31.58 3.29,31.87 3.27,32.15 3.18,32.42 3.09,32.68 2.94,32.92 2.79,33.16 2.59,33.36 2.39,33.56 2.14,33.70 1.90,33.84 1.62,33.92 1.35,34.00 1.07,34.01 0.79,34.02 -0.97,35.55 -2.74,37.08 -4.97,38.36 -7.19,39.65 -9.45,41.09 -11.70,42.53 -14.27,43.93 -16.85,45.33 -20.81,47.43 -24.78,49.53 -29.57,51.77 -34.36,54.01 -39.05,56.28 -43.75,58.56 -46.52,59.90 -49.29,61.24 -50.76,62.22 -52.24,63.19 -53.24,63.89 -54.24,64.59 -54.54,65.65 -54.84,66.71 -54.94,66.99 -55.04,67.26 -55.22,67.49 -55.40,67.72 -55.65,67.88 -55.89,68.03 -56.17,68.11 -56.45,68.18 -56.74,68.16 -57.03,68.14 -57.30,68.02 -57.57,67.91 -57.79,67.72 -58.00,67.52 -58.15,67.27 -58.29,67.02 -58.35,66.73 -58.41,66.45 -58.37,66.16 -58.33,65.87 -58.21,65.61 -58.08,65.35 -57.87,65.14 -57.67,64.94 -57.41,64.80 -57.15,64.67 -56.86,64.63 -56.58,64.59 -56.29,64.64 -56.00,64.70 -55.75,64.84 -55.50,64.98 -55.30,65.19 -55.10,65.41 -54.99,65.68 -54.87,65.94 -54.84,66.23 -54.82,66.52 -54.89,66.80 -54.96,67.09 -55.11,67.33 -55.26,67.58 -55.49,67.76 -55.72,67.95 -55.99,68.05 -56.26,68.15 -56.55,68.16 -56.84,68.17 -57.12,68.09 -57.40,68.00 -57.64,67.84 -57.87,67.67 -58.04,67.43 -58.22,67.20 -58.30,66.92 -58.39,66.64 -58.38,66.35 -58.38,66.06 -58.38,66.06 -58.38,66.06 -57.18,63.84 -55.99,61.62 -54.90,61.12 -53.82,60.63 -52.17,59.68 -50.53,58.73 -47.77,57.35 -45.02,55.97 -40.32,53.65 -35.63,51.33 -30.94,49.07 -26.26,46.81 -22.36,44.65 -18.47,42.48 -16.07,41.05 -13.68,39.63 -11.46,38.02 -9.24,36.41 -7.26,35.03 -5.28,33.65 -3.05,31.94 -0.82,30.23 0.16,29.79 1.15,29.34 1.43,29.40 1.71,29.46 1.96,29.58 2.22,29.70 2.44,29.88 2.66,30.05 2.83,30.28 3.00,30.51 3.11,30.77 3.22,31.03 3.27,31.30 3.32,31.58 3.29,31.87 3.27,32.15 3.18,32.42 3.09,32.68 2.94,32.92 2.79,33.16 2.59,33.36 2.39,33.56 2.14,33.70 1.90,33.84 1.63,33.92 1.35,34.00 1.07,34.01 0.79,34.02 0.42,33.72 0.05,33.41 -1.32,33.16 -2.70,32.92 -4.41,32.64 -6.11,32.36 -8.60,31.89 -11.09,31.43 -15.64,30.66 -20.19,29.89 -21.81,29.58 -23.43,29.27 -25.00,28.93 -26.56,28.59 -27.87,28.19 -29.19,27.79 -30.52,27.25 -31.85,26.72 -32.95,25.92 -34.06,25.12 -34.64,24.10 -35.23,23.08 -33.72,20.85 -32.21,18.63 -31.11,18.00 -30.01,17.36 -28.80,16.69 -27.59,16.01 -25.44,14.70 -23.28,13.38 -21.33,12.16 -19.39,10.93 -18.01,10.14 -16.63,9.34 -15.19,8.06 -13.76,6.77 -12.44,5.82 -11.13,4.86 -9.96,3.80 -8.79,2.73 -7.40,1.52 -6.01,0.30 -4.36,-0.67 -2.71,-1.64 -1.51,-1.78 -0.31,-1.91 -0.08,-1.92 0.14,-1.93 0.37,-1.88 0.60,-1.84 0.81,-1.74 1.03,-1.64 1.21,-1.49 1.39,-1.34 1.53,-1.16 1.67,-0.97 1.76,-0.76 1.86,-0.54 1.89,-0.31 1.93,-0.08 1.92,0.14 1.90,0.38 1.82,0.60 1.75,0.82 1.63,1.02 1.50,1.22 1.33,1.38 1.17,1.54 0.96,1.66 0.76,1.78 0.54,1.84 0.31,1.91 0.31,1.91 L 0.31,1.91 Z"></path></g><g mask="url(#mask-TdWownIlorQwWqZ0A24kA)" stroke-linecap="round"><g transform="translate(680.6033362717287 1059.6465311549205) rotate(0 72.63568153523164 -456.68842219850126)"><path d="M-0.42 0.65 C23.68 -62.48, 121.48 -226.79, 144.9 -379.06 C168.32 -531.32, 140.92 -823.88, 140.11 -912.93 M1.57 -0.06 C25.44 -63.51, 120.75 -228.4, 143.76 -380.89 C166.77 -533.39, 140.16 -826.48, 139.61 -915.04" stroke="#1e1e1e" stroke-width="2" fill="none"></path></g><g transform="translate(680.6033362717287 1059.6465311549205) rotate(0 72.63568153523164 -456.68842219850126)"><path d="M149.18 -891.95 C147.18 -900.17, 143.87 -906.25, 139.61 -915.04 M149.18 -891.95 C146.02 -900.09, 141.96 -906.53, 139.61 -915.04" stroke="#1e1e1e" stroke-width="2" fill="none"></path></g><g transform="translate(680.6033362717287 1059.6465311549205) rotate(0 72.63568153523164 -456.68842219850126)"><path d="M132.1 -891.2 C135.7 -899.61, 137.99 -905.94, 139.61 -915.04 M132.1 -891.2 C134.69 -899.6, 136.39 -906.28, 139.61 -915.04" stroke="#1e1e1e" stroke-width="2" fill="none"></path></g></g><mask id="mask-TdWownIlorQwWqZ0A24kA"><rect x="0" y="0" fill="#fff" width="925.874699342192" height="2073.023375551923"></rect><rect x="785.874699342192" y="655.0458053376201" fill="#000" width="80" height="50" opacity="1"></rect></mask><g transform="translate(326.00481848434464 377.41649910485785) rotate(0 50 25)"><text x="0" y="17.52" font-family="Virgil, Segoe UI Emoji" font-size="20px" fill="#e03131" text-anchor="start" style="white-space: pre;" direction="ltr" dominant-baseline="alphabetic">為什麼不能</text><text x="0" y="42.519999999999996" font-family="Virgil, Segoe UI Emoji" font-size="20px" fill="#e03131" text-anchor="start" style="white-space: pre;" direction="ltr" dominant-baseline="alphabetic">選擇四月底</text></g><g transform="translate(785.8746993421921 655.04580533762) rotate(0 -28.305563531775988 -52.596404863138446)"><text x="40" y="17.52" font-family="Virgil, Segoe UI Emoji" font-size="20px" fill="#1e1e1e" text-anchor="middle" style="white-space: pre;" direction="ltr" dominant-baseline="alphabetic">註冊帳號</text><text x="40" y="42.519999999999996" font-family="Virgil, Segoe UI Emoji" font-size="20px" fill="#1e1e1e" text-anchor="middle" style="white-space: pre;" direction="ltr" dominant-baseline="alphabetic">(02:22)</text></g><g mask="url(#mask-KWPuEgzQQWrnsrICOKUp_)" stroke-linecap="round"><g transform="translate(635.2841689735901 1042.0125734344372) rotate(0 -73.05206165038504 -444.96465908024476)"><path d="M-0.6 -0.67 C-22.73 -73.18, -109.48 -286.18, -133.84 -434.59 C-158.19 -582.99, -144.66 -815.23, -146.73 -891.08 M1.28 1.59 C-20.36 -71.32, -106.61 -287.82, -131.46 -436.48 C-156.31 -585.13, -145.38 -815.03, -147.83 -890.37" stroke="#1e1e1e" stroke-width="2" fill="none"></path></g><g transform="translate(635.2841689735901 1042.0125734344372) rotate(0 -73.05206165038504 -444.96465908024476)"><path d="M-139.29 -866.87 C-142.31 -872.95, -142.26 -877.92, -147.83 -890.37 M-139.29 -866.87 C-141.4 -871.45, -142.69 -875.62, -147.83 -890.37" stroke="#1e1e1e" stroke-width="2" fill="none"></path></g><g transform="translate(635.2841689735901 1042.0125734344372) rotate(0 -73.05206165038504 -444.96465908024476)"><path d="M-156.4 -866.88 C-155.79 -872.87, -152.11 -877.84, -147.83 -890.37 M-156.4 -866.88 C-155 -871.5, -152.81 -875.66, -147.83 -890.37" stroke="#1e1e1e" stroke-width="2" fill="none"></path></g></g><mask id="mask-KWPuEgzQQWrnsrICOKUp_"><rect x="0" y="0" fill="#fff" width="881.3882922743602" height="2031.9418915949268"></rect><rect x="415.5777261177095" y="581.9847144989023" fill="#000" width="172.99993896484375" height="50" opacity="1"></rect></mask><g transform="translate(415.5777261177095 581.9847144989023) rotate(0 146.0269979886429 15.282734998367403)"><text x="86.49996948242188" y="17.52" font-family="Virgil, Segoe UI Emoji" font-size="20px" fill="#1e1e1e" text-anchor="middle" style="white-space: pre;" direction="ltr" dominant-baseline="alphabetic">click on "試算保費"</text><text x="86.49996948242188" y="42.519999999999996" font-family="Virgil, Segoe UI Emoji" font-size="20px" fill="#1e1e1e" text-anchor="middle" style="white-space: pre;" direction="ltr" dominant-baseline="alphabetic">(00:38)</text></g><g stroke-linecap="round" transform="translate(543.6954640740805 1036.1740439741557) rotate(0 63.464429698797346 66.47385462317652)"><path d="M51.09 2.07 C60.05 -0.8, 72.07 0.1, 81.6 3.06 C91.14 6.01, 101.25 12.62, 108.3 19.78 C115.36 26.94, 120.95 36.28, 123.93 46.03 C126.9 55.78, 127.95 67.97, 126.14 78.27 C124.34 88.58, 119.24 99.83, 113.1 107.85 C106.96 115.87, 98.21 122.34, 89.29 126.41 C80.37 130.48, 69.18 132.8, 59.59 132.24 C50 131.69, 40.08 128.26, 31.75 123.09 C23.41 117.93, 14.68 109.95, 9.56 101.25 C4.44 92.54, 1.62 81.15, 1.02 70.86 C0.43 60.58, 2.27 48.93, 5.96 39.55 C9.66 30.17, 15.18 20.91, 23.21 14.58 C31.24 8.26, 48.75 3.65, 54.16 1.58 C59.57 -0.49, 55.67 1.23, 55.66 2.16 M44.16 2.4 C52.89 -1.35, 66.57 -0.02, 76.41 1.82 C86.24 3.65, 95.83 7.12, 103.16 13.39 C110.48 19.66, 116.44 29.78, 120.36 39.43 C124.28 49.09, 127.04 61.08, 126.67 71.32 C126.3 81.57, 123.31 92, 118.13 100.9 C112.95 109.79, 104.13 119.57, 95.61 124.68 C87.09 129.78, 76.56 131.07, 67.02 131.53 C57.47 131.99, 47.04 131.51, 38.33 127.42 C29.62 123.34, 21.09 115.43, 14.75 107.02 C8.42 98.61, 2.4 86.97, 0.33 76.94 C-1.74 66.9, -0.92 56.57, 2.33 46.8 C5.58 37.03, 12.98 25.66, 19.82 18.3 C26.65 10.93, 39.14 5.03, 43.36 2.59 C47.58 0.15, 44.61 2.45, 45.14 3.64" stroke="#1e1e1e" stroke-width="2" fill="none"></path></g><g transform="translate(586.403790803487 1090.1437852216752) rotate(0 20.879974365234375 12.5)"><text x="20.879974365234375" y="17.52" font-family="Virgil, Segoe UI Emoji" font-size="20px" fill="#1e1e1e" text-anchor="middle" style="white-space: pre;" direction="ltr" dominant-baseline="alphabetic">user</text></g><g mask="url(#mask-sIpZMGL-hxHehi7_jGHad)" stroke-linecap="round"><g transform="translate(660.5244403739384 1035.8442207775122) rotate(0 -28.23787386284073 -442.6003117389673)"><path d="M-0.37 -0.01 C-8.59 -83.44, -39.55 -353.9, -48.82 -501.34 C-58.09 -648.79, -54.54 -820.54, -55.99 -884.65 M1.63 -1.06 C-6.77 -84.8, -39.98 -355.67, -49.67 -503.28 C-59.36 -650.88, -55.14 -823.03, -56.5 -886.7" stroke="#1e1e1e" stroke-width="2" fill="none"></path></g><g transform="translate(660.5244403739384 1035.8442207775122) rotate(0 -28.23787386284073 -442.6003117389673)"><path d="M-47.88 -863.24 C-50.69 -870.96, -53 -878.45, -56.5 -886.7 M-47.88 -863.24 C-50.97 -872.16, -53.62 -879.6, -56.5 -886.7" stroke="#1e1e1e" stroke-width="2" fill="none"></path></g><g transform="translate(660.5244403739384 1035.8442207775122) rotate(0 -28.23787386284073 -442.6003117389673)"><path d="M-64.98 -863.19 C-61.96 -870.87, -58.45 -878.38, -56.5 -886.7 M-64.98 -863.19 C-62.16 -872.01, -58.89 -879.47, -56.5 -886.7" stroke="#1e1e1e" stroke-width="2" fill="none"></path></g></g><mask id="mask-sIpZMGL-hxHehi7_jGHad"><rect x="0" y="0" fill="#fff" width="817.0001880996199" height="2021.0448442554468"></rect><rect x="531.5286822755869" y="509.13308851958413" fill="#000" width="160" height="50" opacity="1"></rect></mask><g transform="translate(531.5286822755872 509.133088519584) rotate(0 101.56039482733058 83.35455272131179)"><text x="80" y="17.52" font-family="Virgil, Segoe UI Emoji" font-size="20px" fill="#1e1e1e" text-anchor="middle" style="white-space: pre;" direction="ltr" dominant-baseline="alphabetic">查看加購其他險種</text><text x="80" y="42.519999999999996" font-family="Virgil, Segoe UI Emoji" font-size="20px" fill="#1e1e1e" text-anchor="middle" style="white-space: pre;" direction="ltr" dominant-baseline="alphabetic">(01:00)</text></g><g transform="translate(716.1356208316711 828.7583251770103) rotate(0 70 12.5)"><text x="0" y="17.52" font-family="Virgil, Segoe UI Emoji" font-size="20px" fill="#e03131" text-anchor="start" style="white-space: pre;" direction="ltr" dominant-baseline="alphabetic">註冊帳號太複雜</text></g><g transform="translate(862.1000258169038 757.8619441170392) rotate(0 -36.588962138046554 22.537315490258607)" stroke="none"><path fill="#e03131" d="M -2.50,3.44 Q -2.50,3.44 -2.48,1.73 -2.47,0.02 -4.56,-0.07 -6.66,-0.18 -10.05,0.90 -13.45,1.99 -17.65,2.89 -21.84,3.79 -24.28,4.56 -26.72,5.32 -28.86,5.68 -31.00,6.04 -30.81,7.15 -30.62,8.27 -29.82,10.71 -29.01,13.16 -28.01,15.38 -27.01,17.60 -24.92,21.17 -22.83,24.73 -20.49,27.50 -18.16,30.27 -16.55,32.42 -14.94,34.56 -14.52,36.52 -14.11,38.48 -15.78,39.43 -17.45,40.38 -19.22,40.45 -20.99,40.52 -22.85,41.65 -24.70,42.77 -26.68,43.74 -28.66,44.71 -30.69,45.56 -32.72,46.40 -36.37,47.22 -40.02,48.04 -46.45,47.93 -52.88,47.82 -57.99,46.42 -63.10,45.01 -65.98,43.97 -68.87,42.92 -69.88,43.89 -70.88,44.86 -71.02,45.11 -71.15,45.36 -71.36,45.55 -71.56,45.74 -71.82,45.86 -72.08,45.97 -72.36,46.00 -72.64,46.02 -72.91,45.96 -73.19,45.90 -73.43,45.75 -73.67,45.60 -73.85,45.38 -74.03,45.17 -74.13,44.90 -74.23,44.64 -74.24,44.36 -74.25,44.08 -74.17,43.81 -74.10,43.54 -73.93,43.31 -73.77,43.07 -73.55,42.91 -73.32,42.74 -73.05,42.65 -72.79,42.57 -72.50,42.57 -72.22,42.57 -71.96,42.67 -71.69,42.76 -71.47,42.93 -71.25,43.10 -71.09,43.34 -70.93,43.58 -70.86,43.85 -70.79,44.12 -70.81,44.40 -70.83,44.68 -70.94,44.94 -71.04,45.20 -71.23,45.42 -71.41,45.63 -71.66,45.77 -71.90,45.91 -72.17,45.97 -72.45,46.03 -72.73,45.99 -73.01,45.96 -73.26,45.84 -73.52,45.72 -73.72,45.52 -73.92,45.32 -74.05,45.07 -74.18,44.82 -74.22,44.54 -74.26,44.27 -74.22,43.99 -74.17,43.71 -74.17,43.71 -74.17,43.71 -72.65,41.89 -71.12,40.07 -69.56,40.18 -68.00,40.28 -65.17,41.27 -62.34,42.26 -57.57,43.57 -52.81,44.88 -46.75,44.96 -40.69,45.05 -37.36,44.25 -34.02,43.45 -32.15,42.55 -30.28,41.66 -28.46,40.61 -26.64,39.55 -24.02,37.99 -21.41,36.42 -19.37,36.41 -17.33,36.40 -18.94,34.37 -20.56,32.34 -23.13,29.41 -25.70,26.49 -27.99,22.85 -30.27,19.21 -31.52,16.89 -32.76,14.57 -33.65,12.52 -34.54,10.47 -35.25,9.07 -35.96,7.68 -35.97,6.49 -35.98,5.30 -34.95,4.18 -33.92,3.06 -32.75,2.94 -31.58,2.82 -29.70,2.45 -27.81,2.09 -25.25,1.15 -22.70,0.20 -18.72,-0.83 -14.74,-1.88 -10.55,-3.31 -6.36,-4.74 -4.85,-4.55 -3.35,-4.36 -1.60,-3.64 0.14,-2.92 0.79,-1.54 1.44,-0.16 1.46,1.63 1.47,3.44 1.45,3.68 1.42,3.91 1.33,4.14 1.25,4.36 1.11,4.56 0.97,4.76 0.79,4.92 0.61,5.08 0.40,5.19 0.19,5.30 -0.03,5.36 -0.27,5.41 -0.51,5.41 -0.75,5.41 -0.98,5.36 -1.21,5.30 -1.42,5.19 -1.64,5.08 -1.82,4.92 -2.00,4.76 -2.13,4.56 -2.27,4.36 -2.35,4.14 -2.44,3.91 -2.47,3.68 -2.50,3.44 -2.50,3.44 L -2.50,3.44 Z"></path></g><g mask="url(#mask-d51J4ToDGuoae9HWEUgVK)" stroke-linecap="round"><g transform="translate(515.4257296791479 1113.3490525498908) rotate(0 -193.839877668271 -481.8113900296176)"><path d="M-0.87 0.62 C-59.07 -32.13, -285.98 -36.03, -350.38 -196.73 C-414.78 -357.42, -381.22 -835.55, -387.26 -963.53 M0.88 -0.1 C-57.31 -32.73, -286.1 -35.4, -350.88 -195.75 C-415.66 -356.09, -381.98 -834.11, -387.81 -962.17" stroke="#1e1e1e" stroke-width="2" fill="none"></path></g><g transform="translate(515.4257296791479 1113.3490525498908) rotate(0 -193.839877668271 -481.8113900296176)"><path d="M-379.47 -938.6 C-380.11 -942.09, -384.64 -947.68, -387.81 -962.17 M-379.47 -938.6 C-381.83 -945.82, -385.4 -952.78, -387.81 -962.17" stroke="#1e1e1e" stroke-width="2" fill="none"></path></g><g transform="translate(515.4257296791479 1113.3490525498908) rotate(0 -193.839877668271 -481.8113900296176)"><path d="M-396.57 -938.75 C-393.69 -942.09, -394.7 -947.64, -387.81 -962.17 M-396.57 -938.75 C-393.67 -945.78, -391.98 -952.7, -387.81 -962.17" stroke="#1e1e1e" stroke-width="2" fill="none"></path></g></g><mask id="mask-d51J4ToDGuoae9HWEUgVK"><rect x="0" y="0" fill="#fff" width="1003.10548501569" height="2176.971832609126"></rect><rect x="74.51120108441012" y="892.6890427086523" fill="#000" width="179.35992431640625" height="50" opacity="1"></rect></mask><g transform="translate(74.51120108441023 892.6890427086523) rotate(0 245.62153247078336 -260.79509702621743)"><text x="89.67996215820312" y="17.52" font-family="Virgil, Segoe UI Emoji" font-size="20px" fill="#1e1e1e" text-anchor="middle" style="white-space: pre;" direction="ltr" dominant-baseline="alphabetic">click on “立即投保“</text><text x="89.67996215820312" y="42.519999999999996" font-family="Virgil, Segoe UI Emoji" font-size="20px" fill="#1e1e1e" text-anchor="middle" style="white-space: pre;" direction="ltr" dominant-baseline="alphabetic">(00:00)</text></g><g mask="url(#mask-JB89Ym2v8G389G0d-fhBN)" stroke-linecap="round"><g transform="translate(527.1353580620428 1067.2495162235498) rotate(0 -162.35548655287073 -459.82448754092593)"><path d="M-1.17 0.3 C-49.07 -48.09, -233.3 -135.97, -287.35 -289.17 C-341.4 -442.38, -319.04 -814.04, -325.46 -918.93 M0.41 -0.59 C-47.61 -48.34, -234.2 -134.69, -288.1 -288.07 C-341.99 -441.46, -316.6 -815.5, -322.96 -920.9" stroke="#1e1e1e" stroke-width="2" fill="none"></path></g><g transform="translate(527.1353580620428 1067.2495162235498) rotate(0 -162.35548655287073 -459.82448754092593)"><path d="M-314.39 -897.41 C-316.71 -903.92, -321.17 -912.89, -322.96 -920.9 M-314.39 -897.41 C-317.55 -906.03, -319.48 -914.01, -322.96 -920.9" stroke="#1e1e1e" stroke-width="2" fill="none"></path></g><g transform="translate(527.1353580620428 1067.2495162235498) rotate(0 -162.35548655287073 -459.82448754092593)"><path d="M-331.49 -897.4 C-328.66 -903.74, -327.98 -912.71, -322.96 -920.9 M-331.49 -897.4 C-328.5 -906.19, -324.28 -914.16, -322.96 -920.9" stroke="#1e1e1e" stroke-width="2" fill="none"></path></g></g><mask id="mask-JB89Ym2v8G389G0d-fhBN"><rect x="0" y="0" fill="#fff" width="951.8463311677842" height="2086.898491305402"></rect><rect x="162.19967732276245" y="758.9108301228364" fill="#000" width="154.3999481201172" height="40" opacity="1"></rect></mask><g transform="translate(162.19967732276245 758.9108301228364) rotate(0 202.40881802581214 -151.96240736362114)"><text x="77.1999740600586" y="14.016" font-family="Virgil, Segoe UI Emoji" font-size="16px" fill="#1e1e1e" text-anchor="middle" style="white-space: pre;" direction="ltr" dominant-baseline="alphabetic">click on "國外旅平險"</text><text x="77.1999740600586" y="34.016" font-family="Virgil, Segoe UI Emoji" font-size="16px" fill="#1e1e1e" text-anchor="middle" style="white-space: pre;" direction="ltr" dominant-baseline="alphabetic">(00:01)</text></g><g mask="url(#mask-GET5bh8x-MoPdLu4eJN3C)" stroke-linecap="round"><g transform="translate(536.985528438456 1040.4620195650798) rotate(0 -128.45813994704804 -444.9506521460792)"><path d="M0.31 -0.33 C-37.66 -58.36, -185.9 -199.13, -228.64 -347.34 C-271.38 -495.55, -251.24 -799.08, -256.13 -889.61 M-0.99 -1.55 C-39.08 -59.52, -187.23 -198.48, -229.81 -346.25 C-272.39 -494.01, -251.74 -797.55, -256.48 -888.13" stroke="#1e1e1e" stroke-width="2" fill="none"></path></g><g transform="translate(536.985528438456 1040.4620195650798) rotate(0 -128.45813994704804 -444.9506521460792)"><path d="M-247.96 -864.63 C-250.65 -870.76, -253.5 -874.19, -256.48 -888.13 M-247.96 -864.63 C-250.62 -872.13, -253.28 -878.96, -256.48 -888.13" stroke="#1e1e1e" stroke-width="2" fill="none"></path></g><g transform="translate(536.985528438456 1040.4620195650798) rotate(0 -128.45813994704804 -444.9506521460792)"><path d="M-265.07 -864.65 C-263.79 -870.82, -262.67 -874.24, -256.48 -888.13 M-265.07 -864.65 C-262.17 -872.06, -259.28 -878.88, -256.48 -888.13" stroke="#1e1e1e" stroke-width="2" fill="none"></path></g></g><mask id="mask-GET5bh8x-MoPdLu4eJN3C"><rect x="0" y="0" fill="#fff" width="893.901808332552" height="2030.3633238572384"></rect><rect x="239.56812996366398" y="673.9749150240275" fill="#000" width="138.3999481201172" height="40" opacity="1"></rect></mask><g transform="translate(239.56812996366398 673.9749150240275) rotate(0 168.85532482431438 -78.4798706070822)"><text x="69.1999740600586" y="14.016" font-family="Virgil, Segoe UI Emoji" font-size="16px" fill="#1e1e1e" text-anchor="middle" style="white-space: pre;" direction="ltr" dominant-baseline="alphabetic">click on "立即投保"</text><text x="69.1999740600586" y="34.016" font-family="Virgil, Segoe UI Emoji" font-size="16px" fill="#1e1e1e" text-anchor="middle" style="white-space: pre;" direction="ltr" dominant-baseline="alphabetic">(00:02)</text></g><g mask="url(#mask-ewbypL4BBhEURAVH1EEo6)" stroke-linecap="round"><g transform="translate(523.0356279765442 1136.9701941002184) rotate(0 -256.14177444396535 -492.02913733608534)"><path d="M0.75 -1.19 C-52.4 -3, -233.59 29.49, -318 -11.02 C-402.42 -51.52, -479.62 -80.19, -505.74 -244.22 C-531.86 -408.24, -479.82 -869.95, -474.74 -995.15 M-0.31 0.8 C-53.64 -0.83, -234.69 30.95, -318.54 -9.71 C-402.4 -50.37, -477.51 -79.06, -503.43 -243.15 C-529.35 -407.24, -478.53 -868.89, -474.06 -994.27" stroke="#1e1e1e" stroke-width="2" fill="none"></path></g><g transform="translate(523.0356279765442 1136.9701941002184) rotate(0 -256.14177444396535 -492.02913733608534)"><path d="M-467.19 -970.23 C-471.74 -977.98, -473.08 -990.2, -474.06 -994.27 M-467.19 -970.23 C-468.92 -977.08, -470.05 -982.24, -474.06 -994.27" stroke="#1e1e1e" stroke-width="2" fill="none"></path></g><g transform="translate(523.0356279765442 1136.9701941002184) rotate(0 -256.14177444396535 -492.02913733608534)"><path d="M-484.25 -971.44 C-482.35 -978.84, -477.25 -990.6, -474.06 -994.27 M-484.25 -971.44 C-481.54 -977.92, -478.24 -982.76, -474.06 -994.27" stroke="#1e1e1e" stroke-width="2" fill="none"></path></g></g><mask id="mask-ewbypL4BBhEURAVH1EEo6"><rect x="0" y="0" fill="#fff" width="1127.6724237191734" height="2231.684976670257"></rect><rect x="36.67184414902067" y="1016.9655585015328" fill="#000" width="80" height="50" opacity="1"></rect></mask><g transform="translate(36.671844149020615 1016.9655585015328) rotate(0 230.2220093835582 -372.02450173739976)"><text x="40" y="17.52" font-family="Virgil, Segoe UI Emoji" font-size="20px" fill="#1e1e1e" text-anchor="middle" style="white-space: pre;" direction="ltr" dominant-baseline="alphabetic">進入主頁</text><text x="40" y="42.519999999999996" font-family="Virgil, Segoe UI Emoji" font-size="20px" fill="#1e1e1e" text-anchor="middle" style="white-space: pre;" direction="ltr" dominant-baseline="alphabetic">(00:00)</text></g><g mask="url(#mask-8k8TaOVahs3f2VB5cpC7E)" stroke-linecap="round"><g transform="translate(692.8209676637377 1105.693455737734) rotate(0 116.57429393183207 -472.1890940156025)"><path d="M-0.51 -0.02 C35.63 -32.81, 177.49 -38.71, 216.63 -196.3 C255.77 -353.89, 231.56 -820.83, 234.3 -945.57 M1.42 -1.07 C37.98 -34.28, 180.19 -40.9, 218.97 -198.2 C257.76 -355.5, 231.75 -820.61, 234.14 -944.88" stroke="#1e1e1e" stroke-width="2" fill="none"></path></g><g transform="translate(692.8209676637377 1105.693455737734) rotate(0 116.57429393183207 -472.1890940156025)"><path d="M243.07 -921.53 C240.45 -929.27, 238.7 -932.71, 234.14 -944.88 M243.07 -921.53 C240.54 -926.31, 240.36 -931.5, 234.14 -944.88" stroke="#1e1e1e" stroke-width="2" fill="none"></path></g><g transform="translate(692.8209676637377 1105.693455737734) rotate(0 116.57429393183207 -472.1890940156025)"><path d="M225.97 -921.26 C228.13 -929, 231.17 -932.52, 234.14 -944.88 M225.97 -921.26 C226.86 -926.04, 230.11 -931.28, 234.14 -944.88" stroke="#1e1e1e" stroke-width="2" fill="none"></path></g></g><mask id="mask-8k8TaOVahs3f2VB5cpC7E"><rect x="0" y="0" fill="#fff" width="1025.969555527402" height="2150.071643768939"></rect><rect x="850.1534325678662" y="871.4630501140541" fill="#000" width="120" height="75" opacity="1"></rect></mask><g transform="translate(850.1534325678663 871.4630501140541) rotate(0 -37.3487099934311 -238.56527165825537)"><text x="60" y="17.52" font-family="Virgil, Segoe UI Emoji" font-size="20px" fill="#1e1e1e" text-anchor="middle" style="white-space: pre;" direction="ltr" dominant-baseline="alphabetic">填寫要保人、</text><text x="60" y="42.519999999999996" font-family="Virgil, Segoe UI Emoji" font-size="20px" fill="#1e1e1e" text-anchor="middle" style="white-space: pre;" direction="ltr" dominant-baseline="alphabetic">被保人資料</text><text x="60" y="67.52" font-family="Virgil, Segoe UI Emoji" font-size="20px" fill="#1e1e1e" text-anchor="middle" style="white-space: pre;" direction="ltr" dominant-baseline="alphabetic">（03:05)</text></g><g transform="translate(964.3766818672827 777.3537624552563) rotate(0 -32.33365817838967 26.559403917295754)" stroke="none"><path fill="#e03131" d="M -25.60,2.21 Q -25.60,2.21 -27.35,2.77 -29.09,3.33 -30.39,4.01 -31.69,4.69 -33.02,5.47 -34.35,6.25 -35.92,7.40 -37.49,8.55 -38.29,9.30 -39.09,10.06 -40.33,11.30 -41.58,12.55 -41.89,12.96 -42.19,13.36 -42.42,13.56 -42.65,13.76 -42.93,13.90 -43.20,14.04 -43.50,14.10 -43.80,14.17 -44.10,14.17 -44.41,14.16 -44.70,14.08 -45.00,14.01 -45.27,13.86 -45.54,13.71 -45.76,13.51 -45.99,13.30 -46.16,13.04 -46.33,12.79 -46.43,12.50 -46.53,12.21 -46.57,11.91 -46.60,11.61 -46.56,11.30 -46.51,11.00 -46.40,10.72 -46.29,10.43 -46.11,10.18 -45.93,9.93 -44.19,9.82 -42.45,9.71 -40.14,11.55 -37.84,13.39 -34.58,16.56 -31.33,19.73 -28.94,22.15 -26.55,24.56 -24.97,26.29 -23.38,28.02 -22.32,29.01 -21.26,30.01 -20.17,31.06 -19.07,32.11 -18.54,33.30 -18.01,34.49 -18.44,35.83 -18.88,37.17 -19.84,38.07 -20.80,38.97 -21.74,39.84 -22.69,40.71 -23.95,41.81 -25.21,42.92 -26.62,44.07 -28.02,45.23 -29.47,46.39 -30.91,47.55 -32.12,48.54 -33.32,49.53 -34.24,50.23 -35.15,50.94 -36.00,51.62 -36.85,52.30 -39.31,54.02 -41.77,55.75 -42.21,55.81 -42.66,55.87 -43.09,55.79 -43.53,55.71 -43.92,55.49 -44.31,55.27 -44.61,54.94 -44.91,54.61 -45.09,54.20 -45.26,53.79 -45.30,53.34 -45.34,52.90 -45.23,52.46 -45.13,52.03 -44.89,51.65 -44.65,51.27 -44.30,50.99 -43.95,50.71 -43.53,50.56 -43.11,50.40 -42.67,50.39 -42.22,50.38 -41.79,50.51 -41.37,50.64 -41.00,50.90 -40.64,51.16 -40.38,51.52 -40.12,51.88 -39.98,52.31 -39.85,52.74 -39.86,53.18 -39.87,53.63 -40.03,54.05 -40.18,54.47 -40.46,54.82 -40.74,55.16 -41.11,55.41 -41.49,55.65 -41.92,55.76 -42.36,55.87 -42.80,55.83 -43.25,55.79 -43.66,55.62 -44.07,55.44 -44.40,55.15 -44.74,54.85 -44.96,54.46 -45.18,54.07 -45.26,53.63 -45.35,53.19 -45.29,52.75 -45.23,52.31 -45.03,51.91 -44.83,51.51 -44.52,51.19 -44.20,50.87 -43.80,50.68 -43.40,50.48 -43.40,50.48 -43.40,50.48 -42.31,49.67 -41.22,48.86 -40.12,48.26 -39.01,47.66 -37.60,46.83 -36.19,46.00 -35.03,45.06 -33.87,44.13 -32.53,42.89 -31.20,41.65 -29.94,40.44 -28.68,39.23 -27.48,38.02 -26.28,36.80 -24.40,35.77 -22.52,34.74 -23.23,33.67 -23.95,32.60 -24.90,31.52 -25.84,30.43 -27.49,28.86 -29.14,27.28 -31.64,25.04 -34.14,22.79 -37.44,19.95 -40.73,17.10 -43.04,15.46 -45.34,13.82 -43.77,13.59 -42.19,13.36 -42.42,13.56 -42.65,13.76 -42.93,13.90 -43.20,14.04 -43.50,14.10 -43.80,14.17 -44.10,14.17 -44.41,14.16 -44.70,14.08 -45.00,14.01 -45.27,13.86 -45.54,13.71 -45.76,13.51 -45.99,13.30 -46.16,13.04 -46.33,12.79 -46.43,12.50 -46.53,12.21 -46.57,11.91 -46.60,11.61 -46.56,11.30 -46.51,11.00 -46.40,10.72 -46.29,10.43 -46.11,10.18 -45.93,9.93 -45.31,9.42 -44.70,8.91 -43.25,7.83 -41.80,6.76 -40.90,6.12 -40.01,5.48 -38.30,3.95 -36.60,2.42 -35.17,1.59 -33.74,0.76 -32.17,-0.05 -30.60,-0.86 -28.89,-1.54 -27.18,-2.21 -26.91,-2.27 -26.63,-2.33 -26.35,-2.33 -26.06,-2.32 -25.79,-2.25 -25.52,-2.18 -25.27,-2.04 -25.02,-1.90 -24.81,-1.71 -24.60,-1.52 -24.45,-1.28 -24.29,-1.05 -24.19,-0.78 -24.10,-0.51 -24.07,-0.23 -24.04,0.04 -24.08,0.32 -24.12,0.60 -24.23,0.87 -24.33,1.13 -24.50,1.36 -24.66,1.59 -24.88,1.77 -25.10,1.96 -25.35,2.08 -25.60,2.21 -25.60,2.21 L -25.60,2.21 Z"></path></g><g transform="translate(889.8618967169875 682.6731857161691) rotate(0 70 25)"><text x="0" y="17.52" font-family="Virgil, Segoe UI Emoji" font-size="20px" fill="#e03131" text-anchor="start" style="white-space: pre;" direction="ltr" dominant-baseline="alphabetic"></text><text x="0" y="42.519999999999996" font-family="Virgil, Segoe UI Emoji" font-size="20px" fill="#e03131" text-anchor="start" style="white-space: pre;" direction="ltr" dominant-baseline="alphabetic">這些是必填嗎？</text></g><g mask="url(#mask-mfxQO1-WY7bhuoZCbmgfl)" stroke-linecap="round"><g transform="translate(671.0385362859959 1165.8604151383777) rotate(0 233.16180559204844 -509.20088882741186)"><path d="M-0.52 -1.12 C77.37 -30.93, 390.39 -10.04, 467.52 -179.56 C544.65 -349.09, 462.88 -878.48, 462.29 -1018.27 M1.42 0.9 C79.22 -28.73, 390 -9.01, 467.2 -178.64 C544.4 -348.27, 465.06 -877.14, 464.62 -1016.88" stroke="#1e1e1e" stroke-width="2" fill="none"></path></g><g transform="translate(671.0385362859959 1165.8604151383777) rotate(0 233.16180559204844 -509.20088882741186)"><path d="M474.86 -994.07 C469.87 -999.39, 466.51 -1010.45, 464.62 -1016.88 M474.86 -994.07 C471.85 -1000.41, 467.82 -1008.58, 464.62 -1016.88" stroke="#1e1e1e" stroke-width="2" fill="none"></path></g><g transform="translate(671.0385362859959 1165.8604151383777) rotate(0 233.16180559204844 -509.20088882741186)"><path d="M457.8 -992.83 C458.26 -998.47, 460.34 -1009.93, 464.62 -1016.88 M457.8 -992.83 C460.09 -999.58, 461.37 -1008.13, 464.62 -1016.88" stroke="#1e1e1e" stroke-width="2" fill="none"></path></g></g><mask id="mask-mfxQO1-WY7bhuoZCbmgfl"><rect x="0" y="0" fill="#fff" width="1237.3621474700926" height="2284.2621927932014"></rect><rect x="1097.3621474700926" y="962.4770598446637" fill="#000" width="80" height="50" opacity="1"></rect></mask><g transform="translate(1097.3621474700929 962.4770598446637) rotate(0 -176.1055043697085 -305.29898629078076)"><text x="40" y="17.52" font-family="Virgil, Segoe UI Emoji" font-size="20px" fill="#1e1e1e" text-anchor="middle" style="white-space: pre;" direction="ltr" dominant-baseline="alphabetic">確認資料</text><text x="40" y="42.519999999999996" font-family="Virgil, Segoe UI Emoji" font-size="20px" fill="#1e1e1e" text-anchor="middle" style="white-space: pre;" direction="ltr" dominant-baseline="alphabetic">(05:00)</text></g><g transform="translate(1199.9783607529714 840.2735537616727) rotate(0 -32.33365817838967 26.559403917295754)" stroke="none"><path fill="#e03131" d="M -25.60,2.21 Q -25.60,2.21 -27.35,2.77 -29.09,3.33 -30.39,4.01 -31.69,4.69 -33.02,5.47 -34.35,6.25 -35.92,7.40 -37.49,8.55 -38.29,9.30 -39.09,10.06 -40.33,11.30 -41.58,12.55 -41.89,12.96 -42.19,13.36 -42.42,13.56 -42.65,13.76 -42.93,13.90 -43.20,14.04 -43.50,14.10 -43.80,14.17 -44.10,14.17 -44.41,14.16 -44.70,14.08 -45.00,14.01 -45.27,13.86 -45.54,13.71 -45.76,13.51 -45.99,13.30 -46.16,13.04 -46.33,12.79 -46.43,12.50 -46.53,12.21 -46.57,11.91 -46.60,11.61 -46.56,11.30 -46.51,11.00 -46.40,10.72 -46.29,10.43 -46.11,10.18 -45.93,9.93 -44.19,9.82 -42.45,9.71 -40.14,11.55 -37.84,13.39 -34.58,16.56 -31.33,19.73 -28.94,22.15 -26.55,24.56 -24.97,26.29 -23.38,28.02 -22.32,29.01 -21.26,30.01 -20.17,31.06 -19.07,32.11 -18.54,33.30 -18.01,34.49 -18.44,35.83 -18.88,37.17 -19.84,38.07 -20.80,38.97 -21.74,39.84 -22.69,40.71 -23.95,41.81 -25.21,42.92 -26.62,44.07 -28.02,45.23 -29.47,46.39 -30.91,47.55 -32.12,48.54 -33.32,49.53 -34.24,50.23 -35.15,50.94 -36.00,51.62 -36.85,52.30 -39.28,54.01 -41.71,55.73 -42.15,55.79 -42.59,55.85 -43.03,55.76 -43.47,55.68 -43.86,55.46 -44.24,55.24 -44.54,54.91 -44.84,54.58 -45.02,54.17 -45.19,53.76 -45.23,53.32 -45.27,52.88 -45.16,52.44 -45.06,52.01 -44.82,51.64 -44.58,51.26 -44.23,50.98 -43.88,50.70 -43.47,50.55 -43.05,50.39 -42.60,50.38 -42.16,50.36 -41.73,50.49 -41.31,50.62 -40.94,50.88 -40.58,51.14 -40.32,51.50 -40.06,51.87 -39.93,52.29 -39.80,52.72 -39.81,53.16 -39.82,53.61 -39.97,54.03 -40.12,54.44 -40.40,54.79 -40.68,55.14 -41.06,55.38 -41.43,55.62 -41.86,55.73 -42.29,55.84 -42.74,55.80 -43.18,55.77 -43.59,55.59 -44.00,55.42 -44.33,55.12 -44.67,54.82 -44.89,54.44 -45.11,54.05 -45.19,53.61 -45.28,53.17 -45.22,52.73 -45.16,52.29 -44.96,51.89 -44.76,51.49 -44.45,51.18 -44.13,50.86 -43.74,50.66 -43.34,50.46 -43.34,50.46 -43.34,50.46 -42.28,49.66 -41.22,48.86 -40.12,48.26 -39.01,47.66 -37.60,46.83 -36.19,46.00 -35.03,45.06 -33.87,44.13 -32.53,42.89 -31.20,41.65 -29.94,40.44 -28.68,39.23 -27.48,38.02 -26.28,36.80 -24.40,35.77 -22.52,34.74 -23.23,33.67 -23.95,32.60 -24.90,31.52 -25.84,30.43 -27.49,28.86 -29.14,27.28 -31.64,25.04 -34.14,22.79 -37.44,19.95 -40.73,17.10 -43.04,15.46 -45.34,13.82 -43.77,13.59 -42.19,13.36 -42.42,13.56 -42.65,13.76 -42.93,13.90 -43.20,14.04 -43.50,14.10 -43.80,14.17 -44.10,14.17 -44.41,14.16 -44.70,14.08 -45.00,14.01 -45.27,13.86 -45.54,13.71 -45.76,13.51 -45.99,13.30 -46.16,13.04 -46.33,12.79 -46.43,12.50 -46.53,12.21 -46.57,11.91 -46.60,11.61 -46.56,11.30 -46.51,11.00 -46.40,10.72 -46.29,10.43 -46.11,10.18 -45.93,9.93 -45.31,9.42 -44.70,8.91 -43.25,7.83 -41.80,6.76 -40.90,6.12 -40.01,5.48 -38.30,3.95 -36.60,2.42 -35.17,1.59 -33.74,0.76 -32.17,-0.05 -30.60,-0.86 -28.89,-1.54 -27.18,-2.21 -26.91,-2.27 -26.63,-2.33 -26.35,-2.33 -26.06,-2.32 -25.79,-2.25 -25.52,-2.18 -25.27,-2.04 -25.02,-1.90 -24.81,-1.71 -24.60,-1.52 -24.45,-1.28 -24.29,-1.05 -24.19,-0.78 -24.10,-0.51 -24.07,-0.23 -24.04,0.04 -24.08,0.32 -24.12,0.60 -24.23,0.87 -24.33,1.13 -24.50,1.36 -24.66,1.59 -24.88,1.77 -25.10,1.96 -25.35,2.08 -25.60,2.21 -25.60,2.21 L -25.60,2.21 Z"></path></g><g transform="translate(1117.758156226374 718.0279927269928) rotate(0 60 37.5)"><text x="60" y="17.52" font-family="Virgil, Segoe UI Emoji" font-size="20px" fill="#e03131" text-anchor="middle" style="white-space: pre;" direction="ltr" dominant-baseline="alphabetic"></text><text x="60" y="42.519999999999996" font-family="Virgil, Segoe UI Emoji" font-size="20px" fill="#e03131" text-anchor="middle" style="white-space: pre;" direction="ltr" dominant-baseline="alphabetic">不確定自己在</text><text x="60" y="67.52" font-family="Virgil, Segoe UI Emoji" font-size="20px" fill="#e03131" text-anchor="middle" style="white-space: pre;" direction="ltr" dominant-baseline="alphabetic">哪一個步驟</text></g><g mask="url(#mask-CJxYIxJ7bFj-0_kA9ufoz)" stroke-linecap="round"><g transform="translate(654.1630300076431 1181.4485034704658) rotate(0 298.39087823855715 -522.6447227359317)"><path d="M0.28 0.38 C93.42 -14.25, 459.4 85.68, 558.89 -88.75 C658.38 -263.17, 590.94 -886.87, 597.23 -1046.18 M-1.03 -0.47 C92.5 -15.35, 461.63 83.66, 561.25 -90.48 C660.87 -264.62, 590.78 -885.95, 596.7 -1045.33" stroke="#1e1e1e" stroke-width="2" fill="none"></path></g><g transform="translate(654.1630300076431 1181.4485034704658) rotate(0 298.39087823855715 -522.6447227359317)"><path d="M606.07 -1022.15 C604.05 -1030.26, 601.82 -1035.42, 596.7 -1045.33 M606.07 -1022.15 C603.98 -1027.65, 601.87 -1031.89, 596.7 -1045.33" stroke="#1e1e1e" stroke-width="2" fill="none"></path></g><g transform="translate(654.1630300076431 1181.4485034704658) rotate(0 298.39087823855715 -522.6447227359317)"><path d="M588.98 -1021.55 C592.14 -1029.88, 595.09 -1035.23, 596.7 -1045.33 M588.98 -1021.55 C590.75 -1027.28, 592.5 -1031.66, 596.7 -1045.33" stroke="#1e1e1e" stroke-width="2" fill="none"></path></g></g><mask id="mask-CJxYIxJ7bFj-0_kA9ufoz"><rect x="0" y="0" fill="#fff" width="1350.9447864847575" height="2326.7379489423292"></rect><rect x="1177.0860567033815" y="1066.9590909841963" fill="#000" width="73.25994873046875" height="50" opacity="1"></rect></mask><g transform="translate(1177.0860567033815 1066.9590909841966) rotate(0 -215.85547305937274 -400.6964500963363)"><text x="36.629974365234375" y="17.52" font-family="Virgil, Segoe UI Emoji" font-size="20px" fill="#1e1e1e" text-anchor="middle" style="white-space: pre;" direction="ltr" dominant-baseline="alphabetic">付款</text><text x="36.629974365234375" y="42.519999999999996" font-family="Virgil, Segoe UI Emoji" font-size="20px" fill="#1e1e1e" text-anchor="middle" style="white-space: pre;" direction="ltr" dominant-baseline="alphabetic">(05:33)</text></g><g mask="url(#mask-QSPv7TRbubbD4CijAQsya)" stroke-linecap="round"><g transform="translate(686.449202656235 1049.0832496594098) rotate(0 14.008969527901002 -447.228153542593)"><path d="M-0.41 0.92 C3.99 -64.14, 24.1 -241.71, 27.18 -391.05 C30.25 -540.38, 19.47 -811.11, 18.04 -895.11 M1.57 0.36 C6.29 -64.45, 26.89 -240.47, 29.45 -389.56 C32.02 -538.64, 18.73 -810.02, 16.96 -894.13" stroke="#1e1e1e" stroke-width="2" fill="none"></path></g><g transform="translate(686.449202656235 1049.0832496594098) rotate(0 14.008969527901002 -447.228153542593)"><path d="M26.3 -870.94 C24.58 -880.76, 19.52 -888.74, 16.96 -894.13 M26.3 -870.94 C23.7 -876.77, 21.02 -883.22, 16.96 -894.13" stroke="#1e1e1e" stroke-width="2" fill="none"></path></g><g transform="translate(686.449202656235 1049.0832496594098) rotate(0 14.008969527901002 -447.228153542593)"><path d="M9.2 -870.37 C13.67 -880.33, 14.8 -888.52, 16.96 -894.13 M9.2 -870.37 C10.81 -876.25, 12.33 -882.85, 16.96 -894.13" stroke="#1e1e1e" stroke-width="2" fill="none"></path></g></g><mask id="mask-QSPv7TRbubbD4CijAQsya"><rect x="0" y="0" fill="#fff" width="814.467141712037" height="2043.5395567445958"></rect><rect x="674.467141712037" y="633.1274740043295" fill="#000" width="80" height="50" opacity="1"></rect></mask><g transform="translate(674.4671417120371 633.1274740043294) rotate(0 26.66519205219936 -31.1394622725947)"><text x="40" y="17.52" font-family="Virgil, Segoe UI Emoji" font-size="20px" fill="#1e1e1e" text-anchor="middle" style="white-space: pre;" direction="ltr" dominant-baseline="alphabetic">立即投保</text><text x="40" y="42.519999999999996" font-family="Virgil, Segoe UI Emoji" font-size="20px" fill="#1e1e1e" text-anchor="middle" style="white-space: pre;" direction="ltr" dominant-baseline="alphabetic">(02:16)</text></g><g mask="url(#mask-nHqUqyLV8htVo2e7XKMBk)" stroke-linecap="round"><g transform="translate(689.9343776999715 1124.1136257912515) rotate(0 181.844042775113 -486.713136498053)"><path d="M0.63 0.41 C61.26 -41.15, 311.01 -85.87, 364.26 -248.23 C417.5 -410.58, 327.36 -852.75, 320.09 -973.7 M-0.5 -0.42 C59.99 -41.35, 310.32 -85.18, 363.61 -247.2 C416.89 -409.22, 326.3 -851.55, 319.2 -972.53" stroke="#1e1e1e" stroke-width="2" fill="none"></path></g><g transform="translate(689.9343776999715 1124.1136257912515) rotate(0 181.844042775113 -486.713136498053)"><path d="M330.64 -950.3 C327.26 -956.78, 321.09 -965.61, 319.2 -972.53 M330.64 -950.3 C328.12 -955.71, 323.58 -961.98, 319.2 -972.53" stroke="#1e1e1e" stroke-width="2" fill="none"></path></g><g transform="translate(689.9343776999715 1124.1136257912515) rotate(0 181.844042775113 -486.713136498053)"><path d="M313.68 -948.14 C315.99 -955.44, 315.54 -965, 319.2 -972.53 M313.68 -948.14 C315.85 -954.09, 316.01 -960.95, 319.2 -972.53" stroke="#1e1e1e" stroke-width="2" fill="none"></path></g></g><mask id="mask-nHqUqyLV8htVo2e7XKMBk"><rect x="0" y="0" fill="#fff" width="1153.6224632501976" height="2197.5398987873577"></rect><rect x="987.0624656916037" y="851.8655500074365" fill="#000" width="133.1199951171875" height="50" opacity="1"></rect></mask><g transform="translate(987.0624656916038 851.8655500074365) rotate(0 -106.8803118196821 -214.39788115841958)"><text x="66.55999755859375" y="17.52" font-family="Virgil, Segoe UI Emoji" font-size="20px" fill="#1e1e1e" text-anchor="middle" style="white-space: pre;" direction="ltr" dominant-baseline="alphabetic">填寫"告知事項"</text><text x="66.55999755859375" y="42.519999999999996" font-family="Virgil, Segoe UI Emoji" font-size="20px" fill="#1e1e1e" text-anchor="middle" style="white-space: pre;" direction="ltr" dominant-baseline="alphabetic">(04:15)</text></g><g transform="translate(1099.7716239122778 728.7760606976863) rotate(0 -32.33365817838967 26.559403917295754)" stroke="none"><path fill="#e03131" d="M -25.60,2.21 Q -25.60,2.21 -27.35,2.77 -29.09,3.33 -30.39,4.01 -31.69,4.69 -33.02,5.47 -34.35,6.25 -35.92,7.40 -37.49,8.55 -38.29,9.30 -39.09,10.06 -40.33,11.30 -41.58,12.55 -41.89,12.96 -42.19,13.36 -42.42,13.56 -42.65,13.76 -42.93,13.90 -43.20,14.04 -43.50,14.10 -43.80,14.17 -44.10,14.17 -44.41,14.16 -44.70,14.08 -45.00,14.01 -45.27,13.86 -45.54,13.71 -45.76,13.51 -45.99,13.30 -46.16,13.04 -46.33,12.79 -46.43,12.50 -46.53,12.21 -46.57,11.91 -46.60,11.61 -46.56,11.30 -46.51,11.00 -46.40,10.72 -46.29,10.43 -46.11,10.18 -45.93,9.93 -44.19,9.82 -42.45,9.71 -40.14,11.55 -37.84,13.39 -34.58,16.56 -31.33,19.73 -28.94,22.15 -26.55,24.56 -24.97,26.29 -23.38,28.02 -22.32,29.01 -21.26,30.01 -20.17,31.06 -19.07,32.11 -18.54,33.30 -18.01,34.49 -18.44,35.83 -18.88,37.17 -19.84,38.07 -20.80,38.97 -21.74,39.84 -22.69,40.71 -23.95,41.81 -25.21,42.92 -26.62,44.07 -28.02,45.23 -29.47,46.39 -30.91,47.55 -32.12,48.54 -33.32,49.53 -34.24,50.23 -35.15,50.94 -36.00,51.62 -36.85,52.30 -39.28,54.01 -41.71,55.73 -42.15,55.79 -42.59,55.85 -43.03,55.76 -43.47,55.68 -43.86,55.46 -44.24,55.24 -44.54,54.91 -44.84,54.58 -45.02,54.17 -45.19,53.76 -45.23,53.32 -45.27,52.88 -45.16,52.44 -45.06,52.01 -44.82,51.64 -44.58,51.26 -44.23,50.98 -43.88,50.70 -43.47,50.55 -43.05,50.39 -42.60,50.38 -42.16,50.36 -41.73,50.49 -41.31,50.62 -40.94,50.88 -40.58,51.14 -40.32,51.50 -40.06,51.87 -39.93,52.29 -39.80,52.72 -39.81,53.16 -39.82,53.61 -39.97,54.03 -40.12,54.44 -40.40,54.79 -40.68,55.14 -41.06,55.38 -41.43,55.62 -41.86,55.73 -42.29,55.84 -42.74,55.80 -43.18,55.77 -43.59,55.59 -44.00,55.42 -44.33,55.12 -44.67,54.82 -44.89,54.44 -45.11,54.05 -45.19,53.61 -45.28,53.17 -45.22,52.73 -45.16,52.29 -44.96,51.89 -44.76,51.49 -44.45,51.18 -44.13,50.86 -43.74,50.66 -43.34,50.46 -43.34,50.46 -43.34,50.46 -42.28,49.66 -41.22,48.86 -40.12,48.26 -39.01,47.66 -37.60,46.83 -36.19,46.00 -35.03,45.06 -33.87,44.13 -32.53,42.89 -31.20,41.65 -29.94,40.44 -28.68,39.23 -27.48,38.02 -26.28,36.80 -24.40,35.77 -22.52,34.74 -23.23,33.67 -23.95,32.60 -24.90,31.52 -25.84,30.43 -27.49,28.86 -29.14,27.28 -31.64,25.04 -34.14,22.79 -37.44,19.95 -40.73,17.10 -43.04,15.46 -45.34,13.82 -43.77,13.59 -42.19,13.36 -42.42,13.56 -42.65,13.76 -42.93,13.90 -43.20,14.04 -43.50,14.10 -43.80,14.17 -44.10,14.17 -44.41,14.16 -44.70,14.08 -45.00,14.01 -45.27,13.86 -45.54,13.71 -45.76,13.51 -45.99,13.30 -46.16,13.04 -46.33,12.79 -46.43,12.50 -46.53,12.21 -46.57,11.91 -46.60,11.61 -46.56,11.30 -46.51,11.00 -46.40,10.72 -46.29,10.43 -46.11,10.18 -45.93,9.93 -45.31,9.42 -44.70,8.91 -43.25,7.83 -41.80,6.76 -40.90,6.12 -40.01,5.48 -38.30,3.95 -36.60,2.42 -35.17,1.59 -33.74,0.76 -32.17,-0.05 -30.60,-0.86 -28.89,-1.54 -27.18,-2.21 -26.91,-2.27 -26.63,-2.33 -26.35,-2.33 -26.06,-2.32 -25.79,-2.25 -25.52,-2.18 -25.27,-2.04 -25.02,-1.90 -24.81,-1.71 -24.60,-1.52 -24.45,-1.28 -24.29,-1.05 -24.19,-0.78 -24.10,-0.51 -24.07,-0.23 -24.04,0.04 -24.08,0.32 -24.12,0.60 -24.23,0.87 -24.33,1.13 -24.50,1.36 -24.66,1.59 -24.88,1.77 -25.10,1.96 -25.35,2.08 -25.60,2.21 -25.60,2.21 L -25.60,2.21 Z"></path></g><g transform="translate(984.1829464426428 626.4687529735982) rotate(0 80 25)"><text x="80" y="17.52" font-family="Virgil, Segoe UI Emoji" font-size="20px" fill="#e03131" text-anchor="middle" style="white-space: pre;" direction="ltr" dominant-baseline="alphabetic">對於第八項的選項</text><text x="80" y="42.519999999999996" font-family="Virgil, Segoe UI Emoji" font-size="20px" fill="#e03131" text-anchor="middle" style="white-space: pre;" direction="ltr" dominant-baseline="alphabetic">感到困惑</text></g><g transform="translate(1292.1570738625082 959.8362281774748) rotate(0 -32.33365817838967 26.559403917295754)" stroke="none"><path fill="#e03131" d="M -25.60,2.21 Q -25.60,2.21 -27.35,2.77 -29.09,3.33 -30.39,4.01 -31.69,4.69 -33.02,5.47 -34.35,6.25 -35.92,7.40 -37.49,8.55 -38.29,9.30 -39.09,10.06 -40.33,11.30 -41.58,12.55 -41.89,12.96 -42.19,13.36 -42.42,13.56 -42.65,13.76 -42.93,13.90 -43.20,14.04 -43.50,14.10 -43.80,14.17 -44.10,14.17 -44.41,14.16 -44.70,14.08 -45.00,14.01 -45.27,13.86 -45.54,13.71 -45.76,13.51 -45.99,13.30 -46.16,13.04 -46.33,12.79 -46.43,12.50 -46.53,12.21 -46.57,11.91 -46.60,11.61 -46.56,11.30 -46.51,11.00 -46.40,10.72 -46.29,10.43 -46.11,10.18 -45.93,9.93 -44.19,9.82 -42.45,9.71 -40.14,11.55 -37.84,13.39 -34.58,16.56 -31.33,19.73 -28.94,22.15 -26.55,24.56 -24.97,26.29 -23.38,28.02 -22.32,29.01 -21.26,30.01 -20.17,31.06 -19.07,32.11 -18.54,33.30 -18.01,34.49 -18.44,35.83 -18.88,37.17 -19.84,38.07 -20.80,38.97 -21.74,39.84 -22.69,40.71 -23.95,41.81 -25.21,42.92 -26.62,44.07 -28.02,45.23 -29.47,46.39 -30.91,47.55 -32.12,48.54 -33.32,49.53 -34.24,50.23 -35.15,50.94 -36.00,51.62 -36.85,52.30 -39.28,54.01 -41.71,55.73 -42.15,55.79 -42.59,55.85 -43.03,55.76 -43.47,55.68 -43.86,55.46 -44.24,55.24 -44.54,54.91 -44.84,54.58 -45.02,54.17 -45.19,53.76 -45.23,53.32 -45.27,52.88 -45.16,52.44 -45.06,52.01 -44.82,51.64 -44.58,51.26 -44.23,50.98 -43.88,50.70 -43.47,50.55 -43.05,50.39 -42.60,50.38 -42.16,50.36 -41.73,50.49 -41.31,50.62 -40.94,50.88 -40.58,51.14 -40.32,51.50 -40.06,51.87 -39.93,52.29 -39.80,52.72 -39.81,53.16 -39.82,53.61 -39.97,54.03 -40.12,54.44 -40.40,54.79 -40.68,55.14 -41.06,55.38 -41.43,55.62 -41.86,55.73 -42.29,55.84 -42.74,55.80 -43.18,55.77 -43.59,55.59 -44.00,55.42 -44.33,55.12 -44.67,54.82 -44.89,54.44 -45.11,54.05 -45.19,53.61 -45.28,53.17 -45.22,52.73 -45.16,52.29 -44.96,51.89 -44.76,51.49 -44.45,51.18 -44.13,50.86 -43.74,50.66 -43.34,50.46 -43.34,50.46 -43.34,50.46 -42.28,49.66 -41.22,48.86 -40.12,48.26 -39.01,47.66 -37.60,46.83 -36.19,46.00 -35.03,45.06 -33.87,44.13 -32.53,42.89 -31.20,41.65 -29.94,40.44 -28.68,39.23 -27.48,38.02 -26.28,36.80 -24.40,35.77 -22.52,34.74 -23.23,33.67 -23.95,32.60 -24.90,31.52 -25.84,30.43 -27.49,28.86 -29.14,27.28 -31.64,25.04 -34.14,22.79 -37.44,19.95 -40.73,17.10 -43.04,15.46 -45.34,13.82 -43.77,13.59 -42.19,13.36 -42.42,13.56 -42.65,13.76 -42.93,13.90 -43.20,14.04 -43.50,14.10 -43.80,14.17 -44.10,14.17 -44.41,14.16 -44.70,14.08 -45.00,14.01 -45.27,13.86 -45.54,13.71 -45.76,13.51 -45.99,13.30 -46.16,13.04 -46.33,12.79 -46.43,12.50 -46.53,12.21 -46.57,11.91 -46.60,11.61 -46.56,11.30 -46.51,11.00 -46.40,10.72 -46.29,10.43 -46.11,10.18 -45.93,9.93 -45.31,9.42 -44.70,8.91 -43.25,7.83 -41.80,6.76 -40.90,6.12 -40.01,5.48 -38.30,3.95 -36.60,2.42 -35.17,1.59 -33.74,0.76 -32.17,-0.05 -30.60,-0.86 -28.89,-1.54 -27.18,-2.21 -26.91,-2.27 -26.63,-2.33 -26.35,-2.33 -26.06,-2.32 -25.79,-2.25 -25.52,-2.18 -25.27,-2.04 -25.02,-1.90 -24.81,-1.71 -24.60,-1.52 -24.45,-1.28 -24.29,-1.05 -24.19,-0.78 -24.10,-0.51 -24.07,-0.23 -24.04,0.04 -24.08,0.32 -24.12,0.60 -24.23,0.87 -24.33,1.13 -24.50,1.36 -24.66,1.59 -24.88,1.77 -25.10,1.96 -25.35,2.08 -25.60,2.21 -25.60,2.21 L -25.60,2.21 Z"></path></g><g transform="translate(1209.936869335911 837.5906671427947) rotate(0 60 25)"><text x="60" y="17.52" font-family="Virgil, Segoe UI Emoji" font-size="20px" fill="#e03131" text-anchor="middle" style="white-space: pre;" direction="ltr" dominant-baseline="alphabetic">又需要再次</text><text x="60" y="42.519999999999996" font-family="Virgil, Segoe UI Emoji" font-size="20px" fill="#e03131" text-anchor="middle" style="white-space: pre;" direction="ltr" dominant-baseline="alphabetic">進行手機驗證</text></g><g transform="translate(1309.4628367819196 708.2082988152904) rotate(0 -32.33365817838967 26.559403917295754)" stroke="none"><path fill="#e03131" d="M -25.60,2.21 Q -25.60,2.21 -27.35,2.77 -29.09,3.33 -30.39,4.01 -31.69,4.69 -33.02,5.47 -34.35,6.25 -35.92,7.40 -37.49,8.55 -38.29,9.30 -39.09,10.06 -40.33,11.30 -41.58,12.55 -41.89,12.96 -42.19,13.36 -42.42,13.56 -42.65,13.76 -42.93,13.90 -43.20,14.04 -43.50,14.10 -43.80,14.17 -44.10,14.17 -44.41,14.16 -44.70,14.08 -45.00,14.01 -45.27,13.86 -45.54,13.71 -45.76,13.51 -45.99,13.30 -46.16,13.04 -46.33,12.79 -46.43,12.50 -46.53,12.21 -46.57,11.91 -46.60,11.61 -46.56,11.30 -46.51,11.00 -46.40,10.72 -46.29,10.43 -46.11,10.18 -45.93,9.93 -44.19,9.82 -42.45,9.71 -40.14,11.55 -37.84,13.39 -34.58,16.56 -31.33,19.73 -28.94,22.15 -26.55,24.56 -24.97,26.29 -23.38,28.02 -22.32,29.01 -21.26,30.01 -20.17,31.06 -19.07,32.11 -18.54,33.30 -18.01,34.49 -18.44,35.83 -18.88,37.17 -19.84,38.07 -20.80,38.97 -21.74,39.84 -22.69,40.71 -23.95,41.81 -25.21,42.92 -26.62,44.07 -28.02,45.23 -29.47,46.39 -30.91,47.55 -32.12,48.54 -33.32,49.53 -34.24,50.23 -35.15,50.94 -36.00,51.62 -36.85,52.30 -39.28,54.01 -41.71,55.73 -42.15,55.79 -42.59,55.85 -43.03,55.76 -43.47,55.68 -43.86,55.46 -44.24,55.24 -44.54,54.91 -44.84,54.58 -45.02,54.17 -45.19,53.76 -45.23,53.32 -45.27,52.88 -45.16,52.44 -45.06,52.01 -44.82,51.64 -44.58,51.26 -44.23,50.98 -43.88,50.70 -43.47,50.55 -43.05,50.39 -42.60,50.38 -42.16,50.36 -41.73,50.49 -41.31,50.62 -40.94,50.88 -40.58,51.14 -40.32,51.50 -40.06,51.87 -39.93,52.29 -39.80,52.72 -39.81,53.16 -39.82,53.61 -39.97,54.03 -40.12,54.44 -40.40,54.79 -40.68,55.14 -41.06,55.38 -41.43,55.62 -41.86,55.73 -42.29,55.84 -42.74,55.80 -43.18,55.77 -43.59,55.59 -44.00,55.42 -44.33,55.12 -44.67,54.82 -44.89,54.44 -45.11,54.05 -45.19,53.61 -45.28,53.17 -45.22,52.73 -45.16,52.29 -44.96,51.89 -44.76,51.49 -44.45,51.18 -44.13,50.86 -43.74,50.66 -43.34,50.46 -43.34,50.46 -43.34,50.46 -42.28,49.66 -41.22,48.86 -40.12,48.26 -39.01,47.66 -37.60,46.83 -36.19,46.00 -35.03,45.06 -33.87,44.13 -32.53,42.89 -31.20,41.65 -29.94,40.44 -28.68,39.23 -27.48,38.02 -26.28,36.80 -24.40,35.77 -22.52,34.74 -23.23,33.67 -23.95,32.60 -24.90,31.52 -25.84,30.43 -27.49,28.86 -29.14,27.28 -31.64,25.04 -34.14,22.79 -37.44,19.95 -40.73,17.10 -43.04,15.46 -45.34,13.82 -43.77,13.59 -42.19,13.36 -42.42,13.56 -42.65,13.76 -42.93,13.90 -43.20,14.04 -43.50,14.10 -43.80,14.17 -44.10,14.17 -44.41,14.16 -44.70,14.08 -45.00,14.01 -45.27,13.86 -45.54,13.71 -45.76,13.51 -45.99,13.30 -46.16,13.04 -46.33,12.79 -46.43,12.50 -46.53,12.21 -46.57,11.91 -46.60,11.61 -46.56,11.30 -46.51,11.00 -46.40,10.72 -46.29,10.43 -46.11,10.18 -45.93,9.93 -45.31,9.42 -44.70,8.91 -43.25,7.83 -41.80,6.76 -40.90,6.12 -40.01,5.48 -38.30,3.95 -36.60,2.42 -35.17,1.59 -33.74,0.76 -32.17,-0.05 -30.60,-0.86 -28.89,-1.54 -27.18,-2.21 -26.91,-2.27 -26.63,-2.33 -26.35,-2.33 -26.06,-2.32 -25.79,-2.25 -25.52,-2.18 -25.27,-2.04 -25.02,-1.90 -24.81,-1.71 -24.60,-1.52 -24.45,-1.28 -24.29,-1.05 -24.19,-0.78 -24.10,-0.51 -24.07,-0.23 -24.04,0.04 -24.08,0.32 -24.12,0.60 -24.23,0.87 -24.33,1.13 -24.50,1.36 -24.66,1.59 -24.88,1.77 -25.10,1.96 -25.35,2.08 -25.60,2.21 -25.60,2.21 L -25.60,2.21 Z"></path></g><g transform="translate(1218.2921649253094 653.491839119584) rotate(0 60 12.5)"><text x="60" y="17.52" font-family="Virgil, Segoe UI Emoji" font-size="20px" fill="#e03131" text-anchor="middle" style="white-space: pre;" direction="ltr" dominant-baseline="alphabetic">付款方式有限</text></g></svg>