<svg version="1.1" xmlns="http://www.w3.org/2000/svg" viewBox="0 0 1299.3972061586728 1280.535032354385" width="2598.7944123173456" height="2561.07006470877">
  <!-- svg-source:excalidraw -->
  
  <defs>
    <style class="style-fonts">
      @font-face {
        font-family: "Virgil";
        src: url("https://excalidraw.com/Virgil.woff2");
      }
      @font-face {
        font-family: "Cascadia";
        src: url("https://excalidraw.com/Cascadia.woff2");
      }
      @font-face {
        font-family: "Assistant";
        src: url("https://excalidraw.com/Assistant-Regular.woff2");
      }
    </style>
    
  </defs>
  <rect x="0" y="0" width="1299.3972061586728" height="1280.535032354385" fill="#ffffff"></rect><g stroke-linecap="round" transform="translate(10 10) rotate(0 600.8548931604171 58.19119856264645)"><path d="M29.1 0 C411.26 -4.11, 793.96 -3.69, 1172.61 0 M29.1 0 C402.35 -1.99, 775.75 -1.76, 1172.61 0 M1172.61 0 C1193.78 -1.96, 1202.5 10.14, 1201.71 29.1 M1172.61 0 C1194.21 0.79, 1200.87 9.81, 1201.71 29.1 M1201.71 29.1 C1202.66 42.16, 1200.51 51.74, 1201.71 87.29 M1201.71 29.1 C1202.61 51.25, 1201.22 75.45, 1201.71 87.29 M1201.71 87.29 C1202.69 107.08, 1191.9 117.21, 1172.61 116.38 M1201.71 87.29 C1203.87 108.2, 1193.63 114.89, 1172.61 116.38 M1172.61 116.38 C718.23 114.98, 263.6 115.85, 29.1 116.38 M1172.61 116.38 C729.86 120.7, 286.27 120.53, 29.1 116.38 M29.1 116.38 C9.5 116.42, -1.99 105.3, 0 87.29 M29.1 116.38 C11.4 115.85, -1.24 106.96, 0 87.29 M0 87.29 C0.1 71.47, 1.53 52.99, 0 29.1 M0 87.29 C-0.49 68.13, 0.53 47.94, 0 29.1 M0 29.1 C0.96 8.16, 9.23 0.72, 29.1 0 M0 29.1 C-2.24 11.32, 9.02 1.85, 29.1 0" stroke="#1e1e1e" stroke-width="2" fill="none"></path></g><g transform="translate(466.8548931604171 45.69119856264646) rotate(0 144 22.5)"><text x="144" y="31.536" font-family="Virgil, Segoe UI Emoji" font-size="36px" fill="#1971c2" text-anchor="middle" style="white-space: pre;" direction="ltr" dominant-baseline="alphabetic">新安東京海上產險</text></g><g mask="url(#mask-h36VuxkEkFKU7aSbtlWdY)" stroke-linecap="round"><g transform="translate(495.9296996620251 983.9904121328948) rotate(0 -75.5374702261962 -415.8372133206238)"><path d="M-0.59 0.29 C-21.97 -46.72, -102.84 -144.32, -127.94 -282.97 C-153.03 -421.62, -147.34 -740.12, -151.14 -831.6 M1.31 -0.61 C-20.18 -47.4, -102.79 -143.57, -128.33 -281.84 C-153.88 -420.12, -148.27 -738.74, -151.95 -830.24" stroke="#1e1e1e" stroke-width="2" fill="none"></path></g><g transform="translate(495.9296996620251 983.9904121328948) rotate(0 -75.5374702261962 -415.8372133206238)"><path d="M-143.06 -806.87 C-145.35 -812.9, -150.06 -822.51, -151.95 -830.24 M-143.06 -806.87 C-146.7 -813.17, -148.06 -821.47, -151.95 -830.24" stroke="#1e1e1e" stroke-width="2" fill="none"></path></g><g transform="translate(495.9296996620251 983.9904121328948) rotate(0 -75.5374702261962 -415.8372133206238)"><path d="M-160.16 -806.63 C-156.78 -812.65, -155.84 -822.34, -151.95 -830.24 M-160.16 -806.63 C-158.57 -812.98, -154.69 -821.35, -151.95 -830.24" stroke="#1e1e1e" stroke-width="2" fill="none"></path></g></g><mask id="mask-h36VuxkEkFKU7aSbtlWdY"><rect x="0" y="0" fill="#fff" width="747.0046401144175" height="1915.6648387741425"></rect><rect x="326.9398045304174" y="676.797737833532" fill="#000" width="80" height="50" opacity="1"></rect></mask><g transform="translate(326.9398045304173 676.797737833532) rotate(0 93.67019399350477 -108.46374564238636)"><text x="40" y="17.52" font-family="Virgil, Segoe UI Emoji" font-size="20px" fill="#1e1e1e" text-anchor="middle" style="white-space: pre;" direction="ltr" dominant-baseline="alphabetic">立即投保</text><text x="40" y="42.519999999999996" font-family="Virgil, Segoe UI Emoji" font-size="20px" fill="#1e1e1e" text-anchor="middle" style="white-space: pre;" direction="ltr" dominant-baseline="alphabetic">(00:28)</text></g><g transform="translate(439.69893417093897 311.0422675626062) rotate(0 -27.66668701171875 32.66668701171878)" stroke="none"><path fill="#e03131" d="M 0.31,1.91 Q 0.31,1.91 -0.78,2.16 -1.88,2.41 -2.74,3.13 -3.61,3.85 -4.81,4.89 -6.02,5.93 -7.11,6.97 -8.19,8.01 -9.76,9.10 -11.32,10.20 -12.64,11.31 -13.96,12.43 -15.66,13.42 -17.37,14.41 -19.42,15.48 -21.47,16.55 -23.69,17.74 -25.92,18.94 -26.96,19.71 -27.99,20.48 -29.00,21.23 -30.00,21.99 -28.73,22.49 -27.45,22.99 -26.28,23.32 -25.11,23.65 -23.70,24.01 -22.29,24.36 -20.73,24.73 -19.17,25.10 -14.70,26.15 -10.23,27.20 -7.74,27.90 -5.24,28.59 -3.68,28.80 -2.12,29.01 -0.59,29.06 0.92,29.11 1.04,29.23 1.15,29.34 1.43,29.40 1.71,29.46 1.96,29.58 2.22,29.70 2.44,29.88 2.66,30.05 2.83,30.28 3.00,30.51 3.11,30.77 3.22,31.03 3.27,31.30 3.32,31.58 3.29,31.87 3.27,32.15 3.18,32.42 3.09,32.68 2.94,32.92 2.79,33.16 2.59,33.36 2.39,33.56 2.14,33.70 1.90,33.84 1.62,33.92 1.35,34.00 1.07,34.01 0.79,34.02 -0.97,35.55 -2.74,37.08 -4.97,38.36 -7.19,39.65 -9.45,41.09 -11.70,42.53 -14.27,43.93 -16.85,45.33 -20.81,47.43 -24.78,49.53 -29.57,51.77 -34.36,54.01 -39.05,56.28 -43.75,58.56 -46.52,59.90 -49.29,61.24 -50.76,62.22 -52.24,63.19 -53.24,63.89 -54.24,64.59 -54.54,65.65 -54.84,66.71 -54.94,66.99 -55.04,67.26 -55.22,67.49 -55.40,67.72 -55.65,67.88 -55.89,68.03 -56.17,68.11 -56.45,68.18 -56.74,68.16 -57.03,68.14 -57.30,68.02 -57.57,67.91 -57.79,67.72 -58.00,67.52 -58.15,67.27 -58.29,67.02 -58.35,66.73 -58.41,66.45 -58.37,66.16 -58.33,65.87 -58.21,65.61 -58.08,65.35 -57.87,65.14 -57.67,64.94 -57.41,64.80 -57.15,64.67 -56.86,64.63 -56.58,64.59 -56.29,64.64 -56.00,64.70 -55.75,64.84 -55.50,64.98 -55.30,65.19 -55.10,65.41 -54.99,65.68 -54.87,65.94 -54.84,66.23 -54.82,66.52 -54.89,66.80 -54.96,67.09 -55.11,67.33 -55.26,67.58 -55.49,67.76 -55.72,67.95 -55.99,68.05 -56.26,68.15 -56.55,68.16 -56.84,68.17 -57.12,68.09 -57.40,68.00 -57.64,67.84 -57.87,67.67 -58.04,67.43 -58.22,67.20 -58.30,66.92 -58.39,66.64 -58.38,66.35 -58.38,66.06 -58.38,66.06 -58.38,66.06 -57.18,63.84 -55.99,61.62 -54.90,61.12 -53.82,60.63 -52.17,59.68 -50.53,58.73 -47.77,57.35 -45.02,55.97 -40.32,53.65 -35.63,51.33 -30.94,49.07 -26.26,46.81 -22.36,44.65 -18.47,42.48 -16.07,41.05 -13.68,39.63 -11.46,38.02 -9.24,36.41 -7.26,35.03 -5.28,33.65 -3.05,31.94 -0.82,30.23 0.16,29.79 1.15,29.34 1.43,29.40 1.71,29.46 1.96,29.58 2.22,29.70 2.44,29.88 2.66,30.05 2.83,30.28 3.00,30.51 3.11,30.77 3.22,31.03 3.27,31.30 3.32,31.58 3.29,31.87 3.27,32.15 3.18,32.42 3.09,32.68 2.94,32.92 2.79,33.16 2.59,33.36 2.39,33.56 2.14,33.70 1.90,33.84 1.63,33.92 1.35,34.00 1.07,34.01 0.79,34.02 0.42,33.72 0.05,33.41 -1.32,33.16 -2.70,32.92 -4.41,32.64 -6.11,32.36 -8.60,31.89 -11.09,31.43 -15.64,30.66 -20.19,29.89 -21.81,29.58 -23.43,29.27 -25.00,28.93 -26.56,28.59 -27.87,28.19 -29.19,27.79 -30.52,27.25 -31.85,26.72 -32.95,25.92 -34.06,25.12 -34.64,24.10 -35.23,23.08 -33.72,20.85 -32.21,18.63 -31.11,18.00 -30.01,17.36 -28.80,16.69 -27.59,16.01 -25.44,14.70 -23.28,13.38 -21.33,12.16 -19.39,10.93 -18.01,10.14 -16.63,9.34 -15.19,8.06 -13.76,6.77 -12.44,5.82 -11.13,4.86 -9.96,3.80 -8.79,2.73 -7.40,1.52 -6.01,0.30 -4.36,-0.67 -2.71,-1.64 -1.51,-1.78 -0.31,-1.91 -0.08,-1.92 0.14,-1.93 0.37,-1.88 0.60,-1.84 0.81,-1.74 1.03,-1.64 1.21,-1.49 1.39,-1.34 1.53,-1.16 1.67,-0.97 1.76,-0.76 1.86,-0.54 1.89,-0.31 1.93,-0.08 1.92,0.14 1.90,0.38 1.82,0.60 1.75,0.82 1.63,1.02 1.50,1.22 1.33,1.38 1.17,1.54 0.96,1.66 0.76,1.78 0.54,1.84 0.31,1.91 0.31,1.91 L 0.31,1.91 Z"></path></g><g mask="url(#mask-TdWownIlorQwWqZ0A24kA)" stroke-linecap="round"><g transform="translate(703.4805384164144 968.64656636423) rotate(0 42.42229912855419 -410.02628328764376)"><path d="M-0.42 0.65 C13.52 -41.75, 69.63 -117.97, 83.92 -254.68 C98.22 -391.39, 85.14 -725.38, 85.36 -819.61 M1.57 -0.06 C15.28 -42.78, 68.9 -119.57, 82.78 -256.52 C96.67 -393.46, 84.37 -727.98, 84.87 -821.72" stroke="#1e1e1e" stroke-width="2" fill="none"></path></g><g transform="translate(703.4805384164144 968.64656636423) rotate(0 42.42229912855419 -410.02628328764376)"><path d="M93.75 -798.35 C91.98 -806.66, 88.9 -812.83, 84.87 -821.72 M93.75 -798.35 C90.82 -806.59, 86.99 -813.11, 84.87 -821.72" stroke="#1e1e1e" stroke-width="2" fill="none"></path></g><g transform="translate(703.4805384164144 968.64656636423) rotate(0 42.42229912855419 -410.02628328764376)"><path d="M76.65 -798.11 C80.49 -806.43, 83 -812.69, 84.87 -821.72 M76.65 -798.11 C79.48 -806.42, 81.42 -813.03, 84.87 -821.72" stroke="#1e1e1e" stroke-width="2" fill="none"></path></g></g><mask id="mask-TdWownIlorQwWqZ0A24kA"><rect x="0" y="0" fill="#fff" width="888.3251366735228" height="1888.6991329395175"></rect><rect x="717.7755919030087" y="688.4219722064554" fill="#000" width="140" height="50" opacity="1"></rect></mask><g transform="translate(334.6626786212141 253.64459715311713) rotate(0 90 25)"><text x="90" y="17.52" font-family="Virgil, Segoe UI Emoji" font-size="20px" fill="#e03131" text-anchor="middle" style="white-space: pre;" direction="ltr" dominant-baseline="alphabetic">旅遊國家的選單太長</text><text x="90" y="42.519999999999996" font-family="Virgil, Segoe UI Emoji" font-size="20px" fill="#e03131" text-anchor="middle" style="white-space: pre;" direction="ltr" dominant-baseline="alphabetic">擋到下方內容</text></g><g transform="translate(717.7755919030087 688.4219722064553) rotate(0 30.80641189469577 -130.3103976118067)"><text x="70" y="17.52" font-family="Virgil, Segoe UI Emoji" font-size="20px" fill="#1e1e1e" text-anchor="middle" style="white-space: pre;" direction="ltr" dominant-baseline="alphabetic">查看其他加購險</text><text x="70" y="42.519999999999996" font-family="Virgil, Segoe UI Emoji" font-size="20px" fill="#1e1e1e" text-anchor="middle" style="white-space: pre;" direction="ltr" dominant-baseline="alphabetic">(01:51)</text></g><g mask="url(#mask-KWPuEgzQQWrnsrICOKUp_)" stroke-linecap="round"><g transform="translate(538.9886397004248 954.9261323675735) rotate(0 -55.33168202192746 -399.2502163484847)"><path d="M-0.6 -0.67 C-17.16 -52.83, -81.94 -179.36, -100.39 -312.52 C-118.84 -445.69, -109.55 -718.69, -111.29 -799.65 M1.28 1.59 C-14.78 -50.98, -79.07 -180.99, -98.01 -314.41 C-116.96 -447.83, -110.28 -718.5, -112.39 -798.94" stroke="#1e1e1e" stroke-width="2" fill="none"></path></g><g transform="translate(538.9886397004248 954.9261323675735) rotate(0 -55.33168202192746 -399.2502163484847)"><path d="M-103.74 -775.48 C-106.78 -781.55, -106.76 -786.52, -112.39 -798.94 M-103.74 -775.48 C-105.87 -780.06, -107.19 -784.22, -112.39 -798.94" stroke="#1e1e1e" stroke-width="2" fill="none"></path></g><g transform="translate(538.9886397004248 954.9261323675735) rotate(0 -55.33168202192746 -399.2502163484847)"><path d="M-120.84 -775.41 C-120.26 -781.41, -116.6 -786.39, -112.39 -798.94 M-120.84 -775.41 C-119.47 -780.04, -117.3 -784.21, -112.39 -798.94" stroke="#1e1e1e" stroke-width="2" fill="none"></path></g></g><mask id="mask-KWPuEgzQQWrnsrICOKUp_"><rect x="0" y="0" fill="#fff" width="749.6520037442797" height="1853.426565064543"></rect><rect x="369.23021596165677" y="604.4610851099285" fill="#000" width="140" height="75" opacity="1"></rect></mask><g transform="translate(369.23021596165677 604.4610851099285) rotate(0 114.20781785970297 -48.565633947762365)"><text x="70" y="17.52" font-family="Virgil, Segoe UI Emoji" font-size="20px" fill="#1e1e1e" text-anchor="middle" style="white-space: pre;" direction="ltr" dominant-baseline="alphabetic">填寫旅遊國家</text><text x="70" y="42.519999999999996" font-family="Virgil, Segoe UI Emoji" font-size="20px" fill="#1e1e1e" text-anchor="middle" style="white-space: pre;" direction="ltr" dominant-baseline="alphabetic">（亞洲、泰國）</text><text x="70" y="67.52" font-family="Virgil, Segoe UI Emoji" font-size="20px" fill="#1e1e1e" text-anchor="middle" style="white-space: pre;" direction="ltr" dominant-baseline="alphabetic">(00:37)</text></g><g stroke-linecap="round" transform="translate(452.8680307481162 972.1065346063499) rotate(0 153.12929893164784 149.21424887401758)"><path d="M123.68 3.58 C137.9 -1.56, 155.96 -0.5, 171.73 1.37 C187.51 3.24, 204 8.34, 218.32 14.8 C232.65 21.26, 246.19 29.68, 257.67 40.11 C269.16 50.55, 279.71 63.82, 287.22 77.42 C294.73 91.02, 299.89 106.78, 302.73 121.72 C305.58 136.66, 306.22 152.06, 304.29 167.06 C302.37 182.05, 297.63 197.81, 291.18 211.7 C284.74 225.59, 276.27 239.09, 265.63 250.4 C255 261.7, 241.12 272.05, 227.38 279.54 C213.63 287.04, 198.55 292.47, 183.16 295.38 C167.77 298.3, 150.95 298.86, 135.05 297.04 C119.15 295.21, 102.12 290.75, 87.76 284.43 C73.41 278.12, 60.49 269.54, 48.9 259.13 C37.31 248.71, 26.04 235.55, 18.23 221.94 C10.42 208.33, 4.99 192.54, 2.04 177.49 C-0.91 162.44, -1.53 146.91, 0.54 131.63 C2.62 116.35, 7.77 99.68, 14.48 85.81 C21.18 71.94, 29.95 59.53, 40.77 48.4 C51.59 37.27, 64.98 26.88, 79.42 19.04 C93.86 11.2, 118.58 3.83, 127.42 1.37 C136.27 -1.08, 131.9 1.69, 132.49 4.3 M153.68 -1.3 C168.94 -3.75, 186.92 2.92, 202.15 7.89 C217.38 12.86, 232.61 19.74, 245.05 28.53 C257.49 37.32, 267.88 48.07, 276.78 60.65 C285.68 73.22, 293.35 89.28, 298.46 103.98 C303.58 118.68, 307.67 133.56, 307.47 148.84 C307.27 164.12, 302.4 180.98, 297.27 195.66 C292.14 210.34, 285.82 224.41, 276.7 236.93 C267.57 249.44, 255.57 261.61, 242.53 270.77 C229.48 279.94, 213.63 287.21, 198.44 291.92 C183.26 296.64, 166.75 299.11, 151.4 299.08 C136.05 299.04, 121.17 296.86, 106.35 291.71 C91.54 286.57, 75.4 277.27, 62.51 268.21 C49.63 259.16, 38.41 249.53, 29.04 237.38 C19.67 225.23, 11.35 210.09, 6.3 195.3 C1.25 180.51, -1.6 163.97, -1.26 148.63 C-0.92 133.28, 3.18 117.94, 8.35 103.22 C13.52 88.51, 20.32 72.67, 29.74 60.33 C39.17 47.99, 52.1 37.87, 64.92 29.18 C77.74 20.49, 91.89 12.94, 106.64 8.2 C121.39 3.47, 145.4 1.46, 153.44 0.76 C161.48 0.06, 154.58 1.52, 154.89 3.98" stroke="#1e1e1e" stroke-width="2" fill="none"></path></g><g transform="translate(568.634579631854 1098.8103762518924) rotate(0 37.583984375 22.5)"><text x="37.583984375" y="31.536" font-family="Virgil, Segoe UI Emoji" font-size="36px" fill="#1e1e1e" text-anchor="middle" style="white-space: pre;" direction="ltr" dominant-baseline="alphabetic">user</text></g><g mask="url(#mask-sIpZMGL-hxHehi7_jGHad)" stroke-linecap="round"><g transform="translate(607.7433709222902 948.915976353845) rotate(0 -6.440928965003593 -399.0621672949683)"><path d="M-0.37 -0.01 C-1.07 -38.1, -1.73 -96.38, -3.73 -229.31 C-5.73 -362.23, -10.69 -702.63, -12.4 -797.57 M1.63 -1.06 C0.75 -39.46, -2.16 -98.14, -4.58 -231.24 C-7.01 -364.33, -11.3 -705.12, -12.91 -799.63" stroke="#1e1e1e" stroke-width="2" fill="none"></path></g><g transform="translate(607.7433709222902 948.915976353845) rotate(0 -6.440928965003593 -399.0621672949683)"><path d="M-4.01 -776.26 C-6.91 -783.95, -9.32 -791.41, -12.91 -799.63 M-4.01 -776.26 C-7.2 -785.15, -9.94 -792.56, -12.91 -799.63" stroke="#1e1e1e" stroke-width="2" fill="none"></path></g><g transform="translate(607.7433709222902 948.915976353845) rotate(0 -6.440928965003593 -399.0621672949683)"><path d="M-21.11 -776.01 C-18.19 -783.73, -14.77 -791.27, -12.91 -799.63 M-21.11 -776.01 C-18.38 -784.87, -15.21 -792.36, -12.91 -799.63" stroke="#1e1e1e" stroke-width="2" fill="none"></path></g></g><mask id="mask-sIpZMGL-hxHehi7_jGHad"><rect x="0" y="0" fill="#fff" width="720.6252288522974" height="1847.0403109437816"></rect><rect x="543.834604546599" y="694.2443001134977" fill="#000" width="120" height="50" opacity="1"></rect></mask><g transform="translate(543.834604546599 694.2443001134976) rotate(0 58.27034800250743 -145.14675885226978)"><text x="60" y="17.52" font-family="Virgil, Segoe UI Emoji" font-size="20px" fill="#1e1e1e" text-anchor="middle" style="white-space: pre;" direction="ltr" dominant-baseline="alphabetic">填寫旅遊時間</text><text x="60" y="42.519999999999996" font-family="Virgil, Segoe UI Emoji" font-size="20px" fill="#1e1e1e" text-anchor="middle" style="white-space: pre;" direction="ltr" dominant-baseline="alphabetic">(01:10)</text></g><g mask="url(#mask-d51J4ToDGuoae9HWEUgVK)" stroke-linecap="round"><g transform="translate(425.6957922330953 1091.978481863577) rotate(0 -151.11786291485686 -469.1203802139248)"><path d="M-0.87 0.62 C-46.72 -30.09, -226.09 -28.03, -276.25 -184.49 C-326.41 -340.95, -297.66 -812.35, -301.82 -938.15 M0.88 -0.1 C-44.96 -30.69, -226.2 -27.39, -276.75 -183.51 C-327.29 -339.62, -298.42 -810.92, -302.37 -936.78" stroke="#1e1e1e" stroke-width="2" fill="none"></path></g><g transform="translate(425.6957922330953 1091.978481863577) rotate(0 -151.11786291485686 -469.1203802139248)"><path d="M-294.1 -913.19 C-294.73 -916.69, -299.24 -922.28, -302.37 -936.78 M-294.1 -913.19 C-296.44 -920.42, -299.99 -927.39, -302.37 -936.78" stroke="#1e1e1e" stroke-width="2" fill="none"></path></g><g transform="translate(425.6957922330953 1091.978481863577) rotate(0 -151.11786291485686 -469.1203802139248)"><path d="M-311.2 -913.4 C-308.3 -916.73, -309.3 -922.28, -302.37 -936.78 M-311.2 -913.4 C-308.28 -920.42, -306.57 -927.32, -302.37 -936.78" stroke="#1e1e1e" stroke-width="2" fill="none"></path></g></g><mask id="mask-d51J4ToDGuoae9HWEUgVK"><rect x="0" y="0" fill="#fff" width="827.931518062809" height="2130.219242291427"></rect><rect x="48.9129823125495" y="883.5567238154422" fill="#000" width="199.35992431640625" height="50" opacity="1"></rect></mask><g transform="translate(48.9129823125495 883.556723815442) rotate(0 223.69863883321707 -260.3423390036281)"><text x="99.67996215820312" y="17.52" font-family="Virgil, Segoe UI Emoji" font-size="20px" fill="#1e1e1e" text-anchor="middle" style="white-space: pre;" direction="ltr" dominant-baseline="alphabetic">click on “跟著旅程買“</text><text x="99.67996215820312" y="42.519999999999996" font-family="Virgil, Segoe UI Emoji" font-size="20px" fill="#1e1e1e" text-anchor="middle" style="white-space: pre;" direction="ltr" dominant-baseline="alphabetic">(00:03)</text></g><g mask="url(#mask-JB89Ym2v8G389G0d-fhBN)" stroke-linecap="round"><g transform="translate(438.82421267322707 1055.3079898565136) rotate(0 -121.91938873710802 -453.613363636621)"><path d="M-1.17 0.3 C-36.74 -35.93, -172.83 -65.03, -213.4 -216.16 C-253.97 -367.3, -239.32 -791.52, -244.59 -906.51 M0.41 -0.59 C-35.28 -36.18, -173.73 -63.75, -214.15 -215.06 C-254.57 -366.38, -236.88 -792.98, -242.09 -908.48" stroke="#1e1e1e" stroke-width="2" fill="none"></path></g><g transform="translate(438.82421267322707 1055.3079898565136) rotate(0 -121.91938873710802 -453.613363636621)"><path d="M-233.45 -885.02 C-235.78 -891.52, -240.27 -900.48, -242.09 -908.48 M-233.45 -885.02 C-236.63 -893.63, -238.59 -901.59, -242.09 -908.48" stroke="#1e1e1e" stroke-width="2" fill="none"></path></g><g transform="translate(438.82421267322707 1055.3079898565136) rotate(0 -121.91938873710802 -453.613363636621)"><path d="M-250.55 -884.95 C-247.74 -891.3, -247.08 -900.28, -242.09 -908.48 M-250.55 -884.95 C-247.58 -893.75, -243.38 -901.73, -242.09 -908.48" stroke="#1e1e1e" stroke-width="2" fill="none"></path></g></g><mask id="mask-JB89Ym2v8G389G0d-fhBN"><rect x="0" y="0" fill="#fff" width="782.6629901474431" height="2062.5347171297553"></rect><rect x="118.53448486361845" y="814.9778581961859" fill="#000" width="212.99993896484375" height="50" opacity="1"></rect></mask><g transform="translate(118.53448486361845 814.9778581961859) rotate(0 198.19896291190315 -213.75983789970195)"><text x="106.49996948242188" y="17.52" font-family="Virgil, Segoe UI Emoji" font-size="20px" fill="#1e1e1e" text-anchor="middle" style="white-space: pre;" direction="ltr" dominant-baseline="alphabetic">click on "東南亞五日遊"</text><text x="106.49996948242188" y="42.519999999999996" font-family="Virgil, Segoe UI Emoji" font-size="20px" fill="#1e1e1e" text-anchor="middle" style="white-space: pre;" direction="ltr" dominant-baseline="alphabetic">(00:10)</text></g><g mask="url(#mask-GET5bh8x-MoPdLu4eJN3C)" stroke-linecap="round"><g transform="translate(462.2546448893247 1014.3370357260428) rotate(0 -96.1766024323548 -432.34566941482564)"><path d="M0.31 -0.33 C-25.57 -40.84, -124.12 -98.22, -156.1 -242.23 C-188.08 -386.24, -185.35 -760.55, -191.56 -864.4 M-0.99 -1.55 C-26.99 -42.01, -125.45 -97.58, -157.27 -241.14 C-189.09 -384.71, -185.85 -759.03, -191.92 -862.92" stroke="#1e1e1e" stroke-width="2" fill="none"></path></g><g transform="translate(462.2546448893247 1014.3370357260428) rotate(0 -96.1766024323548 -432.34566941482564)"><path d="M-182.73 -839.67 C-185.57 -845.74, -188.57 -849.11, -191.92 -862.92 M-182.73 -839.67 C-185.61 -847.09, -188.49 -853.85, -191.92 -862.92" stroke="#1e1e1e" stroke-width="2" fill="none"></path></g><g transform="translate(462.2546448893247 1014.3370357260428) rotate(0 -96.1766024323548 -432.34566941482564)"><path d="M-199.83 -839.21 C-198.71 -845.43, -197.75 -848.91, -191.92 -862.92 M-199.83 -839.21 C-197.15 -846.69, -194.48 -853.59, -191.92 -862.92" stroke="#1e1e1e" stroke-width="2" fill="none"></path></g></g><mask id="mask-GET5bh8x-MoPdLu4eJN3C"><rect x="0" y="0" fill="#fff" width="754.6078497540343" height="1979.028374555694"></rect><rect x="240.01993597971227" y="747.9543383873386" fill="#000" width="133.1199951171875" height="50" opacity="1"></rect></mask><g transform="translate(240.01993597971227 747.9543383873386) rotate(0 126.43120689042547 -165.97929507817668)"><text x="66.55999755859375" y="17.52" font-family="Virgil, Segoe UI Emoji" font-size="20px" fill="#1e1e1e" text-anchor="middle" style="white-space: pre;" direction="ltr" dominant-baseline="alphabetic">"了解完整保障"</text><text x="66.55999755859375" y="42.519999999999996" font-family="Virgil, Segoe UI Emoji" font-size="20px" fill="#1e1e1e" text-anchor="middle" style="white-space: pre;" direction="ltr" dominant-baseline="alphabetic">(00:18)</text></g><g mask="url(#mask-ewbypL4BBhEURAVH1EEo6)" stroke-linecap="round"><g transform="translate(425.29563241123344 1143.2241573396147) rotate(0 -189.0550034809539 -493.7736058235093)"><path d="M0.75 -1.19 C-48.31 -11.88, -231.44 -15.61, -293.41 -64.34 C-355.39 -113.08, -357.18 -139.6, -371.09 -293.6 C-384.99 -447.6, -375.79 -872.51, -376.84 -988.35 M-0.31 0.8 C-49.54 -9.71, -232.54 -14.15, -293.95 -63.03 C-355.36 -111.92, -355.07 -138.46, -368.77 -292.54 C-382.47 -446.61, -374.5 -871.46, -376.16 -987.47" stroke="#1e1e1e" stroke-width="2" fill="none"></path></g><g transform="translate(425.29563241123344 1143.2241573396147) rotate(0 -189.0550034809539 -493.7736058235093)"><path d="M-367.65 -963.96 C-372.81 -971.5, -374.78 -983.52, -376.16 -987.47 M-367.65 -963.96 C-369.8 -970.68, -371.36 -975.7, -376.16 -987.47" stroke="#1e1e1e" stroke-width="2" fill="none"></path></g><g transform="translate(425.29563241123344 1143.2241573396147) rotate(0 -189.0550034809539 -493.7736058235093)"><path d="M-384.75 -963.99 C-383.45 -971.63, -378.95 -983.63, -376.16 -987.47 M-384.75 -963.99 C-382.46 -970.64, -379.57 -975.65, -376.16 -987.47" stroke="#1e1e1e" stroke-width="2" fill="none"></path></g></g><mask id="mask-ewbypL4BBhEURAVH1EEo6"><rect x="0" y="0" fill="#fff" width="902.9659591319429" height="2231.139575564307"></rect><rect x="28.859239067933686" y="953.5798325846076" fill="#000" width="80" height="50" opacity="1"></rect></mask><g transform="translate(28.859239067933686 953.5798325846076) rotate(0 207.38138986234586 -304.12928106850217)"><text x="40" y="17.52" font-family="Virgil, Segoe UI Emoji" font-size="20px" fill="#1e1e1e" text-anchor="middle" style="white-space: pre;" direction="ltr" dominant-baseline="alphabetic">進入主頁</text><text x="40" y="42.519999999999996" font-family="Virgil, Segoe UI Emoji" font-size="20px" fill="#1e1e1e" text-anchor="middle" style="white-space: pre;" direction="ltr" dominant-baseline="alphabetic">(00:00)</text></g><g mask="url(#mask-8k8TaOVahs3f2VB5cpC7E)" stroke-linecap="round"><g transform="translate(742.5657691418396 998.7847137234369) rotate(0 59.73456551976301 -426.5124267965291)"><path d="M-0.51 -0.02 C18 -38.36, 90.62 -87.22, 110.81 -229.58 C131 -371.95, 119.19 -750.25, 120.62 -854.22 M1.42 -1.07 C20.34 -39.82, 93.31 -89.4, 113.15 -231.48 C132.99 -373.56, 119.38 -750.03, 120.46 -853.53" stroke="#1e1e1e" stroke-width="2" fill="none"></path></g><g transform="translate(742.5657691418396 998.7847137234369) rotate(0 59.73456551976301 -426.5124267965291)"><path d="M129.27 -830.13 C126.69 -837.89, 124.97 -841.34, 120.46 -853.53 M129.27 -830.13 C126.76 -834.92, 126.61 -840.12, 120.46 -853.53" stroke="#1e1e1e" stroke-width="2" fill="none"></path></g><g transform="translate(742.5657691418396 998.7847137234369) rotate(0 59.73456551976301 -426.5124267965291)"><path d="M112.17 -829.94 C114.37 -837.68, 117.43 -841.18, 120.46 -853.53 M112.17 -829.94 C113.09 -834.72, 116.36 -839.95, 120.46 -853.53" stroke="#1e1e1e" stroke-width="2" fill="none"></path></g></g><mask id="mask-8k8TaOVahs3f2VB5cpC7E"><rect x="0" y="0" fill="#fff" width="962.0349001813656" height="1951.809567316495"></rect><rect x="811.2873679354589" y="743.772928076271" fill="#000" width="85.5799560546875" height="50" opacity="1"></rect></mask><g transform="translate(811.2873679354589 743.7729280762711) rotate(0 -6.967757495719184 -172.10722441569607)"><text x="42.78997802734375" y="17.52" font-family="Virgil, Segoe UI Emoji" font-size="20px" fill="#1e1e1e" text-anchor="middle" style="white-space: pre;" direction="ltr" dominant-baseline="alphabetic">立即投保</text><text x="42.78997802734375" y="42.519999999999996" font-family="Virgil, Segoe UI Emoji" font-size="20px" fill="#1e1e1e" text-anchor="middle" style="white-space: pre;" direction="ltr" dominant-baseline="alphabetic">（03:25)</text></g><g mask="url(#mask-mfxQO1-WY7bhuoZCbmgfl)" stroke-linecap="round"><g transform="translate(780.9299970461082 1073.391081146876) rotate(0 113.97140022365818 -460.89435022095927)"><path d="M-0.52 -1.12 C34.59 -30.51, 172.94 -23.64, 210.83 -177.06 C248.73 -330.49, 223.91 -797.56, 226.87 -921.66 M1.42 0.9 C36.44 -28.32, 172.55 -22.62, 210.51 -176.14 C248.48 -329.67, 226.09 -796.21, 229.2 -920.27" stroke="#1e1e1e" stroke-width="2" fill="none"></path></g><g transform="translate(780.9299970461082 1073.391081146876) rotate(0 113.97140022365818 -460.89435022095927)"><path d="M237.97 -896.86 C233.45 -902.36, 230.56 -913.62, 229.2 -920.27 M237.97 -896.86 C235.41 -903.39, 231.83 -911.74, 229.2 -920.27" stroke="#1e1e1e" stroke-width="2" fill="none"></path></g><g transform="translate(780.9299970461082 1073.391081146876) rotate(0 113.97140022365818 -460.89435022095927)"><path d="M220.87 -896.69 C221.8 -902.18, 224.36 -913.48, 229.2 -920.27 M220.87 -896.69 C223.63 -903.29, 225.37 -911.7, 229.2 -920.27" stroke="#1e1e1e" stroke-width="2" fill="none"></path></g></g><mask id="mask-mfxQO1-WY7bhuoZCbmgfl"><rect x="0" y="0" fill="#fff" width="1108.8727974934245" height="2095.179781588795"></rect><rect x="930.5667484069829" y="872.5057313866437" fill="#000" width="120" height="50" opacity="1"></rect></mask><g transform="translate(930.5667484069829 872.5057313866439) rotate(0 -33.412712696316134 -259.49045321780994)"><text x="60" y="17.52" font-family="Virgil, Segoe UI Emoji" font-size="20px" fill="#1e1e1e" text-anchor="middle" style="white-space: pre;" direction="ltr" dominant-baseline="alphabetic">填寫告知事項</text><text x="60" y="42.519999999999996" font-family="Virgil, Segoe UI Emoji" font-size="20px" fill="#1e1e1e" text-anchor="middle" style="white-space: pre;" direction="ltr" dominant-baseline="alphabetic">(05:00)</text></g><g transform="translate(973.2497476820834 632.7846777558473) rotate(0 -32.33365817838967 26.559403917295754)" stroke="none"><path fill="#e03131" d="M -25.60,2.21 Q -25.60,2.21 -27.35,2.77 -29.09,3.33 -30.39,4.01 -31.69,4.69 -33.02,5.47 -34.35,6.25 -35.92,7.40 -37.49,8.55 -38.29,9.30 -39.09,10.06 -40.33,11.30 -41.58,12.55 -41.89,12.96 -42.19,13.36 -42.42,13.56 -42.65,13.76 -42.93,13.90 -43.20,14.04 -43.50,14.10 -43.80,14.17 -44.10,14.17 -44.41,14.16 -44.70,14.08 -45.00,14.01 -45.27,13.86 -45.54,13.71 -45.76,13.51 -45.99,13.30 -46.16,13.04 -46.33,12.79 -46.43,12.50 -46.53,12.21 -46.57,11.91 -46.60,11.61 -46.56,11.30 -46.51,11.00 -46.40,10.72 -46.29,10.43 -46.11,10.18 -45.93,9.93 -44.19,9.82 -42.45,9.71 -40.14,11.55 -37.84,13.39 -34.58,16.56 -31.33,19.73 -28.94,22.15 -26.55,24.56 -24.97,26.29 -23.38,28.02 -22.32,29.01 -21.26,30.01 -20.17,31.06 -19.07,32.11 -18.54,33.30 -18.01,34.49 -18.44,35.83 -18.88,37.17 -19.84,38.07 -20.80,38.97 -21.74,39.84 -22.69,40.71 -23.95,41.81 -25.21,42.92 -26.62,44.07 -28.02,45.23 -29.47,46.39 -30.91,47.55 -32.12,48.54 -33.32,49.53 -34.24,50.23 -35.15,50.94 -36.00,51.62 -36.85,52.30 -39.28,54.01 -41.71,55.73 -42.15,55.79 -42.59,55.85 -43.03,55.76 -43.47,55.68 -43.86,55.46 -44.24,55.24 -44.54,54.91 -44.84,54.58 -45.02,54.17 -45.19,53.76 -45.23,53.32 -45.27,52.88 -45.16,52.44 -45.06,52.01 -44.82,51.64 -44.58,51.26 -44.23,50.98 -43.88,50.70 -43.47,50.55 -43.05,50.39 -42.60,50.38 -42.16,50.36 -41.73,50.49 -41.31,50.62 -40.94,50.88 -40.58,51.14 -40.32,51.50 -40.06,51.87 -39.93,52.29 -39.80,52.72 -39.81,53.16 -39.82,53.61 -39.97,54.03 -40.12,54.44 -40.40,54.79 -40.68,55.14 -41.06,55.38 -41.43,55.62 -41.86,55.73 -42.29,55.84 -42.74,55.80 -43.18,55.77 -43.59,55.59 -44.00,55.42 -44.33,55.12 -44.67,54.82 -44.89,54.44 -45.11,54.05 -45.19,53.61 -45.28,53.17 -45.22,52.73 -45.16,52.29 -44.96,51.89 -44.76,51.49 -44.45,51.18 -44.13,50.86 -43.74,50.66 -43.34,50.46 -43.34,50.46 -43.34,50.46 -42.28,49.66 -41.22,48.86 -40.12,48.26 -39.01,47.66 -37.60,46.83 -36.19,46.00 -35.03,45.06 -33.87,44.13 -32.53,42.89 -31.20,41.65 -29.94,40.44 -28.68,39.23 -27.48,38.02 -26.28,36.80 -24.40,35.77 -22.52,34.74 -23.23,33.67 -23.95,32.60 -24.90,31.52 -25.84,30.43 -27.49,28.86 -29.14,27.28 -31.64,25.04 -34.14,22.79 -37.44,19.95 -40.73,17.10 -43.04,15.46 -45.34,13.82 -43.77,13.59 -42.19,13.36 -42.42,13.56 -42.65,13.76 -42.93,13.90 -43.20,14.04 -43.50,14.10 -43.80,14.17 -44.10,14.17 -44.41,14.16 -44.70,14.08 -45.00,14.01 -45.27,13.86 -45.54,13.71 -45.76,13.51 -45.99,13.30 -46.16,13.04 -46.33,12.79 -46.43,12.50 -46.53,12.21 -46.57,11.91 -46.60,11.61 -46.56,11.30 -46.51,11.00 -46.40,10.72 -46.29,10.43 -46.11,10.18 -45.93,9.93 -45.31,9.42 -44.70,8.91 -43.25,7.83 -41.80,6.76 -40.90,6.12 -40.01,5.48 -38.30,3.95 -36.60,2.42 -35.17,1.59 -33.74,0.76 -32.17,-0.05 -30.60,-0.86 -28.89,-1.54 -27.18,-2.21 -26.91,-2.27 -26.63,-2.33 -26.35,-2.33 -26.06,-2.32 -25.79,-2.25 -25.52,-2.18 -25.27,-2.04 -25.02,-1.90 -24.81,-1.71 -24.60,-1.52 -24.45,-1.28 -24.29,-1.05 -24.19,-0.78 -24.10,-0.51 -24.07,-0.23 -24.04,0.04 -24.08,0.32 -24.12,0.60 -24.23,0.87 -24.33,1.13 -24.50,1.36 -24.66,1.59 -24.88,1.77 -25.10,1.96 -25.35,2.08 -25.60,2.21 -25.60,2.21 L -25.60,2.21 Z"></path></g><g transform="translate(872.9551395480007 515.6121259445688) rotate(0 70 25)"><text x="70" y="17.52" font-family="Virgil, Segoe UI Emoji" font-size="20px" fill="#e03131" text-anchor="middle" style="white-space: pre;" direction="ltr" dominant-baseline="alphabetic">步驟太複雜</text><text x="70" y="42.519999999999996" font-family="Virgil, Segoe UI Emoji" font-size="20px" fill="#e03131" text-anchor="middle" style="white-space: pre;" direction="ltr" dominant-baseline="alphabetic">讓使用者想放棄</text></g><g mask="url(#mask-CJxYIxJ7bFj-0_kA9ufoz)" stroke-linecap="round"><g transform="translate(783.8476383226546 1166.3825790116375) rotate(0 196.64018347334434 -506.13090073485455)"><path d="M0.28 0.38 C59.63 -27.18, 290.54 2.61, 356.11 -166.31 C421.69 -335.23, 387.56 -872.28, 393.73 -1013.15 M-1.03 -0.47 C58.7 -28.28, 292.77 0.6, 358.47 -168.04 C424.18 -336.68, 387.39 -871.35, 393.2 -1012.3" stroke="#1e1e1e" stroke-width="2" fill="none"></path></g><g transform="translate(783.8476383226546 1166.3825790116375) rotate(0 196.64018347334434 -506.13090073485455)"><path d="M402.01 -988.9 C400.16 -997.08, 398.1 -1002.31, 393.2 -1012.3 M402.01 -988.9 C400.05 -994.45, 398.06 -998.74, 393.2 -1012.3" stroke="#1e1e1e" stroke-width="2" fill="none"></path></g><g transform="translate(783.8476383226546 1166.3825790116375) rotate(0 196.64018347334434 -506.13090073485455)"><path d="M384.91 -988.71 C388.24 -996.99, 391.36 -1002.28, 393.2 -1012.3 M384.91 -988.71 C386.81 -994.41, 388.69 -998.74, 393.2 -1012.3" stroke="#1e1e1e" stroke-width="2" fill="none"></path></g></g><mask id="mask-CJxYIxJ7bFj-0_kA9ufoz"><rect x="0" y="0" fill="#fff" width="1277.1280052693432" height="2278.6443804813466"></rect><rect x="1103.6324395446147" y="974.3331035846256" fill="#000" width="73.97994995117188" height="50" opacity="1"></rect></mask><g transform="translate(1103.632439544615 974.3331035846254) rotate(0 -121.14843792774082 -314.336543420481)"><text x="36.98997497558594" y="17.52" font-family="Virgil, Segoe UI Emoji" font-size="20px" fill="#1e1e1e" text-anchor="middle" style="white-space: pre;" direction="ltr" dominant-baseline="alphabetic">付款</text><text x="36.98997497558594" y="42.519999999999996" font-family="Virgil, Segoe UI Emoji" font-size="20px" fill="#1e1e1e" text-anchor="middle" style="white-space: pre;" direction="ltr" dominant-baseline="alphabetic">(06:00)</text></g><g mask="url(#mask-QSPv7TRbubbD4CijAQsya)" stroke-linecap="round"><g transform="translate(657.8694487520181 949.9832228985777) rotate(0 29.864357964544297 -399.34582732576314)"><path d="M-0.41 0.92 C9.28 -48.95, 49.14 -166.5, 58.89 -299.87 C68.63 -433.25, 58.1 -716.11, 58.06 -799.34 M1.57 0.36 C11.58 -49.26, 51.93 -165.26, 61.16 -298.38 C70.4 -431.5, 57.36 -715.02, 56.98 -798.37" stroke="#1e1e1e" stroke-width="2" fill="none"></path></g><g transform="translate(657.8694487520181 949.9832228985777) rotate(0 29.864357964544297 -399.34582732576314)"><path d="M66.08 -775.09 C64.45 -784.93, 59.48 -792.95, 56.98 -798.37 M66.08 -775.09 C63.55 -780.93, 60.92 -787.41, 56.98 -798.37" stroke="#1e1e1e" stroke-width="2" fill="none"></path></g><g transform="translate(657.8694487520181 949.9832228985777) rotate(0 29.864357964544297 -399.34582732576314)"><path d="M48.98 -774.68 C53.54 -784.62, 54.75 -792.78, 56.98 -798.37 M48.98 -774.68 C50.65 -780.55, 52.22 -787.12, 56.98 -798.37" stroke="#1e1e1e" stroke-width="2" fill="none"></path></g></g><mask id="mask-QSPv7TRbubbD4CijAQsya"><rect x="0" y="0" fill="#fff" width="817.5981646811067" height="1848.674877550104"></rect><rect x="677.5981646811067" y="625.2002192883633" fill="#000" width="80" height="50" opacity="1"></rect></mask><g transform="translate(677.5981646811067 625.2002192883634) rotate(0 12.296326430152988 -74.42990810063088)"><text x="40" y="17.52" font-family="Virgil, Segoe UI Emoji" font-size="20px" fill="#1e1e1e" text-anchor="middle" style="white-space: pre;" direction="ltr" dominant-baseline="alphabetic">試算保費</text><text x="40" y="42.519999999999996" font-family="Virgil, Segoe UI Emoji" font-size="20px" fill="#1e1e1e" text-anchor="middle" style="white-space: pre;" direction="ltr" dominant-baseline="alphabetic">(01:30)</text></g><g mask="url(#mask-nHqUqyLV8htVo2e7XKMBk)" stroke-linecap="round"><g transform="translate(765.7835878569256 1030.3130096495158) rotate(0 84.51433069971142 -441.1359539295067)"><path d="M0.63 0.41 C26.12 -33.68, 125.34 -56.21, 153.37 -203.37 C181.39 -350.52, 166.13 -769.31, 168.79 -882.55 M-0.5 -0.42 C24.84 -33.88, 124.65 -55.52, 152.72 -202.34 C180.78 -349.17, 165.06 -768.11, 167.9 -881.37" stroke="#1e1e1e" stroke-width="2" fill="none"></path></g><g transform="translate(765.7835878569256 1030.3130096495158) rotate(0 84.51433069971142 -441.1359539295067)"><path d="M176.55 -857.92 C174.09 -864.83, 168.87 -874.07, 167.9 -881.37 M176.55 -857.92 C174.8 -863.66, 171.03 -870.26, 167.9 -881.37" stroke="#1e1e1e" stroke-width="2" fill="none"></path></g><g transform="translate(765.7835878569256 1030.3130096495158) rotate(0 84.51433069971142 -441.1359539295067)"><path d="M159.45 -857.84 C162.75 -864.86, 163.29 -874.14, 167.9 -881.37 M159.45 -857.84 C162.44 -863.54, 163.41 -870.16, 167.9 -881.37" stroke="#1e1e1e" stroke-width="2" fill="none"></path></g></g><mask id="mask-nHqUqyLV8htVo2e7XKMBk"><rect x="0" y="0" fill="#fff" width="1034.8122492563484" height="2012.584917508529"></rect><rect x="878.58324256381" y="802.9243356053028" fill="#000" width="80" height="50" opacity="1"></rect></mask><g transform="translate(878.58324256381 802.9243356053028) rotate(0 -27.754924181694946 -213.68010032947518)"><text x="40" y="17.52" font-family="Virgil, Segoe UI Emoji" font-size="20px" fill="#1e1e1e" text-anchor="middle" style="white-space: pre;" direction="ltr" dominant-baseline="alphabetic">註冊帳號</text><text x="40" y="42.519999999999996" font-family="Virgil, Segoe UI Emoji" font-size="20px" fill="#1e1e1e" text-anchor="middle" style="white-space: pre;" direction="ltr" dominant-baseline="alphabetic">(03:35)</text></g><g transform="translate(1197.61741068527 857.783793099762) rotate(0 -32.33365817838967 26.55940391729581)" stroke="none"><path fill="#e03131" d="M -25.60,2.21 Q -25.60,2.21 -27.35,2.77 -29.09,3.33 -30.39,4.01 -31.69,4.69 -33.02,5.47 -34.35,6.25 -35.92,7.40 -37.49,8.55 -38.29,9.30 -39.09,10.06 -40.33,11.30 -41.58,12.55 -41.89,12.96 -42.19,13.36 -42.42,13.56 -42.65,13.76 -42.93,13.90 -43.20,14.04 -43.50,14.10 -43.80,14.17 -44.10,14.17 -44.41,14.16 -44.70,14.08 -45.00,14.01 -45.27,13.86 -45.54,13.71 -45.76,13.51 -45.99,13.30 -46.16,13.04 -46.33,12.79 -46.43,12.50 -46.53,12.21 -46.57,11.91 -46.60,11.61 -46.56,11.30 -46.51,11.00 -46.40,10.72 -46.29,10.43 -46.11,10.18 -45.93,9.93 -44.19,9.82 -42.45,9.71 -40.14,11.55 -37.84,13.39 -34.58,16.56 -31.33,19.73 -28.94,22.15 -26.55,24.56 -24.97,26.29 -23.38,28.02 -22.32,29.01 -21.26,30.01 -20.17,31.06 -19.07,32.11 -18.54,33.30 -18.01,34.49 -18.44,35.83 -18.88,37.17 -19.84,38.07 -20.80,38.97 -21.74,39.84 -22.69,40.71 -23.95,41.81 -25.21,42.92 -26.62,44.07 -28.02,45.23 -29.47,46.39 -30.91,47.55 -32.12,48.54 -33.32,49.53 -34.24,50.23 -35.15,50.94 -36.00,51.62 -36.85,52.30 -39.28,54.01 -41.71,55.73 -42.15,55.79 -42.59,55.85 -43.03,55.76 -43.47,55.68 -43.86,55.46 -44.24,55.24 -44.54,54.91 -44.84,54.58 -45.02,54.17 -45.19,53.76 -45.23,53.32 -45.27,52.88 -45.16,52.44 -45.06,52.01 -44.82,51.64 -44.58,51.26 -44.23,50.98 -43.88,50.70 -43.47,50.55 -43.05,50.39 -42.60,50.38 -42.16,50.36 -41.73,50.49 -41.31,50.62 -40.94,50.88 -40.58,51.14 -40.32,51.50 -40.06,51.87 -39.93,52.29 -39.80,52.72 -39.81,53.16 -39.82,53.61 -39.97,54.03 -40.12,54.44 -40.40,54.79 -40.68,55.14 -41.06,55.38 -41.43,55.62 -41.86,55.73 -42.29,55.84 -42.74,55.80 -43.18,55.77 -43.59,55.59 -44.00,55.42 -44.33,55.12 -44.67,54.82 -44.89,54.44 -45.11,54.05 -45.19,53.61 -45.28,53.17 -45.22,52.73 -45.16,52.29 -44.96,51.89 -44.76,51.49 -44.45,51.18 -44.13,50.86 -43.74,50.66 -43.34,50.46 -43.34,50.46 -43.34,50.46 -42.28,49.66 -41.22,48.86 -40.12,48.26 -39.01,47.66 -37.60,46.83 -36.19,46.00 -35.03,45.06 -33.87,44.13 -32.53,42.89 -31.20,41.65 -29.94,40.44 -28.68,39.23 -27.48,38.02 -26.28,36.80 -24.40,35.77 -22.52,34.74 -23.23,33.67 -23.95,32.60 -24.90,31.52 -25.84,30.43 -27.49,28.86 -29.14,27.28 -31.64,25.04 -34.14,22.79 -37.44,19.95 -40.73,17.10 -43.04,15.46 -45.34,13.82 -43.77,13.59 -42.19,13.36 -42.42,13.56 -42.65,13.76 -42.93,13.90 -43.20,14.04 -43.50,14.10 -43.80,14.17 -44.10,14.17 -44.41,14.16 -44.70,14.08 -45.00,14.01 -45.27,13.86 -45.54,13.71 -45.76,13.51 -45.99,13.30 -46.16,13.04 -46.33,12.79 -46.43,12.50 -46.53,12.21 -46.57,11.91 -46.60,11.61 -46.56,11.30 -46.51,11.00 -46.40,10.72 -46.29,10.43 -46.11,10.18 -45.93,9.93 -45.31,9.42 -44.70,8.91 -43.25,7.83 -41.80,6.76 -40.90,6.12 -40.01,5.48 -38.30,3.95 -36.60,2.42 -35.17,1.59 -33.74,0.76 -32.17,-0.05 -30.60,-0.86 -28.89,-1.54 -27.18,-2.21 -26.91,-2.27 -26.63,-2.33 -26.35,-2.33 -26.06,-2.32 -25.79,-2.25 -25.52,-2.18 -25.27,-2.04 -25.02,-1.90 -24.81,-1.71 -24.60,-1.52 -24.45,-1.28 -24.29,-1.05 -24.19,-0.78 -24.10,-0.51 -24.07,-0.23 -24.04,0.04 -24.08,0.32 -24.12,0.60 -24.23,0.87 -24.33,1.13 -24.50,1.36 -24.66,1.59 -24.88,1.77 -25.10,1.96 -25.35,2.08 -25.60,2.21 -25.60,2.21 L -25.60,2.21 Z"></path></g><g transform="translate(1169.3972061586728 778.5382320650818) rotate(0 60 25)"><text x="60" y="17.52" font-family="Virgil, Segoe UI Emoji" font-size="20px" fill="#e03131" text-anchor="middle" style="white-space: pre;" direction="ltr" dominant-baseline="alphabetic">又需要再次</text><text x="60" y="42.519999999999996" font-family="Virgil, Segoe UI Emoji" font-size="20px" fill="#e03131" text-anchor="middle" style="white-space: pre;" direction="ltr" dominant-baseline="alphabetic">進行手機驗證</text></g><g transform="translate(441.2733676901029 301.68189242645497) rotate(0 -27.66668701171875 32.66668701171875)" stroke="none"><path fill="#e03131" d="M 0.31,1.91 Q 0.31,1.91 -0.78,2.16 -1.88,2.41 -2.74,3.13 -3.61,3.85 -4.81,4.89 -6.02,5.93 -7.11,6.97 -8.19,8.01 -9.76,9.10 -11.32,10.20 -12.64,11.31 -13.96,12.43 -15.66,13.42 -17.37,14.41 -19.42,15.48 -21.47,16.55 -23.69,17.74 -25.92,18.94 -26.96,19.71 -27.99,20.48 -29.00,21.23 -30.00,21.99 -28.73,22.49 -27.45,22.99 -26.28,23.32 -25.11,23.65 -23.70,24.01 -22.29,24.36 -20.73,24.73 -19.17,25.10 -14.70,26.15 -10.23,27.20 -7.74,27.90 -5.24,28.59 -3.68,28.80 -2.12,29.01 -0.59,29.06 0.92,29.11 1.04,29.23 1.15,29.34 1.43,29.40 1.71,29.46 1.96,29.58 2.22,29.70 2.44,29.88 2.66,30.05 2.83,30.28 3.00,30.51 3.11,30.77 3.22,31.03 3.27,31.30 3.32,31.58 3.29,31.87 3.27,32.15 3.18,32.42 3.09,32.68 2.94,32.92 2.79,33.16 2.59,33.36 2.39,33.56 2.14,33.70 1.90,33.84 1.62,33.92 1.35,34.00 1.07,34.01 0.79,34.02 -0.97,35.55 -2.74,37.08 -4.97,38.36 -7.19,39.65 -9.45,41.09 -11.70,42.53 -14.27,43.93 -16.85,45.33 -20.81,47.43 -24.78,49.53 -29.57,51.77 -34.36,54.01 -39.05,56.28 -43.75,58.56 -46.52,59.90 -49.29,61.24 -50.76,62.22 -52.24,63.19 -53.24,63.89 -54.24,64.59 -54.54,65.65 -54.84,66.71 -54.94,66.99 -55.04,67.26 -55.22,67.49 -55.40,67.72 -55.65,67.88 -55.89,68.03 -56.17,68.11 -56.45,68.18 -56.74,68.16 -57.03,68.14 -57.30,68.02 -57.57,67.91 -57.79,67.72 -58.00,67.52 -58.15,67.27 -58.29,67.02 -58.35,66.73 -58.41,66.45 -58.37,66.16 -58.33,65.87 -58.21,65.61 -58.08,65.35 -57.87,65.14 -57.67,64.94 -57.41,64.80 -57.15,64.67 -56.86,64.63 -56.58,64.59 -56.29,64.64 -56.00,64.70 -55.75,64.84 -55.50,64.98 -55.30,65.19 -55.10,65.41 -54.99,65.68 -54.87,65.94 -54.84,66.23 -54.82,66.52 -54.89,66.80 -54.96,67.09 -55.11,67.33 -55.26,67.58 -55.49,67.76 -55.72,67.95 -55.99,68.05 -56.26,68.15 -56.55,68.16 -56.84,68.17 -57.12,68.09 -57.40,68.00 -57.64,67.84 -57.87,67.67 -58.04,67.43 -58.22,67.20 -58.30,66.92 -58.39,66.64 -58.38,66.35 -58.38,66.06 -58.38,66.06 -58.38,66.06 -57.18,63.84 -55.99,61.62 -54.90,61.12 -53.82,60.63 -52.17,59.68 -50.53,58.73 -47.77,57.35 -45.02,55.97 -40.32,53.65 -35.63,51.33 -30.94,49.07 -26.26,46.81 -22.36,44.65 -18.47,42.48 -16.07,41.05 -13.68,39.63 -11.46,38.02 -9.24,36.41 -7.26,35.03 -5.28,33.65 -3.05,31.94 -0.82,30.23 0.16,29.79 1.15,29.34 1.43,29.40 1.71,29.46 1.96,29.58 2.22,29.70 2.44,29.88 2.66,30.05 2.83,30.28 3.00,30.51 3.11,30.77 3.22,31.03 3.27,31.30 3.32,31.58 3.29,31.87 3.27,32.15 3.18,32.42 3.09,32.68 2.94,32.92 2.79,33.16 2.59,33.36 2.39,33.56 2.14,33.70 1.90,33.84 1.63,33.92 1.35,34.00 1.07,34.01 0.79,34.02 0.42,33.72 0.05,33.41 -1.32,33.16 -2.70,32.92 -4.41,32.64 -6.11,32.36 -8.60,31.89 -11.09,31.43 -15.64,30.66 -20.19,29.89 -21.81,29.58 -23.43,29.27 -25.00,28.93 -26.56,28.59 -27.87,28.19 -29.19,27.79 -30.52,27.25 -31.85,26.72 -32.95,25.92 -34.06,25.12 -34.64,24.10 -35.23,23.08 -33.72,20.85 -32.21,18.63 -31.11,18.00 -30.01,17.36 -28.80,16.69 -27.59,16.01 -25.44,14.70 -23.28,13.38 -21.33,12.16 -19.39,10.93 -18.01,10.14 -16.63,9.34 -15.19,8.06 -13.76,6.77 -12.44,5.82 -11.13,4.86 -9.96,3.80 -8.79,2.73 -7.40,1.52 -6.01,0.30 -4.36,-0.67 -2.71,-1.64 -1.51,-1.78 -0.31,-1.91 -0.08,-1.92 0.14,-1.93 0.37,-1.88 0.60,-1.84 0.81,-1.74 1.03,-1.64 1.21,-1.49 1.39,-1.34 1.53,-1.16 1.67,-0.97 1.76,-0.76 1.86,-0.54 1.89,-0.31 1.93,-0.08 1.92,0.14 1.90,0.38 1.82,0.60 1.75,0.82 1.63,1.02 1.50,1.22 1.33,1.38 1.17,1.54 0.96,1.66 0.76,1.78 0.54,1.84 0.31,1.91 0.31,1.91 L 0.31,1.91 Z"></path></g><g transform="translate(362.27122027137807 388.3180517049193) rotate(0 60 62.5)"><text x="60" y="17.52" font-family="Virgil, Segoe UI Emoji" font-size="20px" fill="#e03131" text-anchor="middle" style="white-space: pre;" direction="ltr" dominant-baseline="alphabetic">為什麼點進</text><text x="60" y="42.519999999999996" font-family="Virgil, Segoe UI Emoji" font-size="20px" fill="#e03131" text-anchor="middle" style="white-space: pre;" direction="ltr" dominant-baseline="alphabetic">東南亞五日遊</text><text x="60" y="67.52" font-family="Virgil, Segoe UI Emoji" font-size="20px" fill="#e03131" text-anchor="middle" style="white-space: pre;" direction="ltr" dominant-baseline="alphabetic">預設熱門國家</text><text x="60" y="92.52" font-family="Virgil, Segoe UI Emoji" font-size="20px" fill="#e03131" text-anchor="middle" style="white-space: pre;" direction="ltr" dominant-baseline="alphabetic">需重新選擇</text><text x="60" y="117.52" font-family="Virgil, Segoe UI Emoji" font-size="20px" fill="#e03131" text-anchor="middle" style="white-space: pre;" direction="ltr" dominant-baseline="alphabetic">並非東南亞</text></g><g transform="translate(623.7092131032388 411.71447907127276) rotate(0 -27.66668701171875 32.66668701171875)" stroke="none"><path fill="#e03131" d="M 0.31,1.91 Q 0.31,1.91 -0.78,2.16 -1.88,2.41 -2.74,3.13 -3.61,3.85 -4.81,4.89 -6.02,5.93 -7.11,6.97 -8.19,8.01 -9.76,9.10 -11.32,10.20 -12.64,11.31 -13.96,12.43 -15.66,13.42 -17.37,14.41 -19.42,15.48 -21.47,16.55 -23.69,17.74 -25.92,18.94 -26.96,19.71 -27.99,20.48 -29.00,21.23 -30.00,21.99 -28.73,22.49 -27.45,22.99 -26.28,23.32 -25.11,23.65 -23.70,24.01 -22.29,24.36 -20.73,24.73 -19.17,25.10 -14.70,26.15 -10.23,27.20 -7.74,27.90 -5.24,28.59 -3.68,28.80 -2.12,29.01 -0.59,29.06 0.92,29.11 1.04,29.23 1.15,29.34 1.43,29.40 1.71,29.46 1.96,29.58 2.22,29.70 2.44,29.88 2.66,30.05 2.83,30.28 3.00,30.51 3.11,30.77 3.22,31.03 3.27,31.30 3.32,31.58 3.29,31.87 3.27,32.15 3.18,32.42 3.09,32.68 2.94,32.92 2.79,33.16 2.59,33.36 2.39,33.56 2.14,33.70 1.90,33.84 1.62,33.92 1.35,34.00 1.07,34.01 0.79,34.02 -0.97,35.55 -2.74,37.08 -4.97,38.36 -7.19,39.65 -9.45,41.09 -11.70,42.53 -14.27,43.93 -16.85,45.33 -20.81,47.43 -24.78,49.53 -29.57,51.77 -34.36,54.01 -39.05,56.28 -43.75,58.56 -46.52,59.90 -49.29,61.24 -50.76,62.22 -52.24,63.19 -53.24,63.89 -54.24,64.59 -54.54,65.65 -54.84,66.71 -54.94,66.99 -55.04,67.26 -55.22,67.49 -55.40,67.72 -55.65,67.88 -55.89,68.03 -56.17,68.11 -56.45,68.18 -56.74,68.16 -57.03,68.14 -57.30,68.02 -57.57,67.91 -57.79,67.72 -58.00,67.52 -58.15,67.27 -58.29,67.02 -58.35,66.73 -58.41,66.45 -58.37,66.16 -58.33,65.87 -58.21,65.61 -58.08,65.35 -57.87,65.14 -57.67,64.94 -57.41,64.80 -57.15,64.67 -56.86,64.63 -56.58,64.59 -56.29,64.64 -56.00,64.70 -55.75,64.84 -55.50,64.98 -55.30,65.19 -55.10,65.41 -54.99,65.68 -54.87,65.94 -54.84,66.23 -54.82,66.52 -54.89,66.80 -54.96,67.09 -55.11,67.33 -55.26,67.58 -55.49,67.76 -55.72,67.95 -55.99,68.05 -56.26,68.15 -56.55,68.16 -56.84,68.17 -57.12,68.09 -57.40,68.00 -57.64,67.84 -57.87,67.67 -58.04,67.43 -58.22,67.20 -58.30,66.92 -58.39,66.64 -58.38,66.35 -58.38,66.06 -58.38,66.06 -58.38,66.06 -57.18,63.84 -55.99,61.62 -54.90,61.12 -53.82,60.63 -52.17,59.68 -50.53,58.73 -47.77,57.35 -45.02,55.97 -40.32,53.65 -35.63,51.33 -30.94,49.07 -26.26,46.81 -22.36,44.65 -18.47,42.48 -16.07,41.05 -13.68,39.63 -11.46,38.02 -9.24,36.41 -7.26,35.03 -5.28,33.65 -3.05,31.94 -0.82,30.23 0.16,29.79 1.15,29.34 1.43,29.40 1.71,29.46 1.96,29.58 2.22,29.70 2.44,29.88 2.66,30.05 2.83,30.28 3.00,30.51 3.11,30.77 3.22,31.03 3.27,31.30 3.32,31.58 3.29,31.87 3.27,32.15 3.18,32.42 3.09,32.68 2.94,32.92 2.79,33.16 2.59,33.36 2.39,33.56 2.14,33.70 1.90,33.84 1.63,33.92 1.35,34.00 1.07,34.01 0.79,34.02 0.42,33.72 0.05,33.41 -1.32,33.16 -2.70,32.92 -4.41,32.64 -6.11,32.36 -8.60,31.89 -11.09,31.43 -15.64,30.66 -20.19,29.89 -21.81,29.58 -23.43,29.27 -25.00,28.93 -26.56,28.59 -27.87,28.19 -29.19,27.79 -30.52,27.25 -31.85,26.72 -32.95,25.92 -34.06,25.12 -34.64,24.10 -35.23,23.08 -33.72,20.85 -32.21,18.63 -31.11,18.00 -30.01,17.36 -28.80,16.69 -27.59,16.01 -25.44,14.70 -23.28,13.38 -21.33,12.16 -19.39,10.93 -18.01,10.14 -16.63,9.34 -15.19,8.06 -13.76,6.77 -12.44,5.82 -11.13,4.86 -9.96,3.80 -8.79,2.73 -7.40,1.52 -6.01,0.30 -4.36,-0.67 -2.71,-1.64 -1.51,-1.78 -0.31,-1.91 -0.08,-1.92 0.14,-1.93 0.37,-1.88 0.60,-1.84 0.81,-1.74 1.03,-1.64 1.21,-1.49 1.39,-1.34 1.53,-1.16 1.67,-0.97 1.76,-0.76 1.86,-0.54 1.89,-0.31 1.93,-0.08 1.92,0.14 1.90,0.38 1.82,0.60 1.75,0.82 1.63,1.02 1.50,1.22 1.33,1.38 1.17,1.54 0.96,1.66 0.76,1.78 0.54,1.84 0.31,1.91 0.31,1.91 L 0.31,1.91 Z"></path></g><g transform="translate(506.6999053069467 503.4697882331993) rotate(0 90 50)"><text x="90" y="17.52" font-family="Virgil, Segoe UI Emoji" font-size="20px" fill="#e03131" text-anchor="middle" style="white-space: pre;" direction="ltr" dominant-baseline="alphabetic">為什麼預設日期</text><text x="90" y="42.519999999999996" font-family="Virgil, Segoe UI Emoji" font-size="20px" fill="#e03131" text-anchor="middle" style="white-space: pre;" direction="ltr" dominant-baseline="alphabetic">為現在時間</text><text x="90" y="67.52" font-family="Virgil, Segoe UI Emoji" font-size="20px" fill="#e03131" text-anchor="middle" style="white-space: pre;" direction="ltr" dominant-baseline="alphabetic">卻只能投保出發日期</text><text x="90" y="92.52" font-family="Virgil, Segoe UI Emoji" font-size="20px" fill="#e03131" text-anchor="middle" style="white-space: pre;" direction="ltr" dominant-baseline="alphabetic">一小時前以上的旅程</text></g><g mask="url(#mask-FJsrKuJUrmKX0x_JeUCyp)" stroke-linecap="round"><g transform="translate(783.2170044727197 1123.2644487656473) rotate(0 159.38418988318028 -487.43034462813443)"><path d="M0.71 1.12 C48.21 -28.14, 231.91 -13.97, 284.72 -176.66 C337.54 -339.35, 311.75 -841.78, 317.62 -975 M-0.38 0.66 C47.07 -28.86, 230.83 -16.12, 284.21 -178.52 C337.6 -340.92, 314.42 -840.94, 319.9 -973.75" stroke="#1e1e1e" stroke-width="2" fill="none"></path></g><g transform="translate(783.2170044727197 1123.2644487656473) rotate(0 159.38418988318028 -487.43034462813443)"><path d="M328.45 -950.26 C328.2 -955.24, 324.84 -964.98, 319.9 -973.75 M328.45 -950.26 C326.61 -957.06, 323.22 -963.22, 319.9 -973.75" stroke="#1e1e1e" stroke-width="2" fill="none"></path></g><g transform="translate(783.2170044727197 1123.2644487656473) rotate(0 159.38418988318028 -487.43034462813443)"><path d="M311.35 -950.26 C315.77 -955.35, 317.1 -965.08, 319.9 -973.75 M311.35 -950.26 C314.45 -956.91, 315.99 -963.07, 319.9 -973.75" stroke="#1e1e1e" stroke-width="2" fill="none"></path></g></g><mask id="mask-FJsrKuJUrmKX0x_JeUCyp"><rect x="0" y="0" fill="#fff" width="1201.9853842390803" height="2198.1251380219164"></rect><rect x="1027.1079789605967" y="921.0979521883646" fill="#000" width="80" height="50" opacity="1"></rect></mask><g transform="translate(1027.1079789605967 921.0979521883648) rotate(0 -83.89947864106682 -284.7738936072035)"><text x="40" y="17.52" font-family="Virgil, Segoe UI Emoji" font-size="20px" fill="#1e1e1e" text-anchor="middle" style="white-space: pre;" direction="ltr" dominant-baseline="alphabetic">確認資料</text><text x="40" y="42.519999999999996" font-family="Virgil, Segoe UI Emoji" font-size="20px" fill="#1e1e1e" text-anchor="middle" style="white-space: pre;" direction="ltr" dominant-baseline="alphabetic">(05:25)</text></g></svg>